%TF.GenerationSoftware,KiCad,Pcbnew,(6.0.4)*%
%TF.CreationDate,2022-06-15T11:08:02+02:00*%
%TF.ProjectId,W5500_Shield_Ethernet,57353530-305f-4536-9869-656c645f4574,rev?*%
%TF.SameCoordinates,Original*%
%TF.FileFunction,Copper,L1,Top*%
%TF.FilePolarity,Positive*%
%FSLAX46Y46*%
G04 Gerber Fmt 4.6, Leading zero omitted, Abs format (unit mm)*
G04 Created by KiCad (PCBNEW (6.0.4)) date 2022-06-15 11:08:02*
%MOMM*%
%LPD*%
G01*
G04 APERTURE LIST*
G04 Aperture macros list*
%AMRoundRect*
0 Rectangle with rounded corners*
0 $1 Rounding radius*
0 $2 $3 $4 $5 $6 $7 $8 $9 X,Y pos of 4 corners*
0 Add a 4 corners polygon primitive as box body*
4,1,4,$2,$3,$4,$5,$6,$7,$8,$9,$2,$3,0*
0 Add four circle primitives for the rounded corners*
1,1,$1+$1,$2,$3*
1,1,$1+$1,$4,$5*
1,1,$1+$1,$6,$7*
1,1,$1+$1,$8,$9*
0 Add four rect primitives between the rounded corners*
20,1,$1+$1,$2,$3,$4,$5,0*
20,1,$1+$1,$4,$5,$6,$7,0*
20,1,$1+$1,$6,$7,$8,$9,0*
20,1,$1+$1,$8,$9,$2,$3,0*%
G04 Aperture macros list end*
%TA.AperFunction,SMDPad,CuDef*%
%ADD10R,1.200000X1.400000*%
%TD*%
%TA.AperFunction,SMDPad,CuDef*%
%ADD11RoundRect,0.140000X-0.140000X-0.170000X0.140000X-0.170000X0.140000X0.170000X-0.140000X0.170000X0*%
%TD*%
%TA.AperFunction,SMDPad,CuDef*%
%ADD12RoundRect,0.140000X0.170000X-0.140000X0.170000X0.140000X-0.170000X0.140000X-0.170000X-0.140000X0*%
%TD*%
%TA.AperFunction,SMDPad,CuDef*%
%ADD13RoundRect,0.135000X-0.135000X-0.185000X0.135000X-0.185000X0.135000X0.185000X-0.135000X0.185000X0*%
%TD*%
%TA.AperFunction,SMDPad,CuDef*%
%ADD14RoundRect,0.135000X0.185000X-0.135000X0.185000X0.135000X-0.185000X0.135000X-0.185000X-0.135000X0*%
%TD*%
%TA.AperFunction,SMDPad,CuDef*%
%ADD15RoundRect,0.140000X0.140000X0.170000X-0.140000X0.170000X-0.140000X-0.170000X0.140000X-0.170000X0*%
%TD*%
%TA.AperFunction,SMDPad,CuDef*%
%ADD16RoundRect,0.218750X0.218750X0.256250X-0.218750X0.256250X-0.218750X-0.256250X0.218750X-0.256250X0*%
%TD*%
%TA.AperFunction,SMDPad,CuDef*%
%ADD17RoundRect,0.140000X-0.170000X0.140000X-0.170000X-0.140000X0.170000X-0.140000X0.170000X0.140000X0*%
%TD*%
%TA.AperFunction,SMDPad,CuDef*%
%ADD18RoundRect,0.135000X0.135000X0.185000X-0.135000X0.185000X-0.135000X-0.185000X0.135000X-0.185000X0*%
%TD*%
%TA.AperFunction,SMDPad,CuDef*%
%ADD19RoundRect,0.250000X0.325000X0.650000X-0.325000X0.650000X-0.325000X-0.650000X0.325000X-0.650000X0*%
%TD*%
%TA.AperFunction,SMDPad,CuDef*%
%ADD20RoundRect,0.075000X-0.662500X-0.075000X0.662500X-0.075000X0.662500X0.075000X-0.662500X0.075000X0*%
%TD*%
%TA.AperFunction,SMDPad,CuDef*%
%ADD21RoundRect,0.075000X-0.075000X-0.662500X0.075000X-0.662500X0.075000X0.662500X-0.075000X0.662500X0*%
%TD*%
%TA.AperFunction,ComponentPad*%
%ADD22R,1.900000X1.900000*%
%TD*%
%TA.AperFunction,ComponentPad*%
%ADD23C,1.900000*%
%TD*%
%TA.AperFunction,ComponentPad*%
%ADD24C,2.100000*%
%TD*%
%TA.AperFunction,ComponentPad*%
%ADD25C,2.600000*%
%TD*%
%TA.AperFunction,ComponentPad*%
%ADD26R,1.700000X1.700000*%
%TD*%
%TA.AperFunction,ComponentPad*%
%ADD27O,1.700000X1.700000*%
%TD*%
%TA.AperFunction,SMDPad,CuDef*%
%ADD28RoundRect,0.243750X0.243750X0.456250X-0.243750X0.456250X-0.243750X-0.456250X0.243750X-0.456250X0*%
%TD*%
%TA.AperFunction,SMDPad,CuDef*%
%ADD29RoundRect,0.135000X-0.185000X0.135000X-0.185000X-0.135000X0.185000X-0.135000X0.185000X0.135000X0*%
%TD*%
%TA.AperFunction,SMDPad,CuDef*%
%ADD30RoundRect,0.200000X-0.200000X-0.275000X0.200000X-0.275000X0.200000X0.275000X-0.200000X0.275000X0*%
%TD*%
%TA.AperFunction,ViaPad*%
%ADD31C,0.800000*%
%TD*%
%TA.AperFunction,Conductor*%
%ADD32C,0.200000*%
%TD*%
%TA.AperFunction,Conductor*%
%ADD33C,0.250000*%
%TD*%
G04 APERTURE END LIST*
D10*
%TO.P,Y1,1,1*%
%TO.N,Net-(C12-Pad1)*%
X126450000Y-70750000D03*
%TO.P,Y1,2,2*%
%TO.N,GND*%
X126450000Y-68550000D03*
%TO.P,Y1,3,3*%
%TO.N,Net-(C13-Pad1)*%
X124750000Y-68550000D03*
%TO.P,Y1,4,4*%
%TO.N,GND*%
X124750000Y-70750000D03*
%TD*%
D11*
%TO.P,C13,1*%
%TO.N,Net-(C13-Pad1)*%
X124370000Y-66900000D03*
%TO.P,C13,2*%
%TO.N,GND*%
X125330000Y-66900000D03*
%TD*%
D12*
%TO.P,C10,1*%
%TO.N,GND*%
X103900000Y-62720000D03*
%TO.P,C10,2*%
%TO.N,Net-(C10-Pad2)*%
X103900000Y-61760000D03*
%TD*%
D13*
%TO.P,R12,1*%
%TO.N,Net-(R12-Pad1)*%
X120740000Y-73000000D03*
%TO.P,R12,2*%
%TO.N,/K_LED*%
X121760000Y-73000000D03*
%TD*%
D14*
%TO.P,R11,1*%
%TO.N,Net-(C12-Pad1)*%
X123100000Y-70160000D03*
%TO.P,R11,2*%
%TO.N,Net-(C13-Pad1)*%
X123100000Y-69140000D03*
%TD*%
D15*
%TO.P,C8,1*%
%TO.N,Net-(C8-Pad1)*%
X107000000Y-75250000D03*
%TO.P,C8,2*%
%TO.N,Net-(C8-Pad2)*%
X106040000Y-75250000D03*
%TD*%
D16*
%TO.P,L1,1,1*%
%TO.N,+3V3*%
X111287500Y-63750000D03*
%TO.P,L1,2,2*%
%TO.N,+3.3VA*%
X109712500Y-63750000D03*
%TD*%
D17*
%TO.P,C14,1*%
%TO.N,Net-(C14-Pad1)*%
X116500000Y-76270000D03*
%TO.P,C14,2*%
%TO.N,GND*%
X116500000Y-77230000D03*
%TD*%
D18*
%TO.P,R10,1*%
%TO.N,Net-(C8-Pad1)*%
X107030000Y-74000000D03*
%TO.P,R10,2*%
%TO.N,Net-(C9-Pad2)*%
X106010000Y-74000000D03*
%TD*%
D19*
%TO.P,C11,1*%
%TO.N,GND*%
X107725000Y-78500000D03*
%TO.P,C11,2*%
%TO.N,Net-(C11-Pad2)*%
X104775000Y-78500000D03*
%TD*%
D15*
%TO.P,C12,1*%
%TO.N,Net-(C12-Pad1)*%
X126830000Y-72400000D03*
%TO.P,C12,2*%
%TO.N,GND*%
X125870000Y-72400000D03*
%TD*%
%TO.P,C7,1*%
%TO.N,Net-(C7-Pad1)*%
X107000000Y-70250000D03*
%TO.P,C7,2*%
%TO.N,Net-(C7-Pad2)*%
X106040000Y-70250000D03*
%TD*%
D20*
%TO.P,U2,1,TXN*%
%TO.N,Net-(R5-Pad1)*%
X110587500Y-67250000D03*
%TO.P,U2,2,TXP*%
%TO.N,Net-(R6-Pad1)*%
X110587500Y-67750000D03*
%TO.P,U2,3,AGND*%
%TO.N,GND*%
X110587500Y-68250000D03*
%TO.P,U2,4,AVDD*%
%TO.N,+3.3VA*%
X110587500Y-68750000D03*
%TO.P,U2,5,RXN*%
%TO.N,Net-(R7-Pad1)*%
X110587500Y-69250000D03*
%TO.P,U2,6,RXP*%
%TO.N,Net-(R8-Pad1)*%
X110587500Y-69750000D03*
%TO.P,U2,7,DNC*%
%TO.N,unconnected-(U2-Pad7)*%
X110587500Y-70250000D03*
%TO.P,U2,8,AVDD*%
%TO.N,+3.3VA*%
X110587500Y-70750000D03*
%TO.P,U2,9,AGND*%
%TO.N,GND*%
X110587500Y-71250000D03*
%TO.P,U2,10,EXRES1*%
%TO.N,Net-(R14-Pad1)*%
X110587500Y-71750000D03*
%TO.P,U2,11,AVDD*%
%TO.N,+3.3VA*%
X110587500Y-72250000D03*
%TO.P,U2,12,NC*%
%TO.N,unconnected-(U2-Pad12)*%
X110587500Y-72750000D03*
D21*
%TO.P,U2,13,NC*%
%TO.N,unconnected-(U2-Pad13)*%
X112000000Y-74162500D03*
%TO.P,U2,14,AGND*%
%TO.N,GND*%
X112500000Y-74162500D03*
%TO.P,U2,15,AVDD*%
%TO.N,+3.3VA*%
X113000000Y-74162500D03*
%TO.P,U2,16,AGND*%
%TO.N,GND*%
X113500000Y-74162500D03*
%TO.P,U2,17,AVDD*%
%TO.N,+3.3VA*%
X114000000Y-74162500D03*
%TO.P,U2,18,VBG*%
%TO.N,unconnected-(U2-Pad18)*%
X114500000Y-74162500D03*
%TO.P,U2,19,AGND*%
%TO.N,GND*%
X115000000Y-74162500D03*
%TO.P,U2,20,TOCAP*%
%TO.N,Net-(C15-Pad1)*%
X115500000Y-74162500D03*
%TO.P,U2,21,AVDD*%
%TO.N,+3.3VA*%
X116000000Y-74162500D03*
%TO.P,U2,22,1V2O*%
%TO.N,Net-(C14-Pad1)*%
X116500000Y-74162500D03*
%TO.P,U2,23,RSVD*%
%TO.N,GND*%
X117000000Y-74162500D03*
%TO.P,U2,24,SPDLED*%
%TO.N,unconnected-(U2-Pad24)*%
X117500000Y-74162500D03*
D20*
%TO.P,U2,25,LINKLED*%
%TO.N,Net-(R12-Pad1)*%
X118912500Y-72750000D03*
%TO.P,U2,26,DUPLED*%
%TO.N,unconnected-(U2-Pad26)*%
X118912500Y-72250000D03*
%TO.P,U2,27,ACTLED*%
%TO.N,Net-(R13-Pad1)*%
X118912500Y-71750000D03*
%TO.P,U2,28,VDD*%
%TO.N,+3V3*%
X118912500Y-71250000D03*
%TO.P,U2,29,GND*%
%TO.N,GND*%
X118912500Y-70750000D03*
%TO.P,U2,30,XI/CLKIN*%
%TO.N,Net-(C12-Pad1)*%
X118912500Y-70250000D03*
%TO.P,U2,31,XO*%
%TO.N,Net-(C13-Pad1)*%
X118912500Y-69750000D03*
%TO.P,U2,32,~{SCS}*%
%TO.N,SCS_eth*%
X118912500Y-69250000D03*
%TO.P,U2,33,SCLK*%
%TO.N,SCLK_eth*%
X118912500Y-68750000D03*
%TO.P,U2,34,MISO*%
%TO.N,MISO_eth*%
X118912500Y-68250000D03*
%TO.P,U2,35,MOSI*%
%TO.N,MOSI_eth*%
X118912500Y-67750000D03*
%TO.P,U2,36,~{INT}*%
%TO.N,+3V3*%
X118912500Y-67250000D03*
D21*
%TO.P,U2,37,~{RST}*%
%TO.N,RESET_eth*%
X117500000Y-65837500D03*
%TO.P,U2,38,RSVD*%
%TO.N,unconnected-(U2-Pad38)*%
X117000000Y-65837500D03*
%TO.P,U2,39,RSVD*%
%TO.N,unconnected-(U2-Pad39)*%
X116500000Y-65837500D03*
%TO.P,U2,40,RSVD*%
%TO.N,unconnected-(U2-Pad40)*%
X116000000Y-65837500D03*
%TO.P,U2,41,RSVD*%
%TO.N,unconnected-(U2-Pad41)*%
X115500000Y-65837500D03*
%TO.P,U2,42,RSVD*%
%TO.N,unconnected-(U2-Pad42)*%
X115000000Y-65837500D03*
%TO.P,U2,43,PMODE2*%
%TO.N,+3V3*%
X114500000Y-65837500D03*
%TO.P,U2,44,PMODE1*%
X114000000Y-65837500D03*
%TO.P,U2,45,PMODE0*%
X113500000Y-65837500D03*
%TO.P,U2,46,NC*%
%TO.N,unconnected-(U2-Pad46)*%
X113000000Y-65837500D03*
%TO.P,U2,47,NC*%
%TO.N,unconnected-(U2-Pad47)*%
X112500000Y-65837500D03*
%TO.P,U2,48,AGND*%
%TO.N,GND*%
X112000000Y-65837500D03*
%TD*%
D18*
%TO.P,R7,1*%
%TO.N,Net-(R7-Pad1)*%
X107030000Y-69000000D03*
%TO.P,R7,2*%
%TO.N,Net-(C7-Pad1)*%
X106010000Y-69000000D03*
%TD*%
D17*
%TO.P,C15,1*%
%TO.N,Net-(C15-Pad1)*%
X115500000Y-76270000D03*
%TO.P,C15,2*%
%TO.N,GND*%
X115500000Y-77230000D03*
%TD*%
D18*
%TO.P,R6,1*%
%TO.N,Net-(R6-Pad1)*%
X107040000Y-66500000D03*
%TO.P,R6,2*%
%TO.N,Net-(J1-Pad1)*%
X106020000Y-66500000D03*
%TD*%
%TO.P,R8,1*%
%TO.N,Net-(R8-Pad1)*%
X107020000Y-76500000D03*
%TO.P,R8,2*%
%TO.N,Net-(C8-Pad1)*%
X106000000Y-76500000D03*
%TD*%
D22*
%TO.P,J1,1,TD+*%
%TO.N,Net-(J1-Pad1)*%
X98345000Y-64805000D03*
D23*
%TO.P,J1,2,TCT*%
%TO.N,Net-(C10-Pad2)*%
X100885000Y-66075000D03*
%TO.P,J1,3,TD-*%
%TO.N,Net-(J1-Pad3)*%
X98345000Y-67345000D03*
%TO.P,J1,4,RD+*%
%TO.N,Net-(C8-Pad2)*%
X100885000Y-68615000D03*
%TO.P,J1,5,RCT*%
%TO.N,Net-(C9-Pad2)*%
X98345000Y-69885000D03*
%TO.P,J1,6,RD-*%
%TO.N,Net-(C7-Pad2)*%
X100885000Y-71155000D03*
%TO.P,J1,7,NC*%
%TO.N,unconnected-(J1-Pad7)*%
X98345000Y-72425000D03*
%TO.P,J1,8,GND*%
%TO.N,Net-(C11-Pad2)*%
X100885000Y-73695000D03*
D24*
%TO.P,J1,L1,LEDY_A*%
%TO.N,+3V3*%
X87935000Y-62625000D03*
%TO.P,J1,L2,LEDY_K*%
%TO.N,/A_LED*%
X87935000Y-65165000D03*
%TO.P,J1,L3,LEDG_A*%
%TO.N,+3V3*%
X87935000Y-73335000D03*
%TO.P,J1,L4,LEDG_K*%
%TO.N,/K_LED*%
X87935000Y-75875000D03*
D25*
%TO.P,J1,SH,SHIELD*%
%TO.N,Net-(C11-Pad2)*%
X95045000Y-76995000D03*
X95045000Y-61505000D03*
%TD*%
D26*
%TO.P,J2,1,Pin_1*%
%TO.N,SCS_eth*%
X130550000Y-64040000D03*
D27*
%TO.P,J2,2,Pin_2*%
%TO.N,+3V3*%
X130550000Y-61500000D03*
%TO.P,J2,3,Pin_3*%
%TO.N,SCLK_eth*%
X128010000Y-64040000D03*
%TO.P,J2,4,Pin_4*%
%TO.N,+3V3*%
X128010000Y-61500000D03*
%TO.P,J2,5,Pin_5*%
%TO.N,MISO_eth*%
X125470000Y-64040000D03*
%TO.P,J2,6,Pin_6*%
%TO.N,+3V3*%
X125470000Y-61500000D03*
%TO.P,J2,7,Pin_7*%
%TO.N,MOSI_eth*%
X122930000Y-64040000D03*
%TO.P,J2,8,Pin_8*%
%TO.N,GND*%
X122930000Y-61500000D03*
%TO.P,J2,9,Pin_9*%
%TO.N,RESET_eth*%
X120390000Y-64040000D03*
%TO.P,J2,10,Pin_10*%
%TO.N,GND*%
X120390000Y-61500000D03*
%TD*%
D11*
%TO.P,C9,1*%
%TO.N,GND*%
X106060000Y-72750000D03*
%TO.P,C9,2*%
%TO.N,Net-(C9-Pad2)*%
X107020000Y-72750000D03*
%TD*%
D28*
%TO.P,D1,1,K*%
%TO.N,Net-(D1-Pad1)*%
X108937500Y-61750000D03*
%TO.P,D1,2,A*%
%TO.N,+3V3*%
X107062500Y-61750000D03*
%TD*%
D18*
%TO.P,R5,1*%
%TO.N,Net-(R5-Pad1)*%
X107030000Y-65250000D03*
%TO.P,R5,2*%
%TO.N,Net-(J1-Pad3)*%
X106010000Y-65250000D03*
%TD*%
D13*
%TO.P,R4,1*%
%TO.N,Net-(J1-Pad1)*%
X106020000Y-67750000D03*
%TO.P,R4,2*%
%TO.N,+3.3VA*%
X107040000Y-67750000D03*
%TD*%
%TO.P,R13,1*%
%TO.N,Net-(R13-Pad1)*%
X120740000Y-72000000D03*
%TO.P,R13,2*%
%TO.N,/A_LED*%
X121760000Y-72000000D03*
%TD*%
D12*
%TO.P,C4,1*%
%TO.N,+3V3*%
X115000000Y-63980000D03*
%TO.P,C4,2*%
%TO.N,GND*%
X115000000Y-63020000D03*
%TD*%
D18*
%TO.P,R9,1*%
%TO.N,Net-(C7-Pad1)*%
X107030000Y-71500000D03*
%TO.P,R9,2*%
%TO.N,Net-(C9-Pad2)*%
X106010000Y-71500000D03*
%TD*%
D29*
%TO.P,R14,1*%
%TO.N,Net-(R14-Pad1)*%
X109000000Y-72740000D03*
%TO.P,R14,2*%
%TO.N,GND*%
X109000000Y-73760000D03*
%TD*%
D13*
%TO.P,R3,1*%
%TO.N,Net-(J1-Pad3)*%
X106020000Y-64000000D03*
%TO.P,R3,2*%
%TO.N,+3.3VA*%
X107040000Y-64000000D03*
%TD*%
D17*
%TO.P,C5,1*%
%TO.N,+3.3VA*%
X113000000Y-76020000D03*
%TO.P,C5,2*%
%TO.N,GND*%
X113000000Y-76980000D03*
%TD*%
D12*
%TO.P,C3,1*%
%TO.N,+3V3*%
X114000000Y-63980000D03*
%TO.P,C3,2*%
%TO.N,GND*%
X114000000Y-63020000D03*
%TD*%
D30*
%TO.P,R1,1*%
%TO.N,Net-(D1-Pad1)*%
X110675000Y-62000000D03*
%TO.P,R1,2*%
%TO.N,GND*%
X112325000Y-62000000D03*
%TD*%
D17*
%TO.P,C6,1*%
%TO.N,+3.3VA*%
X112000000Y-76020000D03*
%TO.P,C6,2*%
%TO.N,GND*%
X112000000Y-76980000D03*
%TD*%
D14*
%TO.P,R2,1*%
%TO.N,Net-(C10-Pad2)*%
X105000000Y-62760000D03*
%TO.P,R2,2*%
%TO.N,+3.3VA*%
X105000000Y-61740000D03*
%TD*%
D31*
%TO.N,GND*%
X121000000Y-71000000D03*
X112500000Y-67750000D03*
X112500000Y-60750000D03*
X109250000Y-77250000D03*
X105000000Y-72750000D03*
X114000000Y-62000000D03*
X110750000Y-65500000D03*
X109250000Y-78500000D03*
X114000000Y-71750000D03*
X110000000Y-73750000D03*
X126500000Y-67000000D03*
X111000000Y-77000000D03*
X102250000Y-62750000D03*
X117750000Y-77250000D03*
X124500000Y-72250000D03*
X110750000Y-75250000D03*
X114500000Y-77500000D03*
X115000000Y-62000000D03*
X114000000Y-76500000D03*
X108750000Y-71000000D03*
%TO.N,+3.3VA*%
X112500000Y-68750000D03*
X108020000Y-64250000D03*
%TO.N,Net-(C8-Pad2)*%
X105000000Y-75250000D03*
%TO.N,Net-(J1-Pad1)*%
X104750000Y-66500000D03*
%TD*%
D32*
%TO.N,GND*%
X114500000Y-77500000D02*
X114770000Y-77230000D01*
X124650000Y-72400000D02*
X124500000Y-72250000D01*
D33*
X103870000Y-62750000D02*
X103900000Y-62720000D01*
D32*
X124750000Y-72000000D02*
X124500000Y-72250000D01*
X112000000Y-76980000D02*
X111020000Y-76980000D01*
X109990000Y-73760000D02*
X110000000Y-73750000D01*
X109000000Y-73760000D02*
X109990000Y-73760000D01*
X124750000Y-70750000D02*
X124750000Y-72000000D01*
X114770000Y-77230000D02*
X115500000Y-77230000D01*
X110587500Y-71250000D02*
X109000000Y-71250000D01*
X108750000Y-77250000D02*
X109250000Y-77250000D01*
X117730000Y-77230000D02*
X117750000Y-77250000D01*
X112179651Y-75250000D02*
X110750000Y-75250000D01*
X111020000Y-76980000D02*
X111000000Y-77000000D01*
X116500000Y-77230000D02*
X117730000Y-77230000D01*
X115000000Y-74162500D02*
X115000000Y-75500000D01*
X110587500Y-68250000D02*
X112000000Y-68250000D01*
X107725000Y-78275000D02*
X108750000Y-77250000D01*
X113500000Y-72250000D02*
X114000000Y-71750000D01*
X115000000Y-75500000D02*
X114000000Y-76500000D01*
X117750000Y-76250000D02*
X117000000Y-75500000D01*
X126450000Y-68550000D02*
X126450000Y-67050000D01*
X126400000Y-66900000D02*
X126500000Y-67000000D01*
X112000000Y-65837500D02*
X111087500Y-65837500D01*
X118912500Y-70750000D02*
X120750000Y-70750000D01*
X117000000Y-75500000D02*
X117000000Y-74162500D01*
X107725000Y-78500000D02*
X107725000Y-78275000D01*
X120750000Y-70750000D02*
X121000000Y-71000000D01*
X113500000Y-74162500D02*
X113500000Y-72250000D01*
X107725000Y-78500000D02*
X109250000Y-78500000D01*
D33*
X112325000Y-60925000D02*
X112500000Y-60750000D01*
D32*
X125870000Y-72400000D02*
X124650000Y-72400000D01*
X125330000Y-66900000D02*
X126400000Y-66900000D01*
X113520000Y-76980000D02*
X114000000Y-76500000D01*
X113000000Y-76980000D02*
X113520000Y-76980000D01*
D33*
X102250000Y-62750000D02*
X103870000Y-62750000D01*
D32*
X111087500Y-65837500D02*
X110750000Y-65500000D01*
X112500000Y-74162500D02*
X112500000Y-74929651D01*
X115000000Y-63020000D02*
X115000000Y-62000000D01*
X117750000Y-77250000D02*
X117750000Y-76250000D01*
X114000000Y-63020000D02*
X114000000Y-62000000D01*
D33*
X112325000Y-62000000D02*
X112325000Y-60925000D01*
D32*
X112500000Y-74929651D02*
X112179651Y-75250000D01*
X109000000Y-71250000D02*
X108750000Y-71000000D01*
X126450000Y-67050000D02*
X126500000Y-67000000D01*
X112000000Y-68250000D02*
X112500000Y-67750000D01*
X106060000Y-72750000D02*
X105000000Y-72750000D01*
%TO.N,+3V3*%
X111517500Y-63980000D02*
X111287500Y-63750000D01*
X116400000Y-62800000D02*
X122450000Y-62800000D01*
D33*
X87935000Y-73335000D02*
X89750000Y-71520000D01*
D32*
X122450000Y-62800000D02*
X122575489Y-62674511D01*
D33*
X124295489Y-62674511D02*
X122575489Y-62674511D01*
D32*
X117500000Y-70604651D02*
X117500000Y-67750000D01*
D33*
X119750000Y-67250000D02*
X118912500Y-67250000D01*
D32*
X118000000Y-67250000D02*
X117750000Y-67250000D01*
D33*
X125470000Y-61500000D02*
X124295489Y-62674511D01*
X130550000Y-61500000D02*
X125470000Y-61500000D01*
D32*
X114500000Y-65837500D02*
X114500000Y-64480000D01*
X117500000Y-67750000D02*
X118000000Y-67250000D01*
X116180000Y-62800000D02*
X115000000Y-63980000D01*
X113500000Y-65837500D02*
X113500000Y-66750000D01*
X110287500Y-62750000D02*
X108062500Y-62750000D01*
X114000000Y-63980000D02*
X115000000Y-63980000D01*
X114500000Y-64480000D02*
X115000000Y-63980000D01*
X118145349Y-71250000D02*
X117500000Y-70604651D01*
X114500000Y-66604651D02*
X114500000Y-65837500D01*
X108062500Y-62750000D02*
X107062500Y-61750000D01*
D33*
X105062500Y-59750000D02*
X107062500Y-61750000D01*
X122575489Y-62674511D02*
X121564511Y-63685489D01*
X121564511Y-63685489D02*
X121564511Y-65435489D01*
D32*
X118000000Y-67250000D02*
X118912500Y-67250000D01*
X116400000Y-62800000D02*
X116180000Y-62800000D01*
D33*
X90810000Y-59750000D02*
X105062500Y-59750000D01*
D32*
X118912500Y-71250000D02*
X118145349Y-71250000D01*
X113500000Y-66750000D02*
X113750000Y-67000000D01*
X113750000Y-67000000D02*
X114895349Y-67000000D01*
D33*
X89750000Y-64440000D02*
X87935000Y-62625000D01*
D32*
X117500000Y-67000000D02*
X114895349Y-67000000D01*
D33*
X121564511Y-65435489D02*
X119750000Y-67250000D01*
X87935000Y-62625000D02*
X90810000Y-59750000D01*
X89750000Y-71520000D02*
X89750000Y-64440000D01*
D32*
X111287500Y-63750000D02*
X110287500Y-62750000D01*
X114895349Y-67000000D02*
X114500000Y-66604651D01*
X114000000Y-63980000D02*
X111517500Y-63980000D01*
X114000000Y-65837500D02*
X114000000Y-63980000D01*
X117750000Y-67250000D02*
X117500000Y-67000000D01*
%TO.N,+3.3VA*%
X108520000Y-63750000D02*
X108020000Y-64250000D01*
X111750000Y-72000000D02*
X111500000Y-72250000D01*
X111500000Y-72250000D02*
X110587500Y-72250000D01*
X116000000Y-72947674D02*
X115802326Y-72750000D01*
X113480000Y-76020000D02*
X114000000Y-75500000D01*
X109020000Y-68750000D02*
X110587500Y-68750000D01*
X107770000Y-64000000D02*
X108020000Y-64250000D01*
X114000000Y-75500000D02*
X114000000Y-74162500D01*
X111750000Y-71000000D02*
X111750000Y-72000000D01*
X112500000Y-72500000D02*
X113000000Y-73000000D01*
X109020000Y-68750000D02*
X108020000Y-67750000D01*
X113000000Y-73000000D02*
X113000000Y-74162500D01*
X115802326Y-72750000D02*
X114250000Y-72750000D01*
X112500000Y-68750000D02*
X110587500Y-68750000D01*
X110587500Y-70750000D02*
X111500000Y-70750000D01*
X113000000Y-76020000D02*
X113000000Y-74162500D01*
X109712500Y-63750000D02*
X108520000Y-63750000D01*
X108020000Y-67750000D02*
X107040000Y-67750000D01*
X111750000Y-72500000D02*
X112500000Y-72500000D01*
X107040000Y-64000000D02*
X107770000Y-64000000D01*
X111750000Y-69000000D02*
X111500000Y-68750000D01*
X111750000Y-70500000D02*
X111750000Y-69000000D01*
X107040000Y-63780000D02*
X107040000Y-64000000D01*
X114000000Y-73000000D02*
X114000000Y-74162500D01*
X105000000Y-61740000D02*
X107040000Y-63780000D01*
X114250000Y-72750000D02*
X114000000Y-73000000D01*
X111500000Y-70750000D02*
X111750000Y-71000000D01*
X112000000Y-76020000D02*
X113000000Y-76020000D01*
X111500000Y-70750000D02*
X111750000Y-70500000D01*
X116000000Y-74162500D02*
X116000000Y-72947674D01*
X113000000Y-76020000D02*
X113480000Y-76020000D01*
X111500000Y-72250000D02*
X111750000Y-72500000D01*
%TO.N,Net-(C7-Pad2)*%
X103750000Y-70250000D02*
X102845000Y-71155000D01*
X102845000Y-71155000D02*
X100885000Y-71155000D01*
X103750000Y-70250000D02*
X106040000Y-70250000D01*
%TO.N,Net-(C8-Pad2)*%
X106040000Y-75250000D02*
X105000000Y-75250000D01*
%TO.N,Net-(C9-Pad2)*%
X107020000Y-72510000D02*
X106010000Y-71500000D01*
X101402565Y-72445489D02*
X100408413Y-72445489D01*
X104250000Y-71500000D02*
X103500000Y-72250000D01*
X106010000Y-73760000D02*
X107020000Y-72750000D01*
X98345000Y-70382076D02*
X98345000Y-69885000D01*
X106010000Y-74000000D02*
X106010000Y-73760000D01*
X100408413Y-72445489D02*
X98345000Y-70382076D01*
X101598054Y-72250000D02*
X101402565Y-72445489D01*
X106010000Y-71500000D02*
X104250000Y-71500000D01*
X107020000Y-72750000D02*
X107020000Y-72510000D01*
X103500000Y-72250000D02*
X101598054Y-72250000D01*
%TO.N,Net-(C12-Pad1)*%
X123509511Y-69750489D02*
X123100000Y-70160000D01*
X125550489Y-69750489D02*
X123509511Y-69750489D01*
X126450000Y-70650000D02*
X125550489Y-69750489D01*
X123100000Y-70160000D02*
X123010000Y-70250000D01*
X126830000Y-71130000D02*
X126450000Y-70750000D01*
X123010000Y-70250000D02*
X118912500Y-70250000D01*
X126830000Y-72400000D02*
X126830000Y-71130000D01*
X126450000Y-70750000D02*
X126450000Y-70650000D01*
%TO.N,Net-(C13-Pad1)*%
X124370000Y-68170000D02*
X124750000Y-68550000D01*
X123100000Y-69140000D02*
X122610000Y-69140000D01*
X124750000Y-68550000D02*
X123690000Y-68550000D01*
X122610000Y-69140000D02*
X122000000Y-69750000D01*
X124370000Y-66900000D02*
X124370000Y-68170000D01*
X122000000Y-69750000D02*
X118912500Y-69750000D01*
X123690000Y-68550000D02*
X123100000Y-69140000D01*
%TO.N,Net-(C15-Pad1)*%
X115500000Y-74162500D02*
X115500000Y-76270000D01*
D33*
%TO.N,Net-(D1-Pad1)*%
X110425000Y-61750000D02*
X110675000Y-62000000D01*
X108937500Y-61750000D02*
X110425000Y-61750000D01*
D32*
%TO.N,/A_LED*%
X117750000Y-80250000D02*
X89750000Y-80250000D01*
X122000000Y-72000000D02*
X122750000Y-72750000D01*
X121760000Y-72000000D02*
X122000000Y-72000000D01*
X89750000Y-80250000D02*
X85750000Y-76250000D01*
X85750000Y-67350000D02*
X87935000Y-65165000D01*
X85750000Y-76250000D02*
X85750000Y-67350000D01*
X122750000Y-75250000D02*
X117750000Y-80250000D01*
X122750000Y-72750000D02*
X122750000Y-75250000D01*
%TO.N,/K_LED*%
X117149520Y-79850480D02*
X92268085Y-79850480D01*
X121760000Y-73000000D02*
X121760000Y-75240000D01*
X92268085Y-79850480D02*
X88292605Y-75875000D01*
X88292605Y-75875000D02*
X87935000Y-75875000D01*
X121760000Y-75240000D02*
X117149520Y-79850480D01*
%TO.N,Net-(R5-Pad1)*%
X109520000Y-67250000D02*
X110587500Y-67250000D01*
X107520000Y-65250000D02*
X109520000Y-67250000D01*
X107030000Y-65250000D02*
X107520000Y-65250000D01*
%TO.N,Net-(R6-Pad1)*%
X108020000Y-66500000D02*
X109270000Y-67750000D01*
X107040000Y-66500000D02*
X108020000Y-66500000D01*
X109270000Y-67750000D02*
X110587500Y-67750000D01*
%TO.N,Net-(R7-Pad1)*%
X110587500Y-69250000D02*
X108250000Y-69250000D01*
X107030000Y-69000000D02*
X108000000Y-69000000D01*
X108250000Y-69250000D02*
X108000000Y-69000000D01*
%TO.N,Net-(R8-Pad1)*%
X108000000Y-75520000D02*
X107020000Y-76500000D01*
X109000000Y-69750000D02*
X108000000Y-70750000D01*
X108000000Y-70750000D02*
X108000000Y-75520000D01*
X110587500Y-69750000D02*
X109000000Y-69750000D01*
%TO.N,Net-(R12-Pad1)*%
X120490000Y-72750000D02*
X120740000Y-73000000D01*
X118912500Y-72750000D02*
X120490000Y-72750000D01*
%TO.N,Net-(R13-Pad1)*%
X118912500Y-71750000D02*
X120490000Y-71750000D01*
X120490000Y-71750000D02*
X120740000Y-72000000D01*
%TO.N,Net-(R14-Pad1)*%
X109500000Y-71750000D02*
X109000000Y-72250000D01*
X110587500Y-71750000D02*
X109500000Y-71750000D01*
X109000000Y-72250000D02*
X109000000Y-72740000D01*
%TO.N,SCS_eth*%
X118912500Y-69250000D02*
X121000000Y-69250000D01*
X121000000Y-69250000D02*
X124250000Y-66000000D01*
X128590000Y-66000000D02*
X130550000Y-64040000D01*
X124250000Y-66000000D02*
X128590000Y-66000000D01*
%TO.N,SCLK_eth*%
X120750000Y-68750000D02*
X124000000Y-65500000D01*
X118912500Y-68750000D02*
X120750000Y-68750000D01*
X124000000Y-65500000D02*
X126550000Y-65500000D01*
X126550000Y-65500000D02*
X128010000Y-64040000D01*
%TO.N,MISO_eth*%
X120500000Y-68250000D02*
X124250000Y-64500000D01*
X118912500Y-68250000D02*
X120500000Y-68250000D01*
X125010000Y-64500000D02*
X125470000Y-64040000D01*
X124250000Y-64500000D02*
X125010000Y-64500000D01*
%TO.N,MOSI_eth*%
X122930000Y-65070000D02*
X122930000Y-64040000D01*
X120250000Y-67750000D02*
X122930000Y-65070000D01*
X118912500Y-67750000D02*
X120250000Y-67750000D01*
%TO.N,RESET_eth*%
X118210000Y-64040000D02*
X120390000Y-64040000D01*
X117500000Y-65837500D02*
X117500000Y-64750000D01*
X117500000Y-64750000D02*
X118210000Y-64040000D01*
D33*
%TO.N,Net-(C7-Pad1)*%
X107000000Y-70250000D02*
X107000000Y-71470000D01*
X107000000Y-69990000D02*
X107000000Y-70250000D01*
X107000000Y-71470000D02*
X107030000Y-71500000D01*
X106010000Y-69000000D02*
X107000000Y-69990000D01*
D32*
%TO.N,Net-(C8-Pad1)*%
X106000000Y-76500000D02*
X106000000Y-76250000D01*
X107000000Y-74030000D02*
X107030000Y-74000000D01*
X106000000Y-76250000D02*
X107000000Y-75250000D01*
X107000000Y-75250000D02*
X107000000Y-74030000D01*
%TO.N,Net-(C10-Pad2)*%
X102250741Y-61760000D02*
X103900000Y-61760000D01*
X100885000Y-66075000D02*
X100885000Y-63125741D01*
X103900000Y-61760000D02*
X104000000Y-61760000D01*
X104000000Y-61760000D02*
X105000000Y-62760000D01*
X100885000Y-63125741D02*
X102250741Y-61760000D01*
%TO.N,Net-(C11-Pad2)*%
X97195000Y-73695000D02*
X95045000Y-71545000D01*
X96550000Y-78500000D02*
X95045000Y-76995000D01*
X104775000Y-78500000D02*
X96550000Y-78500000D01*
X100885000Y-73695000D02*
X97195000Y-73695000D01*
X95045000Y-71545000D02*
X95045000Y-61505000D01*
X97585000Y-76995000D02*
X100885000Y-73695000D01*
X95045000Y-76995000D02*
X97585000Y-76995000D01*
%TO.N,Net-(C14-Pad1)*%
X116500000Y-74162500D02*
X116500000Y-76270000D01*
D33*
%TO.N,Net-(J1-Pad1)*%
X106020000Y-67750000D02*
X106020000Y-66500000D01*
X104750000Y-66500000D02*
X106020000Y-66500000D01*
D32*
%TO.N,Net-(J1-Pad3)*%
X106010000Y-64010000D02*
X106020000Y-64000000D01*
X101655000Y-67345000D02*
X98345000Y-67345000D01*
X106010000Y-65250000D02*
X106010000Y-64010000D01*
X103750000Y-65250000D02*
X101655000Y-67345000D01*
X103750000Y-65250000D02*
X106010000Y-65250000D01*
%TD*%
%TA.AperFunction,Conductor*%
%TO.N,GND*%
G36*
X130970018Y-58710000D02*
G01*
X130984851Y-58712310D01*
X130984855Y-58712310D01*
X130993724Y-58713691D01*
X131007789Y-58711852D01*
X131034003Y-58711176D01*
X131192152Y-58723623D01*
X131211677Y-58726716D01*
X131389459Y-58769398D01*
X131408254Y-58775505D01*
X131492712Y-58810488D01*
X131577166Y-58845470D01*
X131594783Y-58854446D01*
X131750670Y-58949974D01*
X131766665Y-58961596D01*
X131905687Y-59080332D01*
X131919668Y-59094313D01*
X132038404Y-59233335D01*
X132050026Y-59249330D01*
X132145554Y-59405217D01*
X132154530Y-59422834D01*
X132224494Y-59591742D01*
X132230604Y-59610546D01*
X132273284Y-59788322D01*
X132276377Y-59807850D01*
X132288272Y-59958987D01*
X132287630Y-59975875D01*
X132287800Y-59975877D01*
X132287690Y-59984853D01*
X132286309Y-59993724D01*
X132287473Y-60002626D01*
X132287473Y-60002628D01*
X132290436Y-60025283D01*
X132291500Y-60041621D01*
X132291500Y-80150633D01*
X132290000Y-80170018D01*
X132287690Y-80184851D01*
X132287690Y-80184855D01*
X132286309Y-80193724D01*
X132288148Y-80207789D01*
X132288824Y-80234003D01*
X132276377Y-80392150D01*
X132276377Y-80392151D01*
X132273284Y-80411678D01*
X132230604Y-80589454D01*
X132224494Y-80608258D01*
X132154530Y-80777166D01*
X132145554Y-80794783D01*
X132050026Y-80950670D01*
X132038404Y-80966665D01*
X131919668Y-81105687D01*
X131905687Y-81119668D01*
X131766665Y-81238404D01*
X131750670Y-81250026D01*
X131594783Y-81345554D01*
X131577166Y-81354530D01*
X131492712Y-81389512D01*
X131408254Y-81424495D01*
X131389459Y-81430602D01*
X131211678Y-81473284D01*
X131192150Y-81476377D01*
X131041013Y-81488272D01*
X131024125Y-81487630D01*
X131024123Y-81487800D01*
X131015147Y-81487690D01*
X131006276Y-81486309D01*
X130997374Y-81487473D01*
X130997372Y-81487473D01*
X130982323Y-81489441D01*
X130974714Y-81490436D01*
X130958379Y-81491500D01*
X82849367Y-81491500D01*
X82829982Y-81490000D01*
X82815149Y-81487690D01*
X82815145Y-81487690D01*
X82806276Y-81486309D01*
X82792211Y-81488148D01*
X82765997Y-81488824D01*
X82607848Y-81476377D01*
X82588322Y-81473284D01*
X82410541Y-81430602D01*
X82391746Y-81424495D01*
X82307288Y-81389512D01*
X82222834Y-81354530D01*
X82205217Y-81345554D01*
X82049330Y-81250026D01*
X82033335Y-81238404D01*
X81894313Y-81119668D01*
X81880332Y-81105687D01*
X81761596Y-80966665D01*
X81749974Y-80950670D01*
X81654446Y-80794783D01*
X81645470Y-80777166D01*
X81575506Y-80608258D01*
X81569396Y-80589454D01*
X81526716Y-80411678D01*
X81523623Y-80392150D01*
X81512009Y-80244583D01*
X81512994Y-80222258D01*
X81512334Y-80222199D01*
X81512769Y-80217351D01*
X81513576Y-80212552D01*
X81513729Y-80200000D01*
X81509773Y-80172376D01*
X81508500Y-80154514D01*
X81508500Y-76250000D01*
X85136250Y-76250000D01*
X85141500Y-76289880D01*
X85141500Y-76289885D01*
X85154220Y-76386500D01*
X85157162Y-76408851D01*
X85160322Y-76416481D01*
X85160323Y-76416483D01*
X85165351Y-76428621D01*
X85218476Y-76556876D01*
X85223503Y-76563427D01*
X85223504Y-76563429D01*
X85291520Y-76652069D01*
X85291526Y-76652075D01*
X85316013Y-76683987D01*
X85322568Y-76689017D01*
X85341379Y-76703452D01*
X85353770Y-76714319D01*
X89285685Y-80646234D01*
X89296552Y-80658625D01*
X89316013Y-80683987D01*
X89322563Y-80689013D01*
X89347925Y-80708474D01*
X89347928Y-80708477D01*
X89406564Y-80753470D01*
X89443124Y-80781524D01*
X89504438Y-80806921D01*
X89583520Y-80839678D01*
X89583523Y-80839679D01*
X89591150Y-80842838D01*
X89710115Y-80858500D01*
X89710120Y-80858500D01*
X89710129Y-80858501D01*
X89741812Y-80862672D01*
X89750000Y-80863750D01*
X89781693Y-80859578D01*
X89798136Y-80858500D01*
X117701864Y-80858500D01*
X117718307Y-80859578D01*
X117750000Y-80863750D01*
X117758189Y-80862672D01*
X117789874Y-80858501D01*
X117789884Y-80858500D01*
X117789885Y-80858500D01*
X117789901Y-80858498D01*
X117889457Y-80845391D01*
X117900664Y-80843916D01*
X117900666Y-80843915D01*
X117908851Y-80842838D01*
X118056876Y-80781524D01*
X118093437Y-80753470D01*
X118152072Y-80708477D01*
X118152075Y-80708474D01*
X118177434Y-80689015D01*
X118183987Y-80683987D01*
X118189017Y-80677432D01*
X118203452Y-80658621D01*
X118214319Y-80646230D01*
X123146234Y-75714315D01*
X123158625Y-75703448D01*
X123177437Y-75689013D01*
X123183987Y-75683987D01*
X123208474Y-75652075D01*
X123208478Y-75652071D01*
X123281524Y-75556876D01*
X123342838Y-75408851D01*
X123349583Y-75357618D01*
X123358500Y-75289885D01*
X123358500Y-75289880D01*
X123363750Y-75250000D01*
X123359578Y-75218307D01*
X123358500Y-75201864D01*
X123358500Y-72798136D01*
X123359578Y-72781690D01*
X123362672Y-72758188D01*
X123363750Y-72750000D01*
X123358500Y-72710122D01*
X123358500Y-72710115D01*
X123353497Y-72672115D01*
X123353057Y-72668775D01*
X125084937Y-72668775D01*
X125086688Y-72678359D01*
X125128357Y-72821784D01*
X125134604Y-72836220D01*
X125209876Y-72963499D01*
X125219516Y-72975926D01*
X125324074Y-73080484D01*
X125336501Y-73090124D01*
X125463780Y-73165396D01*
X125478216Y-73171643D01*
X125598605Y-73206619D01*
X125612705Y-73206579D01*
X125616000Y-73199309D01*
X125616000Y-72672115D01*
X125611525Y-72656876D01*
X125610135Y-72655671D01*
X125602452Y-72654000D01*
X125101576Y-72654000D01*
X125086781Y-72658344D01*
X125084937Y-72668775D01*
X123353057Y-72668775D01*
X123343916Y-72599336D01*
X123343915Y-72599334D01*
X123342838Y-72591150D01*
X123303629Y-72496492D01*
X123281524Y-72443124D01*
X123208477Y-72347928D01*
X123208474Y-72347925D01*
X123183987Y-72316013D01*
X123177432Y-72310983D01*
X123158621Y-72296548D01*
X123146230Y-72285681D01*
X122542759Y-71682210D01*
X122510857Y-71628268D01*
X122492481Y-71565017D01*
X122492480Y-71565015D01*
X122490269Y-71557404D01*
X122459349Y-71505120D01*
X122411540Y-71424280D01*
X122407506Y-71417459D01*
X122292541Y-71302494D01*
X122273988Y-71291522D01*
X122159419Y-71223766D01*
X122159418Y-71223766D01*
X122152596Y-71219731D01*
X122144985Y-71217520D01*
X122144983Y-71217519D01*
X122002644Y-71176166D01*
X122002645Y-71176166D01*
X121996466Y-71174371D01*
X121990059Y-71173867D01*
X121990055Y-71173866D01*
X121962444Y-71171693D01*
X121962438Y-71171693D01*
X121959989Y-71171500D01*
X121760122Y-71171500D01*
X121560012Y-71171501D01*
X121523534Y-71174371D01*
X121472324Y-71189249D01*
X121375017Y-71217519D01*
X121375015Y-71217520D01*
X121367404Y-71219731D01*
X121360579Y-71223767D01*
X121360575Y-71223769D01*
X121314139Y-71251231D01*
X121245323Y-71268691D01*
X121185861Y-71251231D01*
X121139425Y-71223769D01*
X121139421Y-71223767D01*
X121132596Y-71219731D01*
X121124985Y-71217520D01*
X121124983Y-71217519D01*
X120982644Y-71176166D01*
X120982645Y-71176166D01*
X120976466Y-71174371D01*
X120970059Y-71173867D01*
X120970055Y-71173866D01*
X120942444Y-71171693D01*
X120942438Y-71171693D01*
X120939989Y-71171500D01*
X120916987Y-71171500D01*
X120708533Y-71171501D01*
X120660311Y-71161909D01*
X120656476Y-71160320D01*
X120656473Y-71160319D01*
X120648851Y-71157162D01*
X120640670Y-71156085D01*
X120640666Y-71156084D01*
X120629458Y-71154609D01*
X120598262Y-71150502D01*
X120529885Y-71141500D01*
X120529882Y-71141500D01*
X120529874Y-71141499D01*
X120498189Y-71137328D01*
X120490000Y-71136250D01*
X120458307Y-71140422D01*
X120441864Y-71141500D01*
X120269623Y-71141500D01*
X120201502Y-71121498D01*
X120155009Y-71067842D01*
X120144701Y-71031946D01*
X120143481Y-71022676D01*
X120143480Y-71022675D01*
X120143480Y-71022671D01*
X120144766Y-71022502D01*
X120144765Y-70977434D01*
X120142993Y-70977201D01*
X120144196Y-70968060D01*
X120144765Y-70966774D01*
X120144765Y-70966419D01*
X120146208Y-70961033D01*
X120147188Y-70961296D01*
X120172916Y-70903131D01*
X120232179Y-70864037D01*
X120269119Y-70858500D01*
X122569215Y-70858500D01*
X122633354Y-70876046D01*
X122657404Y-70890269D01*
X122665015Y-70892480D01*
X122665017Y-70892481D01*
X122715550Y-70907162D01*
X122813534Y-70935629D01*
X122819941Y-70936133D01*
X122819945Y-70936134D01*
X122847556Y-70938307D01*
X122847562Y-70938307D01*
X122850011Y-70938500D01*
X123099848Y-70938500D01*
X123349988Y-70938499D01*
X123386466Y-70935629D01*
X123480850Y-70908208D01*
X123551844Y-70908411D01*
X123611460Y-70946964D01*
X123640769Y-71011629D01*
X123642001Y-71029205D01*
X123642001Y-71494669D01*
X123642371Y-71501490D01*
X123647895Y-71552352D01*
X123651521Y-71567604D01*
X123696676Y-71688054D01*
X123705214Y-71703649D01*
X123781715Y-71805724D01*
X123794276Y-71818285D01*
X123896351Y-71894786D01*
X123911946Y-71903324D01*
X124032394Y-71948478D01*
X124047649Y-71952105D01*
X124098514Y-71957631D01*
X124105328Y-71958000D01*
X124477885Y-71958000D01*
X124493124Y-71953525D01*
X124494329Y-71952135D01*
X124496000Y-71944452D01*
X124496000Y-70622000D01*
X124516002Y-70553879D01*
X124569658Y-70507386D01*
X124622000Y-70496000D01*
X124878000Y-70496000D01*
X124946121Y-70516002D01*
X124992614Y-70569658D01*
X125004000Y-70622000D01*
X125004000Y-71939884D01*
X125008475Y-71955123D01*
X125024664Y-71969151D01*
X125057744Y-71987214D01*
X125091769Y-72049526D01*
X125089645Y-72111463D01*
X125086687Y-72121644D01*
X125085232Y-72129609D01*
X125088052Y-72143031D01*
X125099513Y-72146000D01*
X125915500Y-72146000D01*
X125983621Y-72166002D01*
X126030114Y-72219658D01*
X126041500Y-72272000D01*
X126041500Y-72635484D01*
X126041693Y-72637932D01*
X126041693Y-72637940D01*
X126043184Y-72656876D01*
X126044394Y-72672254D01*
X126090106Y-72829597D01*
X126094141Y-72836419D01*
X126094141Y-72836420D01*
X126106454Y-72857240D01*
X126124000Y-72921379D01*
X126124000Y-73193558D01*
X126127973Y-73207089D01*
X126135871Y-73208224D01*
X126261784Y-73171643D01*
X126276222Y-73165395D01*
X126285372Y-73159984D01*
X126354188Y-73142526D01*
X126413647Y-73159985D01*
X126421531Y-73164647D01*
X126430403Y-73169894D01*
X126438014Y-73172105D01*
X126438016Y-73172106D01*
X126486619Y-73186226D01*
X126587746Y-73215606D01*
X126594151Y-73216110D01*
X126594156Y-73216111D01*
X126622060Y-73218307D01*
X126622068Y-73218307D01*
X126624516Y-73218500D01*
X127035484Y-73218500D01*
X127037932Y-73218307D01*
X127037940Y-73218307D01*
X127065844Y-73216111D01*
X127065849Y-73216110D01*
X127072254Y-73215606D01*
X127173381Y-73186226D01*
X127221984Y-73172106D01*
X127221986Y-73172105D01*
X127229597Y-73169894D01*
X127237205Y-73165395D01*
X127363808Y-73090522D01*
X127370629Y-73086488D01*
X127486488Y-72970629D01*
X127496584Y-72953558D01*
X127565859Y-72836420D01*
X127565859Y-72836419D01*
X127569894Y-72829597D01*
X127615606Y-72672254D01*
X127616817Y-72656876D01*
X127618307Y-72637940D01*
X127618307Y-72637932D01*
X127618500Y-72635484D01*
X127618500Y-72164516D01*
X127618170Y-72160322D01*
X127616111Y-72134156D01*
X127616110Y-72134151D01*
X127615606Y-72127746D01*
X127569894Y-71970403D01*
X127565122Y-71962333D01*
X127491681Y-71838152D01*
X127474222Y-71769336D01*
X127493998Y-71713445D01*
X127490921Y-71711760D01*
X127495229Y-71703892D01*
X127500615Y-71696705D01*
X127551745Y-71560316D01*
X127558500Y-71498134D01*
X127558500Y-70001866D01*
X127551745Y-69939684D01*
X127500615Y-69803295D01*
X127442047Y-69725148D01*
X127417199Y-69658642D01*
X127432252Y-69589259D01*
X127442047Y-69574018D01*
X127494786Y-69503648D01*
X127503324Y-69488054D01*
X127548478Y-69367606D01*
X127552105Y-69352351D01*
X127557631Y-69301486D01*
X127558000Y-69294672D01*
X127558000Y-68822115D01*
X127553525Y-68806876D01*
X127552135Y-68805671D01*
X127544452Y-68804000D01*
X126322000Y-68804000D01*
X126253879Y-68783998D01*
X126207386Y-68730342D01*
X126196000Y-68678000D01*
X126196000Y-68277885D01*
X126704000Y-68277885D01*
X126708475Y-68293124D01*
X126709865Y-68294329D01*
X126717548Y-68296000D01*
X127539884Y-68296000D01*
X127555123Y-68291525D01*
X127556328Y-68290135D01*
X127557999Y-68282452D01*
X127557999Y-67805331D01*
X127557629Y-67798510D01*
X127552105Y-67747648D01*
X127548479Y-67732396D01*
X127503324Y-67611946D01*
X127494786Y-67596351D01*
X127418285Y-67494276D01*
X127405724Y-67481715D01*
X127303649Y-67405214D01*
X127288054Y-67396676D01*
X127167606Y-67351522D01*
X127152351Y-67347895D01*
X127101486Y-67342369D01*
X127094672Y-67342000D01*
X126722115Y-67342000D01*
X126706876Y-67346475D01*
X126705671Y-67347865D01*
X126704000Y-67355548D01*
X126704000Y-68277885D01*
X126196000Y-68277885D01*
X126196000Y-67360116D01*
X126191525Y-67344877D01*
X126175336Y-67330849D01*
X126142256Y-67312786D01*
X126108231Y-67250474D01*
X126110355Y-67188537D01*
X126113313Y-67178356D01*
X126114768Y-67170391D01*
X126111948Y-67156969D01*
X126100487Y-67154000D01*
X125284500Y-67154000D01*
X125216379Y-67133998D01*
X125169886Y-67080342D01*
X125158500Y-67028000D01*
X125158500Y-66772000D01*
X125178502Y-66703879D01*
X125232158Y-66657386D01*
X125284500Y-66646000D01*
X126098424Y-66646000D01*
X126126946Y-66637625D01*
X126164323Y-66613604D01*
X126199822Y-66608500D01*
X128541864Y-66608500D01*
X128558307Y-66609578D01*
X128590000Y-66613750D01*
X128598189Y-66612672D01*
X128629874Y-66608501D01*
X128629884Y-66608500D01*
X128629885Y-66608500D01*
X128729457Y-66595391D01*
X128740664Y-66593916D01*
X128740666Y-66593915D01*
X128748851Y-66592838D01*
X128896876Y-66531524D01*
X128992072Y-66458477D01*
X128992075Y-66458474D01*
X129023987Y-66433987D01*
X129043458Y-66408613D01*
X129054316Y-66396233D01*
X130015144Y-65435405D01*
X130077456Y-65401379D01*
X130104239Y-65398500D01*
X131448134Y-65398500D01*
X131510316Y-65391745D01*
X131646705Y-65340615D01*
X131763261Y-65253261D01*
X131850615Y-65136705D01*
X131901745Y-65000316D01*
X131908500Y-64938134D01*
X131908500Y-63141866D01*
X131901745Y-63079684D01*
X131850615Y-62943295D01*
X131763261Y-62826739D01*
X131646705Y-62739385D01*
X131604764Y-62723662D01*
X131528203Y-62694960D01*
X131471439Y-62652318D01*
X131446739Y-62585756D01*
X131461947Y-62516408D01*
X131483493Y-62487727D01*
X131521855Y-62449499D01*
X131588096Y-62383489D01*
X131594706Y-62374291D01*
X131715435Y-62206277D01*
X131718453Y-62202077D01*
X131723681Y-62191500D01*
X131815136Y-62006453D01*
X131815137Y-62006451D01*
X131817430Y-62001811D01*
X131882370Y-61788069D01*
X131911529Y-61566590D01*
X131911611Y-61563240D01*
X131913074Y-61503365D01*
X131913074Y-61503361D01*
X131913156Y-61500000D01*
X131894852Y-61277361D01*
X131840431Y-61060702D01*
X131751354Y-60855840D01*
X131650668Y-60700203D01*
X131632822Y-60672617D01*
X131632820Y-60672614D01*
X131630014Y-60668277D01*
X131479670Y-60503051D01*
X131475619Y-60499852D01*
X131475615Y-60499848D01*
X131308414Y-60367800D01*
X131308410Y-60367798D01*
X131304359Y-60364598D01*
X131268028Y-60344542D01*
X131252136Y-60335769D01*
X131108789Y-60256638D01*
X131103920Y-60254914D01*
X131103916Y-60254912D01*
X130903087Y-60183795D01*
X130903083Y-60183794D01*
X130898212Y-60182069D01*
X130893119Y-60181162D01*
X130893116Y-60181161D01*
X130683373Y-60143800D01*
X130683367Y-60143799D01*
X130678284Y-60142894D01*
X130604452Y-60141992D01*
X130460081Y-60140228D01*
X130460079Y-60140228D01*
X130454911Y-60140165D01*
X130234091Y-60173955D01*
X130021756Y-60243357D01*
X129823607Y-60346507D01*
X129819474Y-60349610D01*
X129819471Y-60349612D01*
X129676233Y-60457158D01*
X129644965Y-60480635D01*
X129641393Y-60484373D01*
X129523350Y-60607898D01*
X129490629Y-60642138D01*
X129383201Y-60799621D01*
X129328293Y-60844621D01*
X129257768Y-60852792D01*
X129194021Y-60821538D01*
X129173324Y-60797054D01*
X129092822Y-60672617D01*
X129092820Y-60672614D01*
X129090014Y-60668277D01*
X128939670Y-60503051D01*
X128935619Y-60499852D01*
X128935615Y-60499848D01*
X128768414Y-60367800D01*
X128768410Y-60367798D01*
X128764359Y-60364598D01*
X128728028Y-60344542D01*
X128712136Y-60335769D01*
X128568789Y-60256638D01*
X128563920Y-60254914D01*
X128563916Y-60254912D01*
X128363087Y-60183795D01*
X128363083Y-60183794D01*
X128358212Y-60182069D01*
X128353119Y-60181162D01*
X128353116Y-60181161D01*
X128143373Y-60143800D01*
X128143367Y-60143799D01*
X128138284Y-60142894D01*
X128064452Y-60141992D01*
X127920081Y-60140228D01*
X127920079Y-60140228D01*
X127914911Y-60140165D01*
X127694091Y-60173955D01*
X127481756Y-60243357D01*
X127283607Y-60346507D01*
X127279474Y-60349610D01*
X127279471Y-60349612D01*
X127136233Y-60457158D01*
X127104965Y-60480635D01*
X127101393Y-60484373D01*
X126983350Y-60607898D01*
X126950629Y-60642138D01*
X126843201Y-60799621D01*
X126788293Y-60844621D01*
X126717768Y-60852792D01*
X126654021Y-60821538D01*
X126633324Y-60797054D01*
X126552822Y-60672617D01*
X126552820Y-60672614D01*
X126550014Y-60668277D01*
X126399670Y-60503051D01*
X126395619Y-60499852D01*
X126395615Y-60499848D01*
X126228414Y-60367800D01*
X126228410Y-60367798D01*
X126224359Y-60364598D01*
X126188028Y-60344542D01*
X126172136Y-60335769D01*
X126028789Y-60256638D01*
X126023920Y-60254914D01*
X126023916Y-60254912D01*
X125823087Y-60183795D01*
X125823083Y-60183794D01*
X125818212Y-60182069D01*
X125813119Y-60181162D01*
X125813116Y-60181161D01*
X125603373Y-60143800D01*
X125603367Y-60143799D01*
X125598284Y-60142894D01*
X125524452Y-60141992D01*
X125380081Y-60140228D01*
X125380079Y-60140228D01*
X125374911Y-60140165D01*
X125154091Y-60173955D01*
X124941756Y-60243357D01*
X124743607Y-60346507D01*
X124739474Y-60349610D01*
X124739471Y-60349612D01*
X124596233Y-60457158D01*
X124564965Y-60480635D01*
X124561393Y-60484373D01*
X124443350Y-60607898D01*
X124410629Y-60642138D01*
X124407720Y-60646403D01*
X124407714Y-60646411D01*
X124395404Y-60664457D01*
X124303204Y-60799618D01*
X124302898Y-60800066D01*
X124247987Y-60845069D01*
X124177462Y-60853240D01*
X124113715Y-60821986D01*
X124093018Y-60797502D01*
X124012426Y-60672926D01*
X124006136Y-60664757D01*
X123862806Y-60507240D01*
X123855273Y-60500215D01*
X123688139Y-60368222D01*
X123679552Y-60362517D01*
X123493117Y-60259599D01*
X123483705Y-60255369D01*
X123282959Y-60184280D01*
X123272988Y-60181646D01*
X123201837Y-60168972D01*
X123188540Y-60170432D01*
X123184000Y-60184989D01*
X123184000Y-61628000D01*
X123163998Y-61696121D01*
X123110342Y-61742614D01*
X123058000Y-61754000D01*
X119073225Y-61754000D01*
X119059694Y-61757973D01*
X119058257Y-61767966D01*
X119088565Y-61902446D01*
X119091646Y-61912280D01*
X119134613Y-62018097D01*
X119141709Y-62088738D01*
X119109486Y-62152001D01*
X119048177Y-62187801D01*
X119017870Y-62191500D01*
X116228136Y-62191500D01*
X116211693Y-62190422D01*
X116180000Y-62186250D01*
X116171811Y-62187328D01*
X116140126Y-62191499D01*
X116140117Y-62191500D01*
X116140115Y-62191500D01*
X116140109Y-62191501D01*
X116140107Y-62191501D01*
X116059775Y-62202077D01*
X116029337Y-62206084D01*
X116029336Y-62206084D01*
X116021149Y-62207162D01*
X115873124Y-62268476D01*
X115866573Y-62273503D01*
X115866571Y-62273504D01*
X115802323Y-62322804D01*
X115777928Y-62341523D01*
X115777925Y-62341526D01*
X115746013Y-62366013D01*
X115745836Y-62366244D01*
X115686763Y-62398501D01*
X115615948Y-62393436D01*
X115583550Y-62372614D01*
X115582186Y-62374372D01*
X115563499Y-62359876D01*
X115436220Y-62284604D01*
X115421784Y-62278357D01*
X115278359Y-62236688D01*
X115270391Y-62235232D01*
X115256969Y-62238052D01*
X115254000Y-62249513D01*
X115254000Y-62813261D01*
X115233998Y-62881382D01*
X115217095Y-62902356D01*
X114964856Y-63154595D01*
X114902544Y-63188621D01*
X114875761Y-63191500D01*
X114764516Y-63191500D01*
X114762068Y-63191693D01*
X114762060Y-63191693D01*
X114734156Y-63193889D01*
X114734151Y-63193890D01*
X114727746Y-63194394D01*
X114628995Y-63223084D01*
X114578016Y-63237894D01*
X114578014Y-63237895D01*
X114570403Y-63240106D01*
X114563581Y-63244141D01*
X114556303Y-63247290D01*
X114555722Y-63245947D01*
X114495315Y-63261269D01*
X114444149Y-63246245D01*
X114443697Y-63247290D01*
X114436419Y-63244141D01*
X114429597Y-63240106D01*
X114421986Y-63237895D01*
X114421984Y-63237894D01*
X114371005Y-63223084D01*
X114272254Y-63194394D01*
X114265849Y-63193890D01*
X114265844Y-63193889D01*
X114237940Y-63191693D01*
X114237932Y-63191693D01*
X114235484Y-63191500D01*
X113764516Y-63191500D01*
X113762068Y-63191693D01*
X113762060Y-63191693D01*
X113734156Y-63193889D01*
X113734151Y-63193890D01*
X113727746Y-63194394D01*
X113628995Y-63223084D01*
X113578016Y-63237894D01*
X113578014Y-63237895D01*
X113570403Y-63240106D01*
X113563581Y-63244141D01*
X113563580Y-63244141D01*
X113542760Y-63256454D01*
X113478621Y-63274000D01*
X113206442Y-63274000D01*
X113191203Y-63278475D01*
X113184710Y-63285968D01*
X113165509Y-63328013D01*
X113105783Y-63366396D01*
X113070285Y-63371500D01*
X112322937Y-63371500D01*
X112254816Y-63351498D01*
X112208323Y-63297842D01*
X112203414Y-63285377D01*
X112171625Y-63190094D01*
X112171623Y-63190089D01*
X112169308Y-63183151D01*
X112165458Y-63176930D01*
X112165455Y-63176923D01*
X112088978Y-63053338D01*
X112070140Y-62984886D01*
X112071000Y-62977484D01*
X112071000Y-62964884D01*
X112579000Y-62964884D01*
X112583475Y-62980123D01*
X112584865Y-62981328D01*
X112589294Y-62982291D01*
X112648315Y-62976868D01*
X112661351Y-62974257D01*
X112811243Y-62927285D01*
X112824988Y-62921079D01*
X112958574Y-62840176D01*
X112970443Y-62830869D01*
X113025218Y-62776094D01*
X113087530Y-62742068D01*
X113158345Y-62747133D01*
X113166326Y-62750426D01*
X113200689Y-62766000D01*
X113727885Y-62766000D01*
X113743124Y-62761525D01*
X113744329Y-62760135D01*
X113746000Y-62752452D01*
X113746000Y-62747885D01*
X114254000Y-62747885D01*
X114258475Y-62763124D01*
X114259865Y-62764329D01*
X114267548Y-62766000D01*
X114727885Y-62766000D01*
X114743124Y-62761525D01*
X114744329Y-62760135D01*
X114746000Y-62752452D01*
X114746000Y-62251576D01*
X114741656Y-62236781D01*
X114731225Y-62234937D01*
X114721641Y-62236688D01*
X114578216Y-62278357D01*
X114556503Y-62287753D01*
X114555947Y-62286469D01*
X114495326Y-62301851D01*
X114443927Y-62286759D01*
X114443497Y-62287753D01*
X114421784Y-62278357D01*
X114278359Y-62236688D01*
X114270391Y-62235232D01*
X114256969Y-62238052D01*
X114254000Y-62249513D01*
X114254000Y-62747885D01*
X113746000Y-62747885D01*
X113746000Y-62251576D01*
X113741656Y-62236781D01*
X113731225Y-62234937D01*
X113721641Y-62236688D01*
X113578216Y-62278357D01*
X113563780Y-62284604D01*
X113436500Y-62359876D01*
X113436229Y-62360087D01*
X113435977Y-62360186D01*
X113429680Y-62363910D01*
X113429079Y-62362894D01*
X113370144Y-62386036D01*
X113300521Y-62372138D01*
X113249465Y-62322804D01*
X113240475Y-62288802D01*
X113238104Y-62289498D01*
X113228525Y-62256876D01*
X113227135Y-62255671D01*
X113219452Y-62254000D01*
X112597115Y-62254000D01*
X112581876Y-62258475D01*
X112580671Y-62259865D01*
X112579000Y-62267548D01*
X112579000Y-62964884D01*
X112071000Y-62964884D01*
X112071000Y-61727885D01*
X112579000Y-61727885D01*
X112583475Y-61743124D01*
X112584865Y-61744329D01*
X112592548Y-61746000D01*
X113214884Y-61746000D01*
X113230123Y-61741525D01*
X113231328Y-61740135D01*
X113232999Y-61732452D01*
X113232999Y-61671295D01*
X113232736Y-61665546D01*
X113226868Y-61601685D01*
X113224257Y-61588649D01*
X113177285Y-61438757D01*
X113171079Y-61425012D01*
X113090176Y-61291426D01*
X113080869Y-61279557D01*
X113035495Y-61234183D01*
X119054389Y-61234183D01*
X119055912Y-61242607D01*
X119068292Y-61246000D01*
X120117885Y-61246000D01*
X120133124Y-61241525D01*
X120134329Y-61240135D01*
X120136000Y-61232452D01*
X120136000Y-61227885D01*
X120644000Y-61227885D01*
X120648475Y-61243124D01*
X120649865Y-61244329D01*
X120657548Y-61246000D01*
X122657885Y-61246000D01*
X122673124Y-61241525D01*
X122674329Y-61240135D01*
X122676000Y-61232452D01*
X122676000Y-60183102D01*
X122672082Y-60169758D01*
X122657806Y-60167771D01*
X122619324Y-60173660D01*
X122609288Y-60176051D01*
X122406868Y-60242212D01*
X122397359Y-60246209D01*
X122208463Y-60344542D01*
X122199738Y-60350036D01*
X122029433Y-60477905D01*
X122021726Y-60484748D01*
X121874590Y-60638717D01*
X121868104Y-60646727D01*
X121763193Y-60800521D01*
X121708282Y-60845524D01*
X121637757Y-60853695D01*
X121574010Y-60822441D01*
X121553313Y-60797957D01*
X121472427Y-60672926D01*
X121466136Y-60664757D01*
X121322806Y-60507240D01*
X121315273Y-60500215D01*
X121148139Y-60368222D01*
X121139552Y-60362517D01*
X120953117Y-60259599D01*
X120943705Y-60255369D01*
X120742959Y-60184280D01*
X120732988Y-60181646D01*
X120661837Y-60168972D01*
X120648540Y-60170432D01*
X120644000Y-60184989D01*
X120644000Y-61227885D01*
X120136000Y-61227885D01*
X120136000Y-60183102D01*
X120132082Y-60169758D01*
X120117806Y-60167771D01*
X120079324Y-60173660D01*
X120069288Y-60176051D01*
X119866868Y-60242212D01*
X119857359Y-60246209D01*
X119668463Y-60344542D01*
X119659738Y-60350036D01*
X119489433Y-60477905D01*
X119481726Y-60484748D01*
X119334590Y-60638717D01*
X119328104Y-60646727D01*
X119208098Y-60822649D01*
X119203000Y-60831623D01*
X119113338Y-61024783D01*
X119109775Y-61034470D01*
X119054389Y-61234183D01*
X113035495Y-61234183D01*
X112970443Y-61169131D01*
X112958574Y-61159824D01*
X112824988Y-61078921D01*
X112811243Y-61072715D01*
X112661356Y-61025744D01*
X112648306Y-61023131D01*
X112593414Y-61018087D01*
X112581876Y-61021475D01*
X112580671Y-61022865D01*
X112579000Y-61030548D01*
X112579000Y-61727885D01*
X112071000Y-61727885D01*
X112071000Y-61035116D01*
X112066525Y-61019877D01*
X112065135Y-61018672D01*
X112060706Y-61017709D01*
X112001685Y-61023132D01*
X111988649Y-61025743D01*
X111838757Y-61072715D01*
X111825012Y-61078921D01*
X111691426Y-61159824D01*
X111679557Y-61169131D01*
X111589449Y-61259239D01*
X111527137Y-61293265D01*
X111456322Y-61288200D01*
X111411259Y-61259239D01*
X111315381Y-61163361D01*
X111168699Y-61074528D01*
X111161452Y-61072257D01*
X111161450Y-61072256D01*
X111067589Y-61042842D01*
X111005062Y-61023247D01*
X110931635Y-61016500D01*
X110928737Y-61016500D01*
X110674335Y-61016501D01*
X110418366Y-61016501D01*
X110415508Y-61016764D01*
X110415499Y-61016764D01*
X110381619Y-61019877D01*
X110344938Y-61023247D01*
X110338560Y-61025246D01*
X110338559Y-61025246D01*
X110188550Y-61072256D01*
X110188548Y-61072257D01*
X110181301Y-61074528D01*
X110145024Y-61096498D01*
X110142088Y-61098276D01*
X110076817Y-61116500D01*
X110005944Y-61116500D01*
X109937823Y-61096498D01*
X109891330Y-61042842D01*
X109886421Y-61030377D01*
X109869422Y-60979427D01*
X109869421Y-60979425D01*
X109867102Y-60972474D01*
X109774797Y-60823311D01*
X109650653Y-60699383D01*
X109628900Y-60685974D01*
X109611014Y-60674949D01*
X109501329Y-60607339D01*
X109403427Y-60574866D01*
X109341366Y-60554281D01*
X109341364Y-60554281D01*
X109334835Y-60552115D01*
X109231231Y-60541500D01*
X108939766Y-60541500D01*
X108643770Y-60541501D01*
X108538871Y-60552384D01*
X108532340Y-60554563D01*
X108532335Y-60554564D01*
X108384189Y-60603990D01*
X108372474Y-60607898D01*
X108223311Y-60700203D01*
X108099383Y-60824347D01*
X108097581Y-60827270D01*
X108040971Y-60867408D01*
X107970048Y-60870642D01*
X107908636Y-60835018D01*
X107903084Y-60828622D01*
X107899797Y-60823311D01*
X107775653Y-60699383D01*
X107753900Y-60685974D01*
X107736014Y-60674949D01*
X107626329Y-60607339D01*
X107528427Y-60574866D01*
X107466366Y-60554281D01*
X107466364Y-60554281D01*
X107459835Y-60552115D01*
X107356231Y-60541500D01*
X107304515Y-60541500D01*
X106802096Y-60541501D01*
X106733975Y-60521499D01*
X106713001Y-60504596D01*
X105566152Y-59357747D01*
X105558612Y-59349461D01*
X105554500Y-59342982D01*
X105504848Y-59296356D01*
X105502007Y-59293602D01*
X105482270Y-59273865D01*
X105479073Y-59271385D01*
X105470051Y-59263680D01*
X105454770Y-59249330D01*
X105437821Y-59233414D01*
X105430875Y-59229595D01*
X105430872Y-59229593D01*
X105420066Y-59223652D01*
X105403547Y-59212801D01*
X105403083Y-59212441D01*
X105387541Y-59200386D01*
X105380272Y-59197241D01*
X105380268Y-59197238D01*
X105346963Y-59182826D01*
X105336313Y-59177609D01*
X105297560Y-59156305D01*
X105277937Y-59151267D01*
X105259234Y-59144863D01*
X105247920Y-59139967D01*
X105247919Y-59139967D01*
X105240645Y-59136819D01*
X105232822Y-59135580D01*
X105232812Y-59135577D01*
X105196976Y-59129901D01*
X105185356Y-59127495D01*
X105150211Y-59118472D01*
X105150210Y-59118472D01*
X105142530Y-59116500D01*
X105122276Y-59116500D01*
X105102565Y-59114949D01*
X105090386Y-59113020D01*
X105082557Y-59111780D01*
X105053286Y-59114547D01*
X105038539Y-59115941D01*
X105026681Y-59116500D01*
X90888767Y-59116500D01*
X90877584Y-59115973D01*
X90870091Y-59114298D01*
X90862165Y-59114547D01*
X90862164Y-59114547D01*
X90802014Y-59116438D01*
X90798055Y-59116500D01*
X90770144Y-59116500D01*
X90766210Y-59116997D01*
X90766209Y-59116997D01*
X90766144Y-59117005D01*
X90754307Y-59117938D01*
X90722049Y-59118952D01*
X90718030Y-59119078D01*
X90710111Y-59119327D01*
X90690657Y-59124979D01*
X90671300Y-59128987D01*
X90659070Y-59130532D01*
X90659069Y-59130532D01*
X90651203Y-59131526D01*
X90643832Y-59134445D01*
X90643830Y-59134445D01*
X90610088Y-59147804D01*
X90598858Y-59151649D01*
X90564017Y-59161771D01*
X90564016Y-59161771D01*
X90556407Y-59163982D01*
X90549588Y-59168015D01*
X90549583Y-59168017D01*
X90538972Y-59174293D01*
X90521224Y-59182988D01*
X90502383Y-59190448D01*
X90495967Y-59195110D01*
X90495966Y-59195110D01*
X90466613Y-59216436D01*
X90456693Y-59222952D01*
X90425465Y-59241420D01*
X90425462Y-59241422D01*
X90418638Y-59245458D01*
X90404317Y-59259779D01*
X90389284Y-59272619D01*
X90372893Y-59284528D01*
X90364217Y-59295016D01*
X90344702Y-59318605D01*
X90336712Y-59327384D01*
X88553751Y-61110344D01*
X88491439Y-61144370D01*
X88425716Y-61141081D01*
X88422668Y-61140090D01*
X88418092Y-61138195D01*
X88413285Y-61137041D01*
X88413279Y-61137039D01*
X88184370Y-61082083D01*
X88184364Y-61082082D01*
X88179557Y-61080928D01*
X87935000Y-61061681D01*
X87690443Y-61080928D01*
X87685636Y-61082082D01*
X87685630Y-61082083D01*
X87567916Y-61110344D01*
X87451908Y-61138195D01*
X87447337Y-61140088D01*
X87447335Y-61140089D01*
X87419787Y-61151500D01*
X87225268Y-61232073D01*
X87128412Y-61291426D01*
X87020330Y-61357658D01*
X87020327Y-61357660D01*
X87016104Y-61360248D01*
X87012340Y-61363463D01*
X87012337Y-61363465D01*
X86881407Y-61475291D01*
X86829567Y-61519567D01*
X86826359Y-61523323D01*
X86679937Y-61694760D01*
X86670248Y-61706104D01*
X86667660Y-61710327D01*
X86667658Y-61710330D01*
X86654102Y-61732452D01*
X86542073Y-61915268D01*
X86504388Y-62006248D01*
X86456949Y-62120775D01*
X86448195Y-62141908D01*
X86433750Y-62202077D01*
X86392386Y-62374372D01*
X86390928Y-62380443D01*
X86371681Y-62625000D01*
X86390928Y-62869557D01*
X86392082Y-62874364D01*
X86392083Y-62874370D01*
X86428096Y-63024373D01*
X86448195Y-63108092D01*
X86450088Y-63112663D01*
X86450089Y-63112665D01*
X86455704Y-63126220D01*
X86542073Y-63334732D01*
X86616016Y-63455397D01*
X86666941Y-63538499D01*
X86670248Y-63543896D01*
X86673463Y-63547660D01*
X86673465Y-63547663D01*
X86744966Y-63631379D01*
X86829567Y-63730433D01*
X86833323Y-63733641D01*
X86910069Y-63799189D01*
X86948878Y-63858640D01*
X86949384Y-63929635D01*
X86910069Y-63990811D01*
X86833323Y-64056359D01*
X86829567Y-64059567D01*
X86826359Y-64063323D01*
X86696093Y-64215844D01*
X86670248Y-64246104D01*
X86667660Y-64250327D01*
X86667658Y-64250330D01*
X86641725Y-64292650D01*
X86542073Y-64455268D01*
X86489429Y-64582360D01*
X86455069Y-64665314D01*
X86448195Y-64681908D01*
X86432474Y-64747390D01*
X86406935Y-64853770D01*
X86390928Y-64920443D01*
X86371681Y-65165000D01*
X86390928Y-65409557D01*
X86392082Y-65414364D01*
X86392083Y-65414370D01*
X86407318Y-65477828D01*
X86448195Y-65648092D01*
X86450088Y-65652663D01*
X86450091Y-65652671D01*
X86457908Y-65671542D01*
X86465498Y-65742131D01*
X86430595Y-65808856D01*
X85353766Y-66885685D01*
X85341375Y-66896552D01*
X85316013Y-66916013D01*
X85291526Y-66947925D01*
X85291523Y-66947928D01*
X85291517Y-66947936D01*
X85227606Y-67031226D01*
X85218476Y-67043124D01*
X85184562Y-67125000D01*
X85162843Y-67177435D01*
X85157162Y-67191149D01*
X85156943Y-67192815D01*
X85156083Y-67199349D01*
X85156082Y-67199352D01*
X85142290Y-67304112D01*
X85141500Y-67310115D01*
X85141500Y-67310120D01*
X85136250Y-67350000D01*
X85137328Y-67358188D01*
X85140422Y-67381690D01*
X85141500Y-67398136D01*
X85141500Y-76201864D01*
X85140422Y-76218307D01*
X85136250Y-76250000D01*
X81508500Y-76250000D01*
X81508500Y-60053250D01*
X81510246Y-60032345D01*
X81512770Y-60017344D01*
X81512770Y-60017341D01*
X81513576Y-60012552D01*
X81513729Y-60000000D01*
X81512334Y-59990257D01*
X81511451Y-59962517D01*
X81523623Y-59807851D01*
X81526716Y-59788322D01*
X81569396Y-59610546D01*
X81575506Y-59591742D01*
X81645470Y-59422834D01*
X81654446Y-59405217D01*
X81749974Y-59249330D01*
X81761596Y-59233335D01*
X81880332Y-59094313D01*
X81894313Y-59080332D01*
X82033335Y-58961596D01*
X82049330Y-58949974D01*
X82205217Y-58854446D01*
X82222834Y-58845470D01*
X82307288Y-58810488D01*
X82391746Y-58775505D01*
X82410541Y-58769398D01*
X82588323Y-58726716D01*
X82607850Y-58723623D01*
X82758987Y-58711728D01*
X82775875Y-58712370D01*
X82775877Y-58712200D01*
X82784853Y-58712310D01*
X82793724Y-58713691D01*
X82802626Y-58712527D01*
X82802628Y-58712527D01*
X82820864Y-58710142D01*
X82825286Y-58709564D01*
X82841621Y-58708500D01*
X130950633Y-58708500D01*
X130970018Y-58710000D01*
G37*
%TD.AperFunction*%
%TA.AperFunction,Conductor*%
G36*
X119959776Y-73378502D02*
G01*
X120007292Y-73434459D01*
X120007520Y-73434986D01*
X120009731Y-73442596D01*
X120092494Y-73582541D01*
X120207459Y-73697506D01*
X120214280Y-73701540D01*
X120328500Y-73769089D01*
X120347404Y-73780269D01*
X120355015Y-73782480D01*
X120355017Y-73782481D01*
X120445750Y-73808841D01*
X120503534Y-73825629D01*
X120509941Y-73826133D01*
X120509945Y-73826134D01*
X120537556Y-73828307D01*
X120537562Y-73828307D01*
X120540011Y-73828500D01*
X120739878Y-73828500D01*
X120939988Y-73828499D01*
X120976466Y-73825629D01*
X120990348Y-73821596D01*
X121061342Y-73821798D01*
X121120959Y-73860352D01*
X121150268Y-73925016D01*
X121151500Y-73942593D01*
X121151500Y-74935761D01*
X121131498Y-75003882D01*
X121114595Y-75024856D01*
X116934376Y-79205075D01*
X116872064Y-79239101D01*
X116845281Y-79241980D01*
X108934000Y-79241980D01*
X108865879Y-79221978D01*
X108819386Y-79168322D01*
X108808000Y-79115980D01*
X108808000Y-78772115D01*
X108803525Y-78756876D01*
X108802135Y-78755671D01*
X108794452Y-78754000D01*
X106660116Y-78754000D01*
X106644877Y-78758475D01*
X106643672Y-78759865D01*
X106642001Y-78767548D01*
X106642001Y-79115980D01*
X106621999Y-79184101D01*
X106568343Y-79230594D01*
X106516001Y-79241980D01*
X105984500Y-79241980D01*
X105916379Y-79221978D01*
X105869886Y-79168322D01*
X105858500Y-79115980D01*
X105858500Y-77799600D01*
X105858163Y-77796350D01*
X105848238Y-77700692D01*
X105848237Y-77700688D01*
X105847526Y-77693834D01*
X105828305Y-77636220D01*
X105793868Y-77533002D01*
X105791550Y-77526054D01*
X105787694Y-77519823D01*
X105784593Y-77513203D01*
X105786026Y-77512532D01*
X105769462Y-77452361D01*
X105790618Y-77384590D01*
X105845055Y-77339014D01*
X105895444Y-77328500D01*
X106189889Y-77328499D01*
X106199988Y-77328499D01*
X106236466Y-77325629D01*
X106353691Y-77291572D01*
X106384983Y-77282481D01*
X106384985Y-77282480D01*
X106392596Y-77280269D01*
X106399421Y-77276233D01*
X106399425Y-77276231D01*
X106445861Y-77248769D01*
X106514677Y-77231309D01*
X106574139Y-77248769D01*
X106620575Y-77276231D01*
X106620579Y-77276233D01*
X106627404Y-77280269D01*
X106635015Y-77282480D01*
X106635017Y-77282481D01*
X106666309Y-77291572D01*
X106726145Y-77329785D01*
X106755822Y-77394281D01*
X106745919Y-77464584D01*
X106738416Y-77478684D01*
X106712186Y-77521238D01*
X106706037Y-77534424D01*
X106654862Y-77688710D01*
X106651995Y-77702086D01*
X106642328Y-77796438D01*
X106642000Y-77802855D01*
X106642000Y-78227885D01*
X106646475Y-78243124D01*
X106647865Y-78244329D01*
X106655548Y-78246000D01*
X108789884Y-78246000D01*
X108805123Y-78241525D01*
X108806328Y-78240135D01*
X108807999Y-78232452D01*
X108807999Y-77802905D01*
X108807662Y-77796386D01*
X108797743Y-77700794D01*
X108794851Y-77687400D01*
X108743412Y-77533216D01*
X108737239Y-77520038D01*
X108651937Y-77382193D01*
X108642901Y-77370792D01*
X108528171Y-77256261D01*
X108516760Y-77247249D01*
X108514524Y-77245871D01*
X111191776Y-77245871D01*
X111228357Y-77371784D01*
X111234604Y-77386220D01*
X111309876Y-77513499D01*
X111319516Y-77525926D01*
X111424074Y-77630484D01*
X111436501Y-77640124D01*
X111563780Y-77715396D01*
X111578216Y-77721643D01*
X111721641Y-77763312D01*
X111729609Y-77764768D01*
X111743031Y-77761948D01*
X111746000Y-77750487D01*
X111746000Y-77748424D01*
X112254000Y-77748424D01*
X112258344Y-77763219D01*
X112268775Y-77765063D01*
X112278359Y-77763312D01*
X112421784Y-77721643D01*
X112443497Y-77712247D01*
X112444053Y-77713531D01*
X112504674Y-77698149D01*
X112556073Y-77713241D01*
X112556503Y-77712247D01*
X112578216Y-77721643D01*
X112721641Y-77763312D01*
X112729609Y-77764768D01*
X112743031Y-77761948D01*
X112746000Y-77750487D01*
X112746000Y-77748424D01*
X113254000Y-77748424D01*
X113258344Y-77763219D01*
X113268775Y-77765063D01*
X113278359Y-77763312D01*
X113421784Y-77721643D01*
X113436220Y-77715396D01*
X113563499Y-77640124D01*
X113575926Y-77630484D01*
X113680484Y-77525926D01*
X113690124Y-77513499D01*
X113700549Y-77495871D01*
X114691776Y-77495871D01*
X114728357Y-77621784D01*
X114734604Y-77636220D01*
X114809876Y-77763499D01*
X114819516Y-77775926D01*
X114924074Y-77880484D01*
X114936501Y-77890124D01*
X115063780Y-77965396D01*
X115078216Y-77971643D01*
X115221641Y-78013312D01*
X115229609Y-78014768D01*
X115243031Y-78011948D01*
X115246000Y-78000487D01*
X115246000Y-77998424D01*
X115754000Y-77998424D01*
X115758344Y-78013219D01*
X115768775Y-78015063D01*
X115778359Y-78013312D01*
X115921784Y-77971643D01*
X115943497Y-77962247D01*
X115944053Y-77963531D01*
X116004674Y-77948149D01*
X116056073Y-77963241D01*
X116056503Y-77962247D01*
X116078216Y-77971643D01*
X116221641Y-78013312D01*
X116229609Y-78014768D01*
X116243031Y-78011948D01*
X116246000Y-78000487D01*
X116246000Y-77998424D01*
X116754000Y-77998424D01*
X116758344Y-78013219D01*
X116768775Y-78015063D01*
X116778359Y-78013312D01*
X116921784Y-77971643D01*
X116936220Y-77965396D01*
X117063499Y-77890124D01*
X117075926Y-77880484D01*
X117180484Y-77775926D01*
X117190124Y-77763499D01*
X117265396Y-77636220D01*
X117271643Y-77621784D01*
X117306619Y-77501395D01*
X117306579Y-77487295D01*
X117299309Y-77484000D01*
X116772115Y-77484000D01*
X116756876Y-77488475D01*
X116755671Y-77489865D01*
X116754000Y-77497548D01*
X116754000Y-77998424D01*
X116246000Y-77998424D01*
X116246000Y-77502115D01*
X116241525Y-77486876D01*
X116240135Y-77485671D01*
X116232452Y-77484000D01*
X115772115Y-77484000D01*
X115756876Y-77488475D01*
X115755671Y-77489865D01*
X115754000Y-77497548D01*
X115754000Y-77998424D01*
X115246000Y-77998424D01*
X115246000Y-77502115D01*
X115241525Y-77486876D01*
X115240135Y-77485671D01*
X115232452Y-77484000D01*
X114706442Y-77484000D01*
X114692911Y-77487973D01*
X114691776Y-77495871D01*
X113700549Y-77495871D01*
X113765396Y-77386220D01*
X113771643Y-77371784D01*
X113806619Y-77251395D01*
X113806579Y-77237295D01*
X113799309Y-77234000D01*
X113272115Y-77234000D01*
X113256876Y-77238475D01*
X113255671Y-77239865D01*
X113254000Y-77247548D01*
X113254000Y-77748424D01*
X112746000Y-77748424D01*
X112746000Y-77252115D01*
X112741525Y-77236876D01*
X112740135Y-77235671D01*
X112732452Y-77234000D01*
X112272115Y-77234000D01*
X112256876Y-77238475D01*
X112255671Y-77239865D01*
X112254000Y-77247548D01*
X112254000Y-77748424D01*
X111746000Y-77748424D01*
X111746000Y-77252115D01*
X111741525Y-77236876D01*
X111740135Y-77235671D01*
X111732452Y-77234000D01*
X111206442Y-77234000D01*
X111192911Y-77237973D01*
X111191776Y-77245871D01*
X108514524Y-77245871D01*
X108378757Y-77162184D01*
X108365576Y-77156037D01*
X108211290Y-77104862D01*
X108197914Y-77101995D01*
X108103562Y-77092328D01*
X108097146Y-77092000D01*
X107874680Y-77092001D01*
X107806559Y-77071999D01*
X107760066Y-77018344D01*
X107749961Y-76948070D01*
X107753682Y-76930848D01*
X107753828Y-76930347D01*
X107795629Y-76786466D01*
X107796135Y-76780047D01*
X107798307Y-76752444D01*
X107798307Y-76752438D01*
X107798500Y-76749989D01*
X107798500Y-76634239D01*
X107818502Y-76566118D01*
X107835405Y-76545144D01*
X108396234Y-75984315D01*
X108408625Y-75973448D01*
X108427437Y-75959013D01*
X108433987Y-75953987D01*
X108458474Y-75922075D01*
X108458477Y-75922072D01*
X108531523Y-75826876D01*
X108531524Y-75826875D01*
X108550433Y-75781226D01*
X108589678Y-75686479D01*
X108592838Y-75678850D01*
X108594253Y-75668106D01*
X108608500Y-75559885D01*
X108608500Y-75559878D01*
X108612672Y-75528188D01*
X108613750Y-75520000D01*
X108609578Y-75488307D01*
X108608500Y-75471864D01*
X108608500Y-74663166D01*
X108628502Y-74595045D01*
X108682158Y-74548552D01*
X108710941Y-74543465D01*
X108710210Y-74539985D01*
X108743030Y-74533090D01*
X108746000Y-74521626D01*
X108746000Y-74519566D01*
X109254000Y-74519566D01*
X109258344Y-74534361D01*
X109270003Y-74536421D01*
X109279977Y-74535637D01*
X109292564Y-74533338D01*
X109434783Y-74492019D01*
X109449222Y-74485770D01*
X109575405Y-74411146D01*
X109587841Y-74401499D01*
X109691499Y-74297841D01*
X109701146Y-74285405D01*
X109775770Y-74159222D01*
X109782019Y-74144783D01*
X109814961Y-74031395D01*
X109814921Y-74017295D01*
X109807651Y-74014000D01*
X109272115Y-74014000D01*
X109256876Y-74018475D01*
X109255671Y-74019865D01*
X109254000Y-74027548D01*
X109254000Y-74519566D01*
X108746000Y-74519566D01*
X108746000Y-73644500D01*
X108766002Y-73576379D01*
X108819658Y-73529886D01*
X108872000Y-73518500D01*
X109240058Y-73518499D01*
X109249988Y-73518499D01*
X109286466Y-73515629D01*
X109292648Y-73513833D01*
X109292653Y-73513832D01*
X109302390Y-73511003D01*
X109337542Y-73506000D01*
X109801900Y-73506000D01*
X109817139Y-73501525D01*
X109823632Y-73494032D01*
X109842833Y-73451987D01*
X109902559Y-73413604D01*
X109938057Y-73408500D01*
X111215500Y-73408500D01*
X111283621Y-73428502D01*
X111330114Y-73482158D01*
X111341500Y-73534500D01*
X111341500Y-74863244D01*
X111356519Y-74977324D01*
X111359678Y-74984951D01*
X111359679Y-74984954D01*
X111373396Y-75018069D01*
X111415314Y-75119268D01*
X111420340Y-75125818D01*
X111420342Y-75125821D01*
X111462347Y-75180562D01*
X111487948Y-75246782D01*
X111473684Y-75316331D01*
X111439616Y-75356822D01*
X111436193Y-75359478D01*
X111429371Y-75363512D01*
X111313512Y-75479371D01*
X111309478Y-75486192D01*
X111242650Y-75599193D01*
X111230106Y-75620403D01*
X111227895Y-75628014D01*
X111227894Y-75628016D01*
X111215051Y-75672224D01*
X111184394Y-75777746D01*
X111183890Y-75784151D01*
X111183889Y-75784156D01*
X111182101Y-75806876D01*
X111181500Y-75814516D01*
X111181500Y-76225484D01*
X111181693Y-76227932D01*
X111181693Y-76227940D01*
X111183430Y-76250000D01*
X111184394Y-76262254D01*
X111197152Y-76306168D01*
X111220491Y-76386500D01*
X111230106Y-76419597D01*
X111234143Y-76426423D01*
X111240015Y-76436353D01*
X111257474Y-76505170D01*
X111240016Y-76564628D01*
X111234605Y-76573778D01*
X111228357Y-76588216D01*
X111193381Y-76708605D01*
X111193421Y-76722705D01*
X111200691Y-76726000D01*
X111478621Y-76726000D01*
X111542760Y-76743546D01*
X111560023Y-76753755D01*
X111570403Y-76759894D01*
X111578014Y-76762105D01*
X111578016Y-76762106D01*
X111628995Y-76776916D01*
X111727746Y-76805606D01*
X111734151Y-76806110D01*
X111734156Y-76806111D01*
X111762060Y-76808307D01*
X111762068Y-76808307D01*
X111764516Y-76808500D01*
X112235484Y-76808500D01*
X112237932Y-76808307D01*
X112237940Y-76808307D01*
X112265844Y-76806111D01*
X112265849Y-76806110D01*
X112272254Y-76805606D01*
X112371005Y-76776916D01*
X112421984Y-76762106D01*
X112421986Y-76762105D01*
X112429597Y-76759894D01*
X112436419Y-76755859D01*
X112443697Y-76752710D01*
X112444278Y-76754053D01*
X112504685Y-76738731D01*
X112555851Y-76753755D01*
X112556303Y-76752710D01*
X112563581Y-76755859D01*
X112570403Y-76759894D01*
X112578014Y-76762105D01*
X112578016Y-76762106D01*
X112628995Y-76776916D01*
X112727746Y-76805606D01*
X112734151Y-76806110D01*
X112734156Y-76806111D01*
X112762060Y-76808307D01*
X112762068Y-76808307D01*
X112764516Y-76808500D01*
X113235484Y-76808500D01*
X113237932Y-76808307D01*
X113237940Y-76808307D01*
X113265844Y-76806111D01*
X113265849Y-76806110D01*
X113272254Y-76805606D01*
X113371005Y-76776916D01*
X113421984Y-76762106D01*
X113421986Y-76762105D01*
X113429597Y-76759894D01*
X113439978Y-76753755D01*
X113457240Y-76743546D01*
X113521379Y-76726000D01*
X113793558Y-76726000D01*
X113807089Y-76722027D01*
X113808224Y-76714130D01*
X113789727Y-76650465D01*
X113789929Y-76579469D01*
X113834020Y-76515349D01*
X113882072Y-76478477D01*
X113882075Y-76478474D01*
X113907434Y-76459015D01*
X113913987Y-76453987D01*
X113919017Y-76447432D01*
X113933452Y-76428621D01*
X113944319Y-76416230D01*
X114396234Y-75964315D01*
X114408625Y-75953448D01*
X114427437Y-75939013D01*
X114433987Y-75933987D01*
X114458474Y-75902075D01*
X114458477Y-75902072D01*
X114472918Y-75883253D01*
X114530254Y-75841387D01*
X114601125Y-75837166D01*
X114663028Y-75871931D01*
X114696309Y-75934644D01*
X114693875Y-75995112D01*
X114684394Y-76027746D01*
X114683890Y-76034151D01*
X114683889Y-76034156D01*
X114683130Y-76043803D01*
X114681500Y-76064516D01*
X114681500Y-76475484D01*
X114681693Y-76477932D01*
X114681693Y-76477940D01*
X114681736Y-76478477D01*
X114684394Y-76512254D01*
X114695141Y-76549246D01*
X114725015Y-76652072D01*
X114730106Y-76669597D01*
X114734143Y-76676423D01*
X114740015Y-76686353D01*
X114757474Y-76755170D01*
X114740016Y-76814628D01*
X114734605Y-76823778D01*
X114728357Y-76838216D01*
X114693381Y-76958605D01*
X114693421Y-76972705D01*
X114700691Y-76976000D01*
X114978621Y-76976000D01*
X115042760Y-76993546D01*
X115060023Y-77003755D01*
X115070403Y-77009894D01*
X115078014Y-77012105D01*
X115078016Y-77012106D01*
X115099488Y-77018344D01*
X115227746Y-77055606D01*
X115234151Y-77056110D01*
X115234156Y-77056111D01*
X115262060Y-77058307D01*
X115262068Y-77058307D01*
X115264516Y-77058500D01*
X115735484Y-77058500D01*
X115737932Y-77058307D01*
X115737940Y-77058307D01*
X115765844Y-77056111D01*
X115765849Y-77056110D01*
X115772254Y-77055606D01*
X115900512Y-77018344D01*
X115921984Y-77012106D01*
X115921986Y-77012105D01*
X115929597Y-77009894D01*
X115936419Y-77005859D01*
X115943697Y-77002710D01*
X115944278Y-77004053D01*
X116004685Y-76988731D01*
X116055851Y-77003755D01*
X116056303Y-77002710D01*
X116063581Y-77005859D01*
X116070403Y-77009894D01*
X116078014Y-77012105D01*
X116078016Y-77012106D01*
X116099488Y-77018344D01*
X116227746Y-77055606D01*
X116234151Y-77056110D01*
X116234156Y-77056111D01*
X116262060Y-77058307D01*
X116262068Y-77058307D01*
X116264516Y-77058500D01*
X116735484Y-77058500D01*
X116737932Y-77058307D01*
X116737940Y-77058307D01*
X116765844Y-77056111D01*
X116765849Y-77056110D01*
X116772254Y-77055606D01*
X116900512Y-77018344D01*
X116921984Y-77012106D01*
X116921986Y-77012105D01*
X116929597Y-77009894D01*
X116939978Y-77003755D01*
X116957240Y-76993546D01*
X117021379Y-76976000D01*
X117293558Y-76976000D01*
X117307089Y-76972027D01*
X117308224Y-76964129D01*
X117271643Y-76838216D01*
X117265395Y-76823778D01*
X117259984Y-76814628D01*
X117242526Y-76745812D01*
X117259985Y-76686353D01*
X117265857Y-76676423D01*
X117269894Y-76669597D01*
X117274986Y-76652072D01*
X117304859Y-76549246D01*
X117315606Y-76512254D01*
X117318265Y-76478477D01*
X117318307Y-76477940D01*
X117318307Y-76477932D01*
X117318500Y-76475484D01*
X117318500Y-76064516D01*
X117316870Y-76043803D01*
X117316111Y-76034156D01*
X117316110Y-76034151D01*
X117315606Y-76027746D01*
X117284903Y-75922064D01*
X117272106Y-75878016D01*
X117272105Y-75878014D01*
X117269894Y-75870403D01*
X117186488Y-75729371D01*
X117145405Y-75688288D01*
X117111379Y-75625976D01*
X117108500Y-75599193D01*
X117108500Y-75519119D01*
X117128502Y-75450998D01*
X117182158Y-75404505D01*
X117211034Y-75396213D01*
X117211033Y-75396208D01*
X117211332Y-75396128D01*
X117218060Y-75394196D01*
X117227201Y-75392993D01*
X117227434Y-75394765D01*
X117272507Y-75394766D01*
X117272676Y-75393481D01*
X117382669Y-75407962D01*
X117382670Y-75407962D01*
X117386756Y-75408500D01*
X117613244Y-75408500D01*
X117617330Y-75407962D01*
X117617331Y-75407962D01*
X117688016Y-75398656D01*
X117727324Y-75393481D01*
X117734951Y-75390322D01*
X117734954Y-75390321D01*
X117830155Y-75350887D01*
X117869268Y-75334686D01*
X117991157Y-75241157D01*
X117997445Y-75232963D01*
X118079659Y-75125818D01*
X118084686Y-75119267D01*
X118143481Y-74977324D01*
X118158500Y-74863244D01*
X118158500Y-73534500D01*
X118178502Y-73466379D01*
X118232158Y-73419886D01*
X118284500Y-73408500D01*
X119613244Y-73408500D01*
X119617330Y-73407962D01*
X119617331Y-73407962D01*
X119674572Y-73400426D01*
X119727324Y-73393481D01*
X119734951Y-73390322D01*
X119734954Y-73390321D01*
X119788621Y-73368091D01*
X119836839Y-73358500D01*
X119891655Y-73358500D01*
X119959776Y-73378502D01*
G37*
%TD.AperFunction*%
%TA.AperFunction,Conductor*%
G36*
X105293225Y-72128502D02*
G01*
X105339718Y-72182158D01*
X105349822Y-72252432D01*
X105333559Y-72298637D01*
X105324605Y-72313778D01*
X105318357Y-72328216D01*
X105276688Y-72471641D01*
X105275232Y-72479609D01*
X105278052Y-72493031D01*
X105289513Y-72496000D01*
X106093261Y-72496000D01*
X106161382Y-72516002D01*
X106182356Y-72532905D01*
X106190356Y-72540905D01*
X106224382Y-72603217D01*
X106219317Y-72674032D01*
X106190356Y-72719095D01*
X105942356Y-72967095D01*
X105880044Y-73001121D01*
X105853261Y-73004000D01*
X105291576Y-73004000D01*
X105276781Y-73008344D01*
X105274937Y-73018775D01*
X105276688Y-73028359D01*
X105318357Y-73171784D01*
X105324607Y-73186226D01*
X105375544Y-73272356D01*
X105393004Y-73341172D01*
X105366889Y-73413064D01*
X105362494Y-73417459D01*
X105279731Y-73557404D01*
X105277520Y-73565015D01*
X105277519Y-73565017D01*
X105270799Y-73588147D01*
X105234371Y-73713534D01*
X105233867Y-73719941D01*
X105233866Y-73719945D01*
X105231931Y-73744538D01*
X105231500Y-73750011D01*
X105231501Y-73999147D01*
X105231501Y-74216552D01*
X105211499Y-74284673D01*
X105157844Y-74331166D01*
X105095487Y-74341348D01*
X105095487Y-74341500D01*
X104904513Y-74341500D01*
X104898061Y-74342872D01*
X104898056Y-74342872D01*
X104811112Y-74361353D01*
X104717712Y-74381206D01*
X104711682Y-74383891D01*
X104711681Y-74383891D01*
X104549278Y-74456197D01*
X104549276Y-74456198D01*
X104543248Y-74458882D01*
X104388747Y-74571134D01*
X104260960Y-74713056D01*
X104228333Y-74769567D01*
X104176629Y-74859122D01*
X104165473Y-74878444D01*
X104106458Y-75060072D01*
X104105768Y-75066633D01*
X104105768Y-75066635D01*
X104089827Y-75218310D01*
X104086496Y-75250000D01*
X104087186Y-75256565D01*
X104105447Y-75430306D01*
X104106458Y-75439928D01*
X104165473Y-75621556D01*
X104168776Y-75627278D01*
X104168777Y-75627279D01*
X104183091Y-75652071D01*
X104260960Y-75786944D01*
X104265378Y-75791851D01*
X104265379Y-75791852D01*
X104364624Y-75902075D01*
X104388747Y-75928866D01*
X104414312Y-75947440D01*
X104533666Y-76034156D01*
X104543248Y-76041118D01*
X104549276Y-76043802D01*
X104549278Y-76043803D01*
X104711681Y-76116109D01*
X104717712Y-76118794D01*
X104811112Y-76138647D01*
X104898056Y-76157128D01*
X104898061Y-76157128D01*
X104904513Y-76158500D01*
X105095487Y-76158500D01*
X105095487Y-76160915D01*
X105155290Y-76173589D01*
X105205762Y-76223520D01*
X105221500Y-76284499D01*
X105221501Y-76518431D01*
X105221501Y-76749988D01*
X105224371Y-76786466D01*
X105239406Y-76838216D01*
X105266172Y-76930347D01*
X105265969Y-77001344D01*
X105227415Y-77060960D01*
X105162750Y-77090268D01*
X105145175Y-77091500D01*
X104399600Y-77091500D01*
X104396354Y-77091837D01*
X104396350Y-77091837D01*
X104300692Y-77101762D01*
X104300688Y-77101763D01*
X104293834Y-77102474D01*
X104287298Y-77104655D01*
X104287296Y-77104655D01*
X104286676Y-77104862D01*
X104126054Y-77158450D01*
X103975652Y-77251522D01*
X103850695Y-77376697D01*
X103846855Y-77382927D01*
X103846854Y-77382928D01*
X103766369Y-77513499D01*
X103757885Y-77527262D01*
X103740657Y-77579202D01*
X103707970Y-77677753D01*
X103702203Y-77695139D01*
X103701503Y-77701975D01*
X103701502Y-77701978D01*
X103693678Y-77778343D01*
X103666837Y-77844070D01*
X103608722Y-77884852D01*
X103568334Y-77891500D01*
X96854239Y-77891500D01*
X96786118Y-77871498D01*
X96765144Y-77854595D01*
X96741348Y-77830799D01*
X96707322Y-77768487D01*
X96712387Y-77697672D01*
X96715559Y-77689957D01*
X96721056Y-77677753D01*
X96767270Y-77623857D01*
X96835940Y-77603500D01*
X97536864Y-77603500D01*
X97553307Y-77604578D01*
X97585000Y-77608750D01*
X97593189Y-77607672D01*
X97624874Y-77603501D01*
X97624884Y-77603500D01*
X97624885Y-77603500D01*
X97724457Y-77590391D01*
X97735664Y-77588916D01*
X97735666Y-77588915D01*
X97743851Y-77587838D01*
X97891876Y-77526524D01*
X97899034Y-77521032D01*
X97987072Y-77453477D01*
X97987075Y-77453474D01*
X98012437Y-77434013D01*
X98018987Y-77428987D01*
X98038458Y-77403613D01*
X98049316Y-77391233D01*
X100320141Y-75120408D01*
X100382453Y-75086382D01*
X100454184Y-75091793D01*
X100471866Y-75098545D01*
X100471875Y-75098548D01*
X100476697Y-75100389D01*
X100711716Y-75148204D01*
X100847264Y-75153174D01*
X100946225Y-75156803D01*
X100946229Y-75156803D01*
X100951389Y-75156992D01*
X100956509Y-75156336D01*
X100956511Y-75156336D01*
X101184151Y-75127175D01*
X101184152Y-75127175D01*
X101189279Y-75126518D01*
X101209645Y-75120408D01*
X101414042Y-75059086D01*
X101414047Y-75059084D01*
X101418997Y-75057599D01*
X101634374Y-74952087D01*
X101638579Y-74949087D01*
X101638585Y-74949084D01*
X101737618Y-74878444D01*
X101829627Y-74812815D01*
X101999511Y-74643523D01*
X102023422Y-74610248D01*
X102136445Y-74452958D01*
X102139463Y-74448758D01*
X102143578Y-74440433D01*
X102243433Y-74238392D01*
X102243434Y-74238390D01*
X102245727Y-74233750D01*
X102315447Y-74004274D01*
X102346752Y-73766492D01*
X102346834Y-73763142D01*
X102348417Y-73698365D01*
X102348417Y-73698361D01*
X102348499Y-73695000D01*
X102339008Y-73579557D01*
X102329271Y-73461124D01*
X102329270Y-73461118D01*
X102328847Y-73455973D01*
X102291178Y-73306004D01*
X102271679Y-73228375D01*
X102271678Y-73228371D01*
X102270420Y-73223364D01*
X102267267Y-73216111D01*
X102188405Y-73034742D01*
X102179585Y-72964296D01*
X102210252Y-72900264D01*
X102270669Y-72862976D01*
X102303955Y-72858500D01*
X103451864Y-72858500D01*
X103468307Y-72859578D01*
X103500000Y-72863750D01*
X103508189Y-72862672D01*
X103539874Y-72858501D01*
X103539884Y-72858500D01*
X103539885Y-72858500D01*
X103608581Y-72849456D01*
X103639457Y-72845391D01*
X103650664Y-72843916D01*
X103650666Y-72843915D01*
X103658851Y-72842838D01*
X103806876Y-72781524D01*
X103814498Y-72775676D01*
X103902072Y-72708477D01*
X103902075Y-72708474D01*
X103927437Y-72689013D01*
X103933987Y-72683987D01*
X103953458Y-72658613D01*
X103964316Y-72646233D01*
X104465144Y-72145405D01*
X104527456Y-72111379D01*
X104554239Y-72108500D01*
X105225104Y-72108500D01*
X105293225Y-72128502D01*
G37*
%TD.AperFunction*%
%TA.AperFunction,Conductor*%
G36*
X112052703Y-66949813D02*
G01*
X112103906Y-66989102D01*
X112145774Y-67046440D01*
X112148099Y-67053567D01*
X112154044Y-67073813D01*
X112167583Y-67075842D01*
X112227194Y-67067994D01*
X112227427Y-67069765D01*
X112272507Y-67069766D01*
X112272676Y-67068481D01*
X112382669Y-67082962D01*
X112382670Y-67082962D01*
X112386756Y-67083500D01*
X112613244Y-67083500D01*
X112617330Y-67082962D01*
X112617331Y-67082962D01*
X112727324Y-67068481D01*
X112727527Y-67070026D01*
X112772473Y-67070026D01*
X112772676Y-67068481D01*
X112882669Y-67082962D01*
X112882670Y-67082962D01*
X112886756Y-67083500D01*
X112926769Y-67083500D01*
X112994890Y-67103502D01*
X113026731Y-67132795D01*
X113041523Y-67152072D01*
X113041526Y-67152075D01*
X113066013Y-67183987D01*
X113072568Y-67189017D01*
X113091379Y-67203452D01*
X113103770Y-67214319D01*
X113285685Y-67396234D01*
X113296552Y-67408625D01*
X113316013Y-67433987D01*
X113347925Y-67458474D01*
X113347928Y-67458477D01*
X113384760Y-67486739D01*
X113443125Y-67531524D01*
X113591150Y-67592838D01*
X113710115Y-67608500D01*
X113710120Y-67608500D01*
X113710129Y-67608501D01*
X113741812Y-67612672D01*
X113750000Y-67613750D01*
X113781693Y-67609578D01*
X113798136Y-67608500D01*
X114847213Y-67608500D01*
X114863656Y-67609578D01*
X114895349Y-67613750D01*
X114927042Y-67609578D01*
X114943485Y-67608500D01*
X116761328Y-67608500D01*
X116829449Y-67628502D01*
X116875942Y-67682158D01*
X116887328Y-67734500D01*
X116887328Y-67741811D01*
X116886250Y-67750000D01*
X116889883Y-67777592D01*
X116890422Y-67781690D01*
X116891500Y-67798136D01*
X116891500Y-70556515D01*
X116890422Y-70572958D01*
X116886250Y-70604651D01*
X116891500Y-70644531D01*
X116891500Y-70644536D01*
X116894390Y-70666483D01*
X116902479Y-70727926D01*
X116902479Y-70727928D01*
X116905814Y-70753259D01*
X116907162Y-70763502D01*
X116968476Y-70911527D01*
X116973503Y-70918078D01*
X116973504Y-70918080D01*
X117041520Y-71006720D01*
X117041526Y-71006726D01*
X117066013Y-71038638D01*
X117072568Y-71043668D01*
X117091379Y-71058103D01*
X117103770Y-71068970D01*
X117629595Y-71594795D01*
X117663621Y-71657107D01*
X117666500Y-71683890D01*
X117666500Y-71863244D01*
X117667038Y-71867330D01*
X117667038Y-71867331D01*
X117681519Y-71977324D01*
X117679974Y-71977527D01*
X117679974Y-72022473D01*
X117681519Y-72022676D01*
X117668490Y-72121644D01*
X117666500Y-72136756D01*
X117666500Y-72363244D01*
X117667038Y-72367330D01*
X117667038Y-72367331D01*
X117681519Y-72477324D01*
X117679974Y-72477527D01*
X117679974Y-72522473D01*
X117681519Y-72522676D01*
X117670916Y-72603217D01*
X117666500Y-72636756D01*
X117666500Y-72790500D01*
X117646498Y-72858621D01*
X117592842Y-72905114D01*
X117540500Y-72916500D01*
X117386756Y-72916500D01*
X117382670Y-72917038D01*
X117382669Y-72917038D01*
X117272676Y-72931519D01*
X117272507Y-72930234D01*
X117227427Y-72930235D01*
X117227194Y-72932006D01*
X117167960Y-72924208D01*
X117153778Y-72926419D01*
X117148217Y-72945784D01*
X117110189Y-73005737D01*
X117103816Y-73010967D01*
X117076704Y-73031771D01*
X117010484Y-73057372D01*
X116940935Y-73043108D01*
X116923295Y-73031771D01*
X116896092Y-73010897D01*
X116854225Y-72953558D01*
X116851901Y-72946433D01*
X116845956Y-72926187D01*
X116832417Y-72924158D01*
X116772806Y-72932006D01*
X116772573Y-72930235D01*
X116727493Y-72930234D01*
X116727324Y-72931519D01*
X116705440Y-72928638D01*
X116640513Y-72899916D01*
X116601421Y-72840651D01*
X116596964Y-72820163D01*
X116593916Y-72797012D01*
X116592838Y-72788824D01*
X116586414Y-72773313D01*
X116553198Y-72693124D01*
X116538907Y-72658623D01*
X116531524Y-72640798D01*
X116525287Y-72632669D01*
X116458483Y-72545610D01*
X116458477Y-72545602D01*
X116458474Y-72545599D01*
X116433987Y-72513687D01*
X116427432Y-72508657D01*
X116408621Y-72494222D01*
X116396230Y-72483355D01*
X116266641Y-72353766D01*
X116255774Y-72341375D01*
X116241339Y-72322563D01*
X116236313Y-72316013D01*
X116204401Y-72291526D01*
X116204398Y-72291523D01*
X116123656Y-72229567D01*
X116115755Y-72223504D01*
X116115753Y-72223503D01*
X116109202Y-72218476D01*
X115961177Y-72157162D01*
X115952990Y-72156084D01*
X115952989Y-72156084D01*
X115941784Y-72154609D01*
X115910588Y-72150502D01*
X115842211Y-72141500D01*
X115842208Y-72141500D01*
X115842200Y-72141499D01*
X115810515Y-72137328D01*
X115802326Y-72136250D01*
X115770633Y-72140422D01*
X115754190Y-72141500D01*
X114298136Y-72141500D01*
X114281690Y-72140422D01*
X114258188Y-72137328D01*
X114250000Y-72136250D01*
X114241812Y-72137328D01*
X114210129Y-72141499D01*
X114210120Y-72141500D01*
X114210115Y-72141500D01*
X114091150Y-72157162D01*
X114083521Y-72160322D01*
X113950755Y-72215315D01*
X113950752Y-72215317D01*
X113943125Y-72218476D01*
X113940894Y-72220188D01*
X113847928Y-72291523D01*
X113847925Y-72291526D01*
X113816013Y-72316013D01*
X113810983Y-72322568D01*
X113796548Y-72341379D01*
X113785681Y-72353770D01*
X113603766Y-72535685D01*
X113591376Y-72546551D01*
X113576706Y-72557808D01*
X113510486Y-72583410D01*
X113440937Y-72569146D01*
X113423298Y-72557810D01*
X113408622Y-72546549D01*
X113396230Y-72535681D01*
X112964315Y-72103766D01*
X112953448Y-72091375D01*
X112939013Y-72072563D01*
X112933987Y-72066013D01*
X112902075Y-72041526D01*
X112902072Y-72041523D01*
X112870646Y-72017409D01*
X112813429Y-71973504D01*
X112813427Y-71973503D01*
X112806876Y-71968476D01*
X112658851Y-71907162D01*
X112650664Y-71906084D01*
X112650663Y-71906084D01*
X112639458Y-71904609D01*
X112608262Y-71900502D01*
X112539885Y-71891500D01*
X112539882Y-71891500D01*
X112539874Y-71891499D01*
X112508189Y-71887328D01*
X112500000Y-71886250D01*
X112491811Y-71887328D01*
X112484500Y-71887328D01*
X112416379Y-71867326D01*
X112369886Y-71813670D01*
X112358500Y-71761328D01*
X112358500Y-71048136D01*
X112359578Y-71031690D01*
X112362672Y-71008188D01*
X112363750Y-71000000D01*
X112358500Y-70960122D01*
X112358500Y-70960115D01*
X112348776Y-70886250D01*
X112343916Y-70849336D01*
X112343915Y-70849334D01*
X112342838Y-70841150D01*
X112339678Y-70833522D01*
X112339677Y-70833517D01*
X112325056Y-70798219D01*
X112317466Y-70727629D01*
X112325056Y-70701781D01*
X112339677Y-70666483D01*
X112339678Y-70666478D01*
X112342838Y-70658850D01*
X112344723Y-70644536D01*
X112358500Y-70539885D01*
X112358500Y-70539878D01*
X112362672Y-70508188D01*
X112363750Y-70500000D01*
X112359578Y-70468307D01*
X112358500Y-70451864D01*
X112358500Y-69784500D01*
X112378502Y-69716379D01*
X112432158Y-69669886D01*
X112484500Y-69658500D01*
X112595487Y-69658500D01*
X112601939Y-69657128D01*
X112601944Y-69657128D01*
X112700164Y-69636250D01*
X112782288Y-69618794D01*
X112805409Y-69608500D01*
X112950722Y-69543803D01*
X112950724Y-69543802D01*
X112956752Y-69541118D01*
X113111253Y-69428866D01*
X113161593Y-69372958D01*
X113234621Y-69291852D01*
X113234622Y-69291851D01*
X113239040Y-69286944D01*
X113334527Y-69121556D01*
X113393542Y-68939928D01*
X113394668Y-68929220D01*
X113412814Y-68756565D01*
X113413504Y-68750000D01*
X113395557Y-68579244D01*
X113394232Y-68566635D01*
X113394232Y-68566633D01*
X113393542Y-68560072D01*
X113334527Y-68378444D01*
X113330358Y-68371222D01*
X113242341Y-68218774D01*
X113239040Y-68213056D01*
X113111253Y-68071134D01*
X112982135Y-67977324D01*
X112962094Y-67962763D01*
X112962093Y-67962762D01*
X112956752Y-67958882D01*
X112950724Y-67956198D01*
X112950722Y-67956197D01*
X112788319Y-67883891D01*
X112788318Y-67883891D01*
X112782288Y-67881206D01*
X112688887Y-67861353D01*
X112601944Y-67842872D01*
X112601939Y-67842872D01*
X112595487Y-67841500D01*
X112404513Y-67841500D01*
X112398061Y-67842872D01*
X112398056Y-67842872D01*
X112311113Y-67861353D01*
X112217712Y-67881206D01*
X112211682Y-67883891D01*
X112211681Y-67883891D01*
X112049278Y-67956197D01*
X112049276Y-67956198D01*
X112043248Y-67958882D01*
X112037907Y-67962763D01*
X112037901Y-67962766D01*
X112033509Y-67965957D01*
X111966642Y-67989816D01*
X111897490Y-67973735D01*
X111848010Y-67922821D01*
X111835313Y-67863244D01*
X111833500Y-67863244D01*
X111833500Y-67636756D01*
X111818481Y-67522676D01*
X111820026Y-67522473D01*
X111820026Y-67477527D01*
X111818481Y-67477324D01*
X111832962Y-67367331D01*
X111832962Y-67367330D01*
X111833500Y-67363244D01*
X111833500Y-67136756D01*
X111834498Y-67136756D01*
X111838333Y-67101051D01*
X111850000Y-67060423D01*
X111850000Y-67049776D01*
X111870002Y-66981655D01*
X111923658Y-66935162D01*
X111993932Y-66925058D01*
X112052703Y-66949813D01*
G37*
%TD.AperFunction*%
%TA.AperFunction,Conductor*%
G36*
X109267910Y-70446805D02*
G01*
X109324746Y-70489352D01*
X109349557Y-70555872D01*
X109348800Y-70581307D01*
X109341500Y-70636756D01*
X109341500Y-70863244D01*
X109342038Y-70867330D01*
X109342038Y-70867331D01*
X109356519Y-70977324D01*
X109355234Y-70977493D01*
X109355235Y-71022573D01*
X109357006Y-71022806D01*
X109348707Y-71085841D01*
X109319984Y-71150768D01*
X109272003Y-71185803D01*
X109263684Y-71189249D01*
X109193124Y-71218476D01*
X109150437Y-71251231D01*
X109097937Y-71291515D01*
X109097921Y-71291529D01*
X109072566Y-71310984D01*
X109072563Y-71310987D01*
X109066013Y-71316013D01*
X109060983Y-71322568D01*
X109046548Y-71341379D01*
X109035681Y-71353770D01*
X108823595Y-71565856D01*
X108761283Y-71599882D01*
X108690468Y-71594817D01*
X108633632Y-71552270D01*
X108608821Y-71485750D01*
X108608500Y-71476761D01*
X108608500Y-71054239D01*
X108628502Y-70986118D01*
X108645405Y-70965144D01*
X109134783Y-70475766D01*
X109197095Y-70441740D01*
X109267910Y-70446805D01*
G37*
%TD.AperFunction*%
%TA.AperFunction,Conductor*%
G36*
X110543988Y-64526118D02*
G01*
X110589078Y-64555040D01*
X110614947Y-64580864D01*
X110621175Y-64584703D01*
X110621178Y-64584705D01*
X110633329Y-64592195D01*
X110759308Y-64669849D01*
X110766256Y-64672154D01*
X110766257Y-64672154D01*
X110913738Y-64721072D01*
X110913740Y-64721072D01*
X110920269Y-64723238D01*
X111020428Y-64733500D01*
X111288268Y-64733500D01*
X111356389Y-64753502D01*
X111402882Y-64807158D01*
X111412986Y-64877432D01*
X111404677Y-64907718D01*
X111360167Y-65015175D01*
X111355928Y-65030995D01*
X111342538Y-65132700D01*
X111342000Y-65140908D01*
X111342000Y-65669385D01*
X111346475Y-65684624D01*
X111347865Y-65685829D01*
X111355548Y-65687500D01*
X111715500Y-65687500D01*
X111783621Y-65707502D01*
X111830114Y-65761158D01*
X111841500Y-65813500D01*
X111841500Y-65861500D01*
X111821498Y-65929621D01*
X111767842Y-65976114D01*
X111715500Y-65987500D01*
X111360115Y-65987500D01*
X111344876Y-65991975D01*
X111343671Y-65993365D01*
X111342000Y-66001048D01*
X111342000Y-66465500D01*
X111321998Y-66533621D01*
X111268342Y-66580114D01*
X111216000Y-66591500D01*
X109886756Y-66591500D01*
X109882670Y-66592038D01*
X109882669Y-66592038D01*
X109802814Y-66602551D01*
X109732665Y-66591612D01*
X109697273Y-66566724D01*
X108395289Y-65264740D01*
X108361263Y-65202428D01*
X108366328Y-65131613D01*
X108408875Y-65074777D01*
X108433134Y-65060539D01*
X108470717Y-65043806D01*
X108470725Y-65043801D01*
X108476752Y-65041118D01*
X108631253Y-64928866D01*
X108677564Y-64877432D01*
X108754621Y-64791852D01*
X108754622Y-64791851D01*
X108759040Y-64786944D01*
X108854527Y-64621556D01*
X108856312Y-64622587D01*
X108895989Y-64575903D01*
X108963916Y-64555251D01*
X109032224Y-64574601D01*
X109037180Y-64578102D01*
X109039947Y-64580864D01*
X109184308Y-64669849D01*
X109191256Y-64672154D01*
X109191257Y-64672154D01*
X109338738Y-64721072D01*
X109338740Y-64721072D01*
X109345269Y-64723238D01*
X109445428Y-64733500D01*
X109979572Y-64733500D01*
X109982818Y-64733163D01*
X109982822Y-64733163D01*
X110016603Y-64729658D01*
X110080982Y-64722978D01*
X110241849Y-64669308D01*
X110386055Y-64580071D01*
X110410887Y-64555195D01*
X110473168Y-64521116D01*
X110543988Y-64526118D01*
G37*
%TD.AperFunction*%
%TA.AperFunction,Conductor*%
G36*
X103035633Y-62388502D02*
G01*
X103082126Y-62442158D01*
X103083734Y-62449499D01*
X103091799Y-62461970D01*
X103100691Y-62466000D01*
X103378621Y-62466000D01*
X103442760Y-62483546D01*
X103470403Y-62499894D01*
X103478014Y-62502105D01*
X103478016Y-62502106D01*
X103527245Y-62516408D01*
X103627746Y-62545606D01*
X103634151Y-62546110D01*
X103634156Y-62546111D01*
X103662060Y-62548307D01*
X103662068Y-62548307D01*
X103664516Y-62548500D01*
X103875761Y-62548500D01*
X103943882Y-62568502D01*
X103964856Y-62585405D01*
X104117095Y-62737644D01*
X104151121Y-62799956D01*
X104154000Y-62826739D01*
X104154000Y-63488424D01*
X104158344Y-63503219D01*
X104168775Y-63505063D01*
X104178359Y-63503312D01*
X104321784Y-63461643D01*
X104336218Y-63455397D01*
X104353187Y-63445361D01*
X104422003Y-63427901D01*
X104481467Y-63445360D01*
X104557404Y-63490269D01*
X104565015Y-63492480D01*
X104565017Y-63492481D01*
X104608325Y-63505063D01*
X104713534Y-63535629D01*
X104719941Y-63536133D01*
X104719945Y-63536134D01*
X104747556Y-63538307D01*
X104747562Y-63538307D01*
X104750011Y-63538500D01*
X104759883Y-63538500D01*
X105127408Y-63538499D01*
X105195527Y-63558501D01*
X105242020Y-63612156D01*
X105252125Y-63682430D01*
X105248404Y-63699651D01*
X105246166Y-63707353D01*
X105246165Y-63707360D01*
X105244371Y-63713534D01*
X105243867Y-63719941D01*
X105243866Y-63719945D01*
X105241919Y-63744684D01*
X105241500Y-63750011D01*
X105241501Y-64249988D01*
X105244371Y-64286466D01*
X105289731Y-64442596D01*
X105293766Y-64449419D01*
X105293767Y-64449421D01*
X105294912Y-64451357D01*
X105295348Y-64453074D01*
X105296915Y-64456696D01*
X105296331Y-64456949D01*
X105312374Y-64520173D01*
X105289860Y-64587505D01*
X105234517Y-64631976D01*
X105186461Y-64641500D01*
X103798136Y-64641500D01*
X103781690Y-64640422D01*
X103758188Y-64637328D01*
X103750000Y-64636250D01*
X103741812Y-64637328D01*
X103710129Y-64641499D01*
X103710120Y-64641500D01*
X103710115Y-64641500D01*
X103591150Y-64657162D01*
X103443125Y-64718476D01*
X103422225Y-64734513D01*
X103347928Y-64791523D01*
X103347925Y-64791526D01*
X103316013Y-64816013D01*
X103310983Y-64822568D01*
X103296548Y-64841379D01*
X103285681Y-64853770D01*
X102480695Y-65658756D01*
X102418383Y-65692782D01*
X102347568Y-65687717D01*
X102290732Y-65645170D01*
X102272321Y-65610264D01*
X102271681Y-65608383D01*
X102270420Y-65603364D01*
X102186151Y-65409557D01*
X102176847Y-65388159D01*
X102176845Y-65388156D01*
X102174787Y-65383422D01*
X102162342Y-65364184D01*
X102047325Y-65186396D01*
X102047323Y-65186393D01*
X102044515Y-65182053D01*
X102035533Y-65172181D01*
X101886582Y-65008487D01*
X101886580Y-65008486D01*
X101883104Y-65004665D01*
X101879053Y-65001466D01*
X101879049Y-65001462D01*
X101698946Y-64859226D01*
X101694888Y-64856021D01*
X101558605Y-64780788D01*
X101508636Y-64730357D01*
X101493500Y-64670481D01*
X101493500Y-63429980D01*
X101513502Y-63361859D01*
X101530405Y-63340885D01*
X101885419Y-62985871D01*
X103091776Y-62985871D01*
X103128357Y-63111784D01*
X103134604Y-63126220D01*
X103209876Y-63253499D01*
X103219516Y-63265926D01*
X103324074Y-63370484D01*
X103336501Y-63380124D01*
X103463780Y-63455396D01*
X103478216Y-63461643D01*
X103621641Y-63503312D01*
X103629609Y-63504768D01*
X103643031Y-63501948D01*
X103646000Y-63490487D01*
X103646000Y-62992115D01*
X103641525Y-62976876D01*
X103640135Y-62975671D01*
X103632452Y-62974000D01*
X103106442Y-62974000D01*
X103092911Y-62977973D01*
X103091776Y-62985871D01*
X101885419Y-62985871D01*
X102465885Y-62405405D01*
X102528197Y-62371379D01*
X102554980Y-62368500D01*
X102967512Y-62368500D01*
X103035633Y-62388502D01*
G37*
%TD.AperFunction*%
%TD*%
M02*
