M48
; DRILL file {KiCad (6.0.4)} date Wed Jun 15 11:08:06 2022
; FORMAT={-:-/ absolute / inch / decimal}
; #@! TF.CreationDate,2022-06-15T11:08:06+02:00
; #@! TF.GenerationSoftware,Kicad,Pcbnew,(6.0.4)
; #@! TF.FileFunction,Plated,1,2,PTH
FMAT,2
INCH
; #@! TA.AperFunction,Plated,PTH,ViaDrill
T1C0.0157
; #@! TA.AperFunction,Plated,PTH,ComponentDrill
T2C0.0354
; #@! TA.AperFunction,Plated,PTH,ComponentDrill
T3C0.0394
; #@! TA.AperFunction,Plated,PTH,ComponentDrill
T4C0.0433
; #@! TA.AperFunction,Plated,PTH,ComponentDrill
T5C0.0630
%
G90
G05
T1
X4.0256Y-2.4705
X4.124Y-2.6181
X4.1339Y-2.8642
X4.1339Y-2.9626
X4.2528Y-2.5295
X4.2815Y-2.7953
X4.3012Y-3.0413
X4.3012Y-3.0906
X4.3307Y-2.9035
X4.3602Y-2.5787
X4.3602Y-2.9626
X4.3701Y-3.0315
X4.4291Y-2.3917
X4.4291Y-2.6673
X4.4291Y-2.7067
X4.4882Y-2.4409
X4.4882Y-2.8248
X4.4882Y-3.0118
X4.5079Y-3.0512
X4.5276Y-2.4409
X4.6358Y-3.0413
X4.7638Y-2.7953
X4.9016Y-2.8445
X4.9803Y-2.6378
T2
X3.8719Y-2.5514
X3.8719Y-2.6514
X3.8719Y-2.7514
X3.8719Y-2.8514
X3.9719Y-2.6014
X3.9719Y-2.7014
X3.9719Y-2.8014
X3.9719Y-2.9014
T3
X4.7398Y-2.4213
X4.7398Y-2.5213
X4.8398Y-2.4213
X4.8398Y-2.5213
X4.9398Y-2.4213
X4.9398Y-2.5213
X5.0398Y-2.4213
X5.0398Y-2.5213
X5.1398Y-2.4213
X5.1398Y-2.5213
T4
X3.462Y-2.4656
X3.462Y-2.5656
X3.462Y-2.8872
X3.462Y-2.9872
T5
X3.7419Y-2.4215
X3.7419Y-3.0313
T0
M30
