%TF.GenerationSoftware,KiCad,Pcbnew,(6.0.0)*%
%TF.CreationDate,2022-04-14T08:35:50+02:00*%
%TF.ProjectId,W5500_Shield_Ethernet,57353530-305f-4536-9869-656c645f4574,rev?*%
%TF.SameCoordinates,Original*%
%TF.FileFunction,Copper,L1,Top*%
%TF.FilePolarity,Positive*%
%FSLAX46Y46*%
G04 Gerber Fmt 4.6, Leading zero omitted, Abs format (unit mm)*
G04 Created by KiCad (PCBNEW (6.0.0)) date 2022-04-14 08:35:50*
%MOMM*%
%LPD*%
G01*
G04 APERTURE LIST*
G04 Aperture macros list*
%AMRoundRect*
0 Rectangle with rounded corners*
0 $1 Rounding radius*
0 $2 $3 $4 $5 $6 $7 $8 $9 X,Y pos of 4 corners*
0 Add a 4 corners polygon primitive as box body*
4,1,4,$2,$3,$4,$5,$6,$7,$8,$9,$2,$3,0*
0 Add four circle primitives for the rounded corners*
1,1,$1+$1,$2,$3*
1,1,$1+$1,$4,$5*
1,1,$1+$1,$6,$7*
1,1,$1+$1,$8,$9*
0 Add four rect primitives between the rounded corners*
20,1,$1+$1,$2,$3,$4,$5,0*
20,1,$1+$1,$4,$5,$6,$7,0*
20,1,$1+$1,$6,$7,$8,$9,0*
20,1,$1+$1,$8,$9,$2,$3,0*%
G04 Aperture macros list end*
%TA.AperFunction,SMDPad,CuDef*%
%ADD10R,1.200000X1.400000*%
%TD*%
%TA.AperFunction,SMDPad,CuDef*%
%ADD11RoundRect,0.140000X-0.140000X-0.170000X0.140000X-0.170000X0.140000X0.170000X-0.140000X0.170000X0*%
%TD*%
%TA.AperFunction,SMDPad,CuDef*%
%ADD12RoundRect,0.140000X0.170000X-0.140000X0.170000X0.140000X-0.170000X0.140000X-0.170000X-0.140000X0*%
%TD*%
%TA.AperFunction,SMDPad,CuDef*%
%ADD13RoundRect,0.135000X-0.135000X-0.185000X0.135000X-0.185000X0.135000X0.185000X-0.135000X0.185000X0*%
%TD*%
%TA.AperFunction,SMDPad,CuDef*%
%ADD14RoundRect,0.135000X0.185000X-0.135000X0.185000X0.135000X-0.185000X0.135000X-0.185000X-0.135000X0*%
%TD*%
%TA.AperFunction,SMDPad,CuDef*%
%ADD15RoundRect,0.140000X0.140000X0.170000X-0.140000X0.170000X-0.140000X-0.170000X0.140000X-0.170000X0*%
%TD*%
%TA.AperFunction,SMDPad,CuDef*%
%ADD16RoundRect,0.218750X0.218750X0.256250X-0.218750X0.256250X-0.218750X-0.256250X0.218750X-0.256250X0*%
%TD*%
%TA.AperFunction,SMDPad,CuDef*%
%ADD17RoundRect,0.140000X-0.170000X0.140000X-0.170000X-0.140000X0.170000X-0.140000X0.170000X0.140000X0*%
%TD*%
%TA.AperFunction,SMDPad,CuDef*%
%ADD18RoundRect,0.135000X0.135000X0.185000X-0.135000X0.185000X-0.135000X-0.185000X0.135000X-0.185000X0*%
%TD*%
%TA.AperFunction,SMDPad,CuDef*%
%ADD19RoundRect,0.250000X0.325000X0.650000X-0.325000X0.650000X-0.325000X-0.650000X0.325000X-0.650000X0*%
%TD*%
%TA.AperFunction,SMDPad,CuDef*%
%ADD20RoundRect,0.075000X-0.662500X-0.075000X0.662500X-0.075000X0.662500X0.075000X-0.662500X0.075000X0*%
%TD*%
%TA.AperFunction,SMDPad,CuDef*%
%ADD21RoundRect,0.075000X-0.075000X-0.662500X0.075000X-0.662500X0.075000X0.662500X-0.075000X0.662500X0*%
%TD*%
%TA.AperFunction,ComponentPad*%
%ADD22R,1.900000X1.900000*%
%TD*%
%TA.AperFunction,ComponentPad*%
%ADD23C,1.900000*%
%TD*%
%TA.AperFunction,ComponentPad*%
%ADD24C,2.100000*%
%TD*%
%TA.AperFunction,ComponentPad*%
%ADD25C,2.600000*%
%TD*%
%TA.AperFunction,ComponentPad*%
%ADD26R,1.700000X1.700000*%
%TD*%
%TA.AperFunction,ComponentPad*%
%ADD27O,1.700000X1.700000*%
%TD*%
%TA.AperFunction,SMDPad,CuDef*%
%ADD28RoundRect,0.243750X-0.456250X0.243750X-0.456250X-0.243750X0.456250X-0.243750X0.456250X0.243750X0*%
%TD*%
%TA.AperFunction,SMDPad,CuDef*%
%ADD29RoundRect,0.135000X-0.185000X0.135000X-0.185000X-0.135000X0.185000X-0.135000X0.185000X0.135000X0*%
%TD*%
%TA.AperFunction,SMDPad,CuDef*%
%ADD30RoundRect,0.200000X0.275000X-0.200000X0.275000X0.200000X-0.275000X0.200000X-0.275000X-0.200000X0*%
%TD*%
%TA.AperFunction,ViaPad*%
%ADD31C,0.800000*%
%TD*%
%TA.AperFunction,Conductor*%
%ADD32C,0.200000*%
%TD*%
%TA.AperFunction,Conductor*%
%ADD33C,0.250000*%
%TD*%
G04 APERTURE END LIST*
D10*
%TO.P,Y1,1,1*%
%TO.N,Net-(C12-Pad1)*%
X126450000Y-70750000D03*
%TO.P,Y1,2,2*%
%TO.N,GND*%
X126450000Y-68550000D03*
%TO.P,Y1,3,3*%
%TO.N,Net-(C13-Pad1)*%
X124750000Y-68550000D03*
%TO.P,Y1,4,4*%
%TO.N,GND*%
X124750000Y-70750000D03*
%TD*%
D11*
%TO.P,C13,1*%
%TO.N,Net-(C13-Pad1)*%
X124370000Y-66900000D03*
%TO.P,C13,2*%
%TO.N,GND*%
X125330000Y-66900000D03*
%TD*%
D12*
%TO.P,C10,1*%
%TO.N,GND*%
X105250000Y-61220000D03*
%TO.P,C10,2*%
%TO.N,Net-(C10-Pad2)*%
X105250000Y-60260000D03*
%TD*%
D13*
%TO.P,R12,1*%
%TO.N,Net-(R12-Pad1)*%
X120740000Y-73000000D03*
%TO.P,R12,2*%
%TO.N,/K_LED*%
X121760000Y-73000000D03*
%TD*%
D14*
%TO.P,R11,1*%
%TO.N,Net-(C12-Pad1)*%
X123100000Y-70160000D03*
%TO.P,R11,2*%
%TO.N,Net-(C13-Pad1)*%
X123100000Y-69140000D03*
%TD*%
D15*
%TO.P,C8,1*%
%TO.N,Net-(C8-Pad1)*%
X107000000Y-75250000D03*
%TO.P,C8,2*%
%TO.N,Net-(C8-Pad2)*%
X106040000Y-75250000D03*
%TD*%
D16*
%TO.P,L1,1,1*%
%TO.N,+3V3*%
X111287500Y-63750000D03*
%TO.P,L1,2,2*%
%TO.N,+3.3VA*%
X109712500Y-63750000D03*
%TD*%
D17*
%TO.P,C14,1*%
%TO.N,Net-(C14-Pad1)*%
X116500000Y-76270000D03*
%TO.P,C14,2*%
%TO.N,GND*%
X116500000Y-77230000D03*
%TD*%
D18*
%TO.P,R10,1*%
%TO.N,Net-(C8-Pad1)*%
X107030000Y-74000000D03*
%TO.P,R10,2*%
%TO.N,Net-(C9-Pad2)*%
X106010000Y-74000000D03*
%TD*%
D19*
%TO.P,C11,1*%
%TO.N,GND*%
X107725000Y-78500000D03*
%TO.P,C11,2*%
%TO.N,Net-(C11-Pad2)*%
X104775000Y-78500000D03*
%TD*%
D15*
%TO.P,C12,1*%
%TO.N,Net-(C12-Pad1)*%
X126830000Y-72400000D03*
%TO.P,C12,2*%
%TO.N,GND*%
X125870000Y-72400000D03*
%TD*%
%TO.P,C7,1*%
%TO.N,Net-(C7-Pad1)*%
X107000000Y-70250000D03*
%TO.P,C7,2*%
%TO.N,Net-(C7-Pad2)*%
X106040000Y-70250000D03*
%TD*%
D20*
%TO.P,U2,1,TXN*%
%TO.N,Net-(R5-Pad1)*%
X110587500Y-67250000D03*
%TO.P,U2,2,TXP*%
%TO.N,Net-(R6-Pad1)*%
X110587500Y-67750000D03*
%TO.P,U2,3,AGND*%
%TO.N,GND*%
X110587500Y-68250000D03*
%TO.P,U2,4,AVDD*%
%TO.N,+3.3VA*%
X110587500Y-68750000D03*
%TO.P,U2,5,RXN*%
%TO.N,Net-(R7-Pad1)*%
X110587500Y-69250000D03*
%TO.P,U2,6,RXP*%
%TO.N,Net-(R8-Pad1)*%
X110587500Y-69750000D03*
%TO.P,U2,7,DNC*%
%TO.N,unconnected-(U2-Pad7)*%
X110587500Y-70250000D03*
%TO.P,U2,8,AVDD*%
%TO.N,+3.3VA*%
X110587500Y-70750000D03*
%TO.P,U2,9,AGND*%
%TO.N,GND*%
X110587500Y-71250000D03*
%TO.P,U2,10,EXRES1*%
%TO.N,Net-(R14-Pad1)*%
X110587500Y-71750000D03*
%TO.P,U2,11,AVDD*%
%TO.N,+3.3VA*%
X110587500Y-72250000D03*
%TO.P,U2,12,NC*%
%TO.N,unconnected-(U2-Pad12)*%
X110587500Y-72750000D03*
D21*
%TO.P,U2,13,NC*%
%TO.N,unconnected-(U2-Pad13)*%
X112000000Y-74162500D03*
%TO.P,U2,14,AGND*%
%TO.N,GND*%
X112500000Y-74162500D03*
%TO.P,U2,15,AVDD*%
%TO.N,+3.3VA*%
X113000000Y-74162500D03*
%TO.P,U2,16,AGND*%
%TO.N,GND*%
X113500000Y-74162500D03*
%TO.P,U2,17,AVDD*%
%TO.N,+3.3VA*%
X114000000Y-74162500D03*
%TO.P,U2,18,VBG*%
%TO.N,unconnected-(U2-Pad18)*%
X114500000Y-74162500D03*
%TO.P,U2,19,AGND*%
%TO.N,GND*%
X115000000Y-74162500D03*
%TO.P,U2,20,TOCAP*%
%TO.N,Net-(C15-Pad1)*%
X115500000Y-74162500D03*
%TO.P,U2,21,AVDD*%
%TO.N,+3.3VA*%
X116000000Y-74162500D03*
%TO.P,U2,22,1V2O*%
%TO.N,Net-(C14-Pad1)*%
X116500000Y-74162500D03*
%TO.P,U2,23,RSVD*%
%TO.N,GND*%
X117000000Y-74162500D03*
%TO.P,U2,24,SPDLED*%
%TO.N,unconnected-(U2-Pad24)*%
X117500000Y-74162500D03*
D20*
%TO.P,U2,25,LINKLED*%
%TO.N,Net-(R12-Pad1)*%
X118912500Y-72750000D03*
%TO.P,U2,26,DUPLED*%
%TO.N,unconnected-(U2-Pad26)*%
X118912500Y-72250000D03*
%TO.P,U2,27,ACTLED*%
%TO.N,Net-(R13-Pad1)*%
X118912500Y-71750000D03*
%TO.P,U2,28,VDD*%
%TO.N,+3V3*%
X118912500Y-71250000D03*
%TO.P,U2,29,GND*%
%TO.N,GND*%
X118912500Y-70750000D03*
%TO.P,U2,30,XI/CLKIN*%
%TO.N,Net-(C12-Pad1)*%
X118912500Y-70250000D03*
%TO.P,U2,31,XO*%
%TO.N,Net-(C13-Pad1)*%
X118912500Y-69750000D03*
%TO.P,U2,32,~{SCS}*%
%TO.N,SCS_eth*%
X118912500Y-69250000D03*
%TO.P,U2,33,SCLK*%
%TO.N,SCLK_eth*%
X118912500Y-68750000D03*
%TO.P,U2,34,MISO*%
%TO.N,MISO_eth*%
X118912500Y-68250000D03*
%TO.P,U2,35,MOSI*%
%TO.N,MOSI_eth*%
X118912500Y-67750000D03*
%TO.P,U2,36,~{INT}*%
%TO.N,+3V3*%
X118912500Y-67250000D03*
D21*
%TO.P,U2,37,~{RST}*%
%TO.N,RESET_eth*%
X117500000Y-65837500D03*
%TO.P,U2,38,RSVD*%
%TO.N,GND*%
X117000000Y-65837500D03*
%TO.P,U2,39,RSVD*%
X116500000Y-65837500D03*
%TO.P,U2,40,RSVD*%
X116000000Y-65837500D03*
%TO.P,U2,41,RSVD*%
X115500000Y-65837500D03*
%TO.P,U2,42,RSVD*%
X115000000Y-65837500D03*
%TO.P,U2,43,PMODE2*%
%TO.N,+3V3*%
X114500000Y-65837500D03*
%TO.P,U2,44,PMODE1*%
X114000000Y-65837500D03*
%TO.P,U2,45,PMODE0*%
X113500000Y-65837500D03*
%TO.P,U2,46,NC*%
%TO.N,unconnected-(U2-Pad46)*%
X113000000Y-65837500D03*
%TO.P,U2,47,NC*%
%TO.N,unconnected-(U2-Pad47)*%
X112500000Y-65837500D03*
%TO.P,U2,48,AGND*%
%TO.N,GND*%
X112000000Y-65837500D03*
%TD*%
D18*
%TO.P,R7,1*%
%TO.N,Net-(R7-Pad1)*%
X107030000Y-69000000D03*
%TO.P,R7,2*%
%TO.N,Net-(C7-Pad1)*%
X106010000Y-69000000D03*
%TD*%
D17*
%TO.P,C15,1*%
%TO.N,Net-(C15-Pad1)*%
X115500000Y-76270000D03*
%TO.P,C15,2*%
%TO.N,GND*%
X115500000Y-77230000D03*
%TD*%
D18*
%TO.P,R6,1*%
%TO.N,Net-(R6-Pad1)*%
X107040000Y-66500000D03*
%TO.P,R6,2*%
%TO.N,Net-(J1-Pad1)*%
X106020000Y-66500000D03*
%TD*%
%TO.P,R8,1*%
%TO.N,Net-(R8-Pad1)*%
X107020000Y-76500000D03*
%TO.P,R8,2*%
%TO.N,Net-(C8-Pad1)*%
X106000000Y-76500000D03*
%TD*%
D22*
%TO.P,J1,1,TD+*%
%TO.N,Net-(J1-Pad1)*%
X98345000Y-64805000D03*
D23*
%TO.P,J1,2,TCT*%
%TO.N,Net-(C10-Pad2)*%
X100885000Y-66075000D03*
%TO.P,J1,3,TD-*%
%TO.N,Net-(J1-Pad3)*%
X98345000Y-67345000D03*
%TO.P,J1,4,RD+*%
%TO.N,Net-(C8-Pad2)*%
X100885000Y-68615000D03*
%TO.P,J1,5,RCT*%
%TO.N,Net-(C9-Pad2)*%
X98345000Y-69885000D03*
%TO.P,J1,6,RD-*%
%TO.N,Net-(C7-Pad2)*%
X100885000Y-71155000D03*
%TO.P,J1,7,NC*%
%TO.N,unconnected-(J1-Pad7)*%
X98345000Y-72425000D03*
%TO.P,J1,8,GND*%
%TO.N,Net-(C11-Pad2)*%
X100885000Y-73695000D03*
D24*
%TO.P,J1,L1,LEDY_A*%
%TO.N,+3V3*%
X87935000Y-62625000D03*
%TO.P,J1,L2,LEDY_K*%
%TO.N,/A_LED*%
X87935000Y-65165000D03*
%TO.P,J1,L3,LEDG_A*%
%TO.N,+3V3*%
X87935000Y-73335000D03*
%TO.P,J1,L4,LEDG_K*%
%TO.N,/K_LED*%
X87935000Y-75875000D03*
D25*
%TO.P,J1,SH,SHIELD*%
%TO.N,Net-(C11-Pad2)*%
X95045000Y-76995000D03*
X95045000Y-61505000D03*
%TD*%
D26*
%TO.P,J2,1,Pin_1*%
%TO.N,SCS_eth*%
X122800000Y-63800000D03*
D27*
%TO.P,J2,2,Pin_2*%
%TO.N,+3V3*%
X125340000Y-63800000D03*
%TO.P,J2,3,Pin_3*%
%TO.N,SCLK_eth*%
X122800000Y-61260000D03*
%TO.P,J2,4,Pin_4*%
%TO.N,+3V3*%
X125340000Y-61260000D03*
%TO.P,J2,5,Pin_5*%
%TO.N,MISO_eth*%
X122800000Y-58720000D03*
%TO.P,J2,6,Pin_6*%
%TO.N,+3V3*%
X125340000Y-58720000D03*
%TO.P,J2,7,Pin_7*%
%TO.N,MOSI_eth*%
X122800000Y-56180000D03*
%TO.P,J2,8,Pin_8*%
%TO.N,GND*%
X125340000Y-56180000D03*
%TO.P,J2,9,Pin_9*%
%TO.N,RESET_eth*%
X122800000Y-53640000D03*
%TO.P,J2,10,Pin_10*%
%TO.N,GND*%
X125340000Y-53640000D03*
%TD*%
D11*
%TO.P,C9,1*%
%TO.N,GND*%
X106060000Y-72750000D03*
%TO.P,C9,2*%
%TO.N,Net-(C9-Pad2)*%
X107020000Y-72750000D03*
%TD*%
D28*
%TO.P,D1,1,K*%
%TO.N,Net-(D1-Pad1)*%
X112200000Y-59462500D03*
%TO.P,D1,2,A*%
%TO.N,+3V3*%
X112200000Y-61337500D03*
%TD*%
D18*
%TO.P,R5,1*%
%TO.N,Net-(R5-Pad1)*%
X107030000Y-65250000D03*
%TO.P,R5,2*%
%TO.N,Net-(J1-Pad3)*%
X106010000Y-65250000D03*
%TD*%
D13*
%TO.P,R4,1*%
%TO.N,Net-(J1-Pad1)*%
X106020000Y-67750000D03*
%TO.P,R4,2*%
%TO.N,+3.3VA*%
X107040000Y-67750000D03*
%TD*%
%TO.P,R13,1*%
%TO.N,Net-(R13-Pad1)*%
X120740000Y-72000000D03*
%TO.P,R13,2*%
%TO.N,/A_LED*%
X121760000Y-72000000D03*
%TD*%
D12*
%TO.P,C4,1*%
%TO.N,+3V3*%
X115000000Y-63980000D03*
%TO.P,C4,2*%
%TO.N,GND*%
X115000000Y-63020000D03*
%TD*%
D18*
%TO.P,R9,1*%
%TO.N,Net-(C7-Pad1)*%
X107030000Y-71500000D03*
%TO.P,R9,2*%
%TO.N,Net-(C9-Pad2)*%
X106010000Y-71500000D03*
%TD*%
D29*
%TO.P,R14,1*%
%TO.N,Net-(R14-Pad1)*%
X109000000Y-72740000D03*
%TO.P,R14,2*%
%TO.N,GND*%
X109000000Y-73760000D03*
%TD*%
D13*
%TO.P,R3,1*%
%TO.N,Net-(J1-Pad3)*%
X106020000Y-64000000D03*
%TO.P,R3,2*%
%TO.N,+3.3VA*%
X107040000Y-64000000D03*
%TD*%
D17*
%TO.P,C5,1*%
%TO.N,+3.3VA*%
X113000000Y-76020000D03*
%TO.P,C5,2*%
%TO.N,GND*%
X113000000Y-76980000D03*
%TD*%
D12*
%TO.P,C3,1*%
%TO.N,+3V3*%
X114000000Y-63980000D03*
%TO.P,C3,2*%
%TO.N,GND*%
X114000000Y-63020000D03*
%TD*%
D30*
%TO.P,R1,1*%
%TO.N,Net-(D1-Pad1)*%
X112200000Y-57725000D03*
%TO.P,R1,2*%
%TO.N,GND*%
X112200000Y-56075000D03*
%TD*%
D17*
%TO.P,C6,1*%
%TO.N,+3.3VA*%
X112000000Y-76020000D03*
%TO.P,C6,2*%
%TO.N,GND*%
X112000000Y-76980000D03*
%TD*%
D14*
%TO.P,R2,1*%
%TO.N,Net-(C10-Pad2)*%
X104000000Y-61250000D03*
%TO.P,R2,2*%
%TO.N,+3.3VA*%
X104000000Y-60230000D03*
%TD*%
D31*
%TO.N,GND*%
X121000000Y-71000000D03*
X112500000Y-67750000D03*
X116500000Y-64000000D03*
X112200000Y-54843750D03*
X109250000Y-77250000D03*
X105000000Y-72750000D03*
X114000000Y-62000000D03*
X110750000Y-65500000D03*
X109250000Y-78500000D03*
X114000000Y-71750000D03*
X110000000Y-73750000D03*
X126500000Y-67000000D03*
X111000000Y-77000000D03*
X106250000Y-61250000D03*
X117750000Y-77250000D03*
X124500000Y-72250000D03*
X110750000Y-75250000D03*
X114500000Y-77500000D03*
X115000000Y-62000000D03*
X114000000Y-76500000D03*
X108750000Y-71000000D03*
%TO.N,+3V3*%
X116400000Y-62800000D03*
%TO.N,+3.3VA*%
X112500000Y-68750000D03*
X108020000Y-64250000D03*
%TO.N,Net-(C8-Pad2)*%
X105000000Y-75250000D03*
%TO.N,Net-(J1-Pad1)*%
X104750000Y-66500000D03*
%TD*%
D32*
%TO.N,GND*%
X114500000Y-77500000D02*
X114770000Y-77230000D01*
X124650000Y-72400000D02*
X124500000Y-72250000D01*
X124750000Y-72000000D02*
X124500000Y-72250000D01*
X112000000Y-76980000D02*
X111020000Y-76980000D01*
X109990000Y-73760000D02*
X110000000Y-73750000D01*
X109000000Y-73760000D02*
X109990000Y-73760000D01*
X116000000Y-64750000D02*
X116500000Y-64750000D01*
X124750000Y-70750000D02*
X124750000Y-72000000D01*
X114770000Y-77230000D02*
X115500000Y-77230000D01*
X110587500Y-71250000D02*
X109000000Y-71250000D01*
X108750000Y-77250000D02*
X109250000Y-77250000D01*
X117730000Y-77230000D02*
X117750000Y-77250000D01*
X112179651Y-75250000D02*
X110750000Y-75250000D01*
X111020000Y-76980000D02*
X111000000Y-77000000D01*
X116500000Y-77230000D02*
X117730000Y-77230000D01*
X115000000Y-74162500D02*
X115000000Y-75500000D01*
X110587500Y-68250000D02*
X112000000Y-68250000D01*
X107725000Y-78275000D02*
X108750000Y-77250000D01*
X113500000Y-72250000D02*
X114000000Y-71750000D01*
X115500000Y-64750000D02*
X116000000Y-64750000D01*
X116500000Y-65837500D02*
X116500000Y-64750000D01*
X115000000Y-75500000D02*
X114000000Y-76500000D01*
X117750000Y-76250000D02*
X117000000Y-75500000D01*
X112200000Y-56075000D02*
X112200000Y-54843750D01*
X115000000Y-65000000D02*
X115250000Y-64750000D01*
X126450000Y-68550000D02*
X126450000Y-67050000D01*
X126400000Y-66900000D02*
X126500000Y-67000000D01*
X115250000Y-64750000D02*
X115500000Y-64750000D01*
X112000000Y-65837500D02*
X111087500Y-65837500D01*
X118912500Y-70750000D02*
X120750000Y-70750000D01*
X117000000Y-75500000D02*
X117000000Y-74162500D01*
X117000000Y-65837500D02*
X117000000Y-64750000D01*
X116500000Y-64000000D02*
X117000000Y-64500000D01*
X107725000Y-78500000D02*
X107725000Y-78275000D01*
X120750000Y-70750000D02*
X121000000Y-71000000D01*
X113500000Y-74162500D02*
X113500000Y-72250000D01*
X107725000Y-78500000D02*
X109250000Y-78500000D01*
X115000000Y-65837500D02*
X115000000Y-65000000D01*
X125870000Y-72400000D02*
X124650000Y-72400000D01*
X125330000Y-66900000D02*
X126400000Y-66900000D01*
X113520000Y-76980000D02*
X114000000Y-76500000D01*
X113000000Y-76980000D02*
X113520000Y-76980000D01*
X111087500Y-65837500D02*
X110750000Y-65500000D01*
X112500000Y-74162500D02*
X112500000Y-74929651D01*
X115000000Y-63020000D02*
X115000000Y-62000000D01*
X117750000Y-77250000D02*
X117750000Y-76250000D01*
X116500000Y-64750000D02*
X117000000Y-64750000D01*
X114000000Y-63020000D02*
X114000000Y-62000000D01*
X112500000Y-74929651D02*
X112179651Y-75250000D01*
X105250000Y-61220000D02*
X106220000Y-61220000D01*
X109000000Y-71250000D02*
X108750000Y-71000000D01*
X117000000Y-64500000D02*
X117000000Y-64750000D01*
X106220000Y-61220000D02*
X106250000Y-61250000D01*
X126450000Y-67050000D02*
X126500000Y-67000000D01*
X115500000Y-65837500D02*
X115500000Y-64750000D01*
X116000000Y-65837500D02*
X116000000Y-64750000D01*
X112000000Y-68250000D02*
X112500000Y-67750000D01*
X106060000Y-72750000D02*
X105000000Y-72750000D01*
%TO.N,+3V3*%
X111517500Y-63980000D02*
X111287500Y-63750000D01*
D33*
X87935000Y-73335000D02*
X89750000Y-71520000D01*
X105787500Y-58250000D02*
X111287500Y-63750000D01*
D32*
X112200000Y-62180000D02*
X114000000Y-63980000D01*
X117500000Y-70604651D02*
X117500000Y-67750000D01*
D33*
X87935000Y-62625000D02*
X92310000Y-58250000D01*
D32*
X112200000Y-61337500D02*
X112200000Y-62180000D01*
X118000000Y-67250000D02*
X117750000Y-67250000D01*
X114500000Y-65837500D02*
X114500000Y-64480000D01*
X117500000Y-67750000D02*
X118000000Y-67250000D01*
X116180000Y-62800000D02*
X115000000Y-63980000D01*
X113500000Y-65837500D02*
X113500000Y-66750000D01*
X114000000Y-63980000D02*
X115000000Y-63980000D01*
X114500000Y-64480000D02*
X115000000Y-63980000D01*
X118145349Y-71250000D02*
X117500000Y-70604651D01*
X114500000Y-66604651D02*
X114500000Y-65837500D01*
X118000000Y-67250000D02*
X118912500Y-67250000D01*
D33*
X92310000Y-58250000D02*
X105787500Y-58250000D01*
D32*
X116400000Y-62800000D02*
X116180000Y-62800000D01*
X118912500Y-71250000D02*
X118145349Y-71250000D01*
X113500000Y-66750000D02*
X113750000Y-67000000D01*
X113750000Y-67000000D02*
X114895349Y-67000000D01*
X125340000Y-63800000D02*
X125340000Y-58720000D01*
D33*
X89750000Y-64440000D02*
X87935000Y-62625000D01*
D32*
X117500000Y-67000000D02*
X114895349Y-67000000D01*
D33*
X89750000Y-71520000D02*
X89750000Y-64440000D01*
D32*
X114895349Y-67000000D02*
X114500000Y-66604651D01*
X114000000Y-63980000D02*
X111517500Y-63980000D01*
X114000000Y-65837500D02*
X114000000Y-63980000D01*
X117750000Y-67250000D02*
X117500000Y-67000000D01*
%TO.N,+3.3VA*%
X108520000Y-63750000D02*
X108020000Y-64250000D01*
X111750000Y-72000000D02*
X111500000Y-72250000D01*
X111500000Y-72250000D02*
X110587500Y-72250000D01*
X116000000Y-72947674D02*
X115802326Y-72750000D01*
X113480000Y-76020000D02*
X114000000Y-75500000D01*
X109020000Y-68750000D02*
X110587500Y-68750000D01*
X107770000Y-64000000D02*
X108020000Y-64250000D01*
X114000000Y-75500000D02*
X114000000Y-74162500D01*
X111750000Y-71000000D02*
X111750000Y-72000000D01*
X112500000Y-72500000D02*
X113000000Y-73000000D01*
X109020000Y-68750000D02*
X108020000Y-67750000D01*
X105680480Y-59680480D02*
X107040000Y-61040000D01*
X113000000Y-73000000D02*
X113000000Y-74162500D01*
X115802326Y-72750000D02*
X114250000Y-72750000D01*
X112500000Y-68750000D02*
X110587500Y-68750000D01*
X110587500Y-70750000D02*
X111500000Y-70750000D01*
X113000000Y-76020000D02*
X113000000Y-74162500D01*
X107040000Y-61040000D02*
X107040000Y-64000000D01*
X109712500Y-63750000D02*
X108520000Y-63750000D01*
X108020000Y-67750000D02*
X107040000Y-67750000D01*
X104549520Y-59680480D02*
X105680480Y-59680480D01*
X111750000Y-72500000D02*
X112500000Y-72500000D01*
X107040000Y-64000000D02*
X107770000Y-64000000D01*
X111750000Y-69000000D02*
X111500000Y-68750000D01*
X111750000Y-70500000D02*
X111750000Y-69000000D01*
X104000000Y-60230000D02*
X104549520Y-59680480D01*
X114000000Y-73000000D02*
X114000000Y-74162500D01*
X114250000Y-72750000D02*
X114000000Y-73000000D01*
X111500000Y-70750000D02*
X111750000Y-71000000D01*
X112000000Y-76020000D02*
X113000000Y-76020000D01*
X111500000Y-70750000D02*
X111750000Y-70500000D01*
X116000000Y-74162500D02*
X116000000Y-72947674D01*
X113000000Y-76020000D02*
X113480000Y-76020000D01*
X111500000Y-72250000D02*
X111750000Y-72500000D01*
%TO.N,Net-(C7-Pad2)*%
X103750000Y-70250000D02*
X102845000Y-71155000D01*
X102845000Y-71155000D02*
X100885000Y-71155000D01*
X103750000Y-70250000D02*
X106040000Y-70250000D01*
%TO.N,Net-(C8-Pad2)*%
X106040000Y-75250000D02*
X105000000Y-75250000D01*
%TO.N,Net-(C9-Pad2)*%
X107020000Y-72510000D02*
X106010000Y-71500000D01*
X101402565Y-72445489D02*
X100408413Y-72445489D01*
X104250000Y-71500000D02*
X103500000Y-72250000D01*
X106010000Y-73760000D02*
X107020000Y-72750000D01*
X98345000Y-70382076D02*
X98345000Y-69885000D01*
X106010000Y-74000000D02*
X106010000Y-73760000D01*
X100408413Y-72445489D02*
X98345000Y-70382076D01*
X101598054Y-72250000D02*
X101402565Y-72445489D01*
X106010000Y-71500000D02*
X104250000Y-71500000D01*
X107020000Y-72750000D02*
X107020000Y-72510000D01*
X103500000Y-72250000D02*
X101598054Y-72250000D01*
%TO.N,Net-(C12-Pad1)*%
X123509511Y-69750489D02*
X123100000Y-70160000D01*
X125550489Y-69750489D02*
X123509511Y-69750489D01*
X126450000Y-70650000D02*
X125550489Y-69750489D01*
X123100000Y-70160000D02*
X123010000Y-70250000D01*
X126830000Y-71130000D02*
X126450000Y-70750000D01*
X123010000Y-70250000D02*
X118912500Y-70250000D01*
X126830000Y-72400000D02*
X126830000Y-71130000D01*
X126450000Y-70750000D02*
X126450000Y-70650000D01*
%TO.N,Net-(C13-Pad1)*%
X124370000Y-68170000D02*
X124750000Y-68550000D01*
X123100000Y-69140000D02*
X122610000Y-69140000D01*
X124750000Y-68550000D02*
X123690000Y-68550000D01*
X122610000Y-69140000D02*
X122000000Y-69750000D01*
X124370000Y-66900000D02*
X124370000Y-68170000D01*
X122000000Y-69750000D02*
X118912500Y-69750000D01*
X123690000Y-68550000D02*
X123100000Y-69140000D01*
%TO.N,Net-(C15-Pad1)*%
X115500000Y-74162500D02*
X115500000Y-76270000D01*
%TO.N,Net-(D1-Pad1)*%
X112200000Y-59462500D02*
X112200000Y-57725000D01*
%TO.N,/A_LED*%
X117750000Y-80250000D02*
X89750000Y-80250000D01*
X122000000Y-72000000D02*
X122750000Y-72750000D01*
X121760000Y-72000000D02*
X122000000Y-72000000D01*
X89750000Y-80250000D02*
X85750000Y-76250000D01*
X85750000Y-67350000D02*
X87935000Y-65165000D01*
X85750000Y-76250000D02*
X85750000Y-67350000D01*
X122750000Y-75250000D02*
X117750000Y-80250000D01*
X122750000Y-72750000D02*
X122750000Y-75250000D01*
%TO.N,/K_LED*%
X117149520Y-79850480D02*
X92268085Y-79850480D01*
X121760000Y-73000000D02*
X121760000Y-75240000D01*
X92268085Y-79850480D02*
X88292605Y-75875000D01*
X88292605Y-75875000D02*
X87935000Y-75875000D01*
X121760000Y-75240000D02*
X117149520Y-79850480D01*
%TO.N,Net-(R5-Pad1)*%
X109520000Y-67250000D02*
X110587500Y-67250000D01*
X107520000Y-65250000D02*
X109520000Y-67250000D01*
X107030000Y-65250000D02*
X107520000Y-65250000D01*
%TO.N,Net-(R6-Pad1)*%
X108020000Y-66500000D02*
X109270000Y-67750000D01*
X107040000Y-66500000D02*
X108020000Y-66500000D01*
X109270000Y-67750000D02*
X110587500Y-67750000D01*
%TO.N,Net-(R7-Pad1)*%
X110587500Y-69250000D02*
X108250000Y-69250000D01*
X107030000Y-69000000D02*
X108000000Y-69000000D01*
X108250000Y-69250000D02*
X108000000Y-69000000D01*
%TO.N,Net-(R8-Pad1)*%
X108000000Y-75520000D02*
X107020000Y-76500000D01*
X109000000Y-69750000D02*
X108000000Y-70750000D01*
X108000000Y-70750000D02*
X108000000Y-75520000D01*
X110587500Y-69750000D02*
X109000000Y-69750000D01*
%TO.N,Net-(R12-Pad1)*%
X120490000Y-72750000D02*
X120740000Y-73000000D01*
X118912500Y-72750000D02*
X120490000Y-72750000D01*
%TO.N,Net-(R13-Pad1)*%
X118912500Y-71750000D02*
X120490000Y-71750000D01*
X120490000Y-71750000D02*
X120740000Y-72000000D01*
%TO.N,Net-(R14-Pad1)*%
X109500000Y-71750000D02*
X109000000Y-72250000D01*
X110587500Y-71750000D02*
X109500000Y-71750000D01*
X109000000Y-72250000D02*
X109000000Y-72740000D01*
%TO.N,SCS_eth*%
X122800000Y-68000000D02*
X122800000Y-63800000D01*
X121550000Y-69250000D02*
X122800000Y-68000000D01*
X118912500Y-69250000D02*
X121550000Y-69250000D01*
%TO.N,SCLK_eth*%
X121200000Y-68200000D02*
X121200000Y-62860000D01*
X121200000Y-62860000D02*
X122800000Y-61260000D01*
X120650000Y-68750000D02*
X121200000Y-68200000D01*
X118912500Y-68750000D02*
X120650000Y-68750000D01*
%TO.N,MISO_eth*%
X120150000Y-68250000D02*
X120599520Y-67800480D01*
X120599520Y-60920480D02*
X122800000Y-58720000D01*
X120599520Y-67800480D02*
X120599520Y-60920480D01*
X118912500Y-68250000D02*
X120150000Y-68250000D01*
%TO.N,MOSI_eth*%
X120200000Y-58780000D02*
X122800000Y-56180000D01*
X120200000Y-67400000D02*
X120200000Y-58780000D01*
X118912500Y-67750000D02*
X119850000Y-67750000D01*
X119850000Y-67750000D02*
X120200000Y-67400000D01*
%TO.N,RESET_eth*%
X117500000Y-65837500D02*
X117500000Y-58940000D01*
X117500000Y-58940000D02*
X122800000Y-53640000D01*
D33*
%TO.N,Net-(C7-Pad1)*%
X107000000Y-70250000D02*
X107000000Y-71470000D01*
X107000000Y-69990000D02*
X107000000Y-70250000D01*
X107000000Y-71470000D02*
X107030000Y-71500000D01*
X106010000Y-69000000D02*
X107000000Y-69990000D01*
D32*
%TO.N,Net-(C8-Pad1)*%
X106000000Y-76500000D02*
X106000000Y-76250000D01*
X107000000Y-74030000D02*
X107030000Y-74000000D01*
X106000000Y-76250000D02*
X107000000Y-75250000D01*
X107000000Y-75250000D02*
X107000000Y-74030000D01*
%TO.N,Net-(C10-Pad2)*%
X100885000Y-66075000D02*
X100885000Y-64365000D01*
X100885000Y-64365000D02*
X104000000Y-61250000D01*
X104260000Y-61250000D02*
X105250000Y-60260000D01*
X104000000Y-61250000D02*
X104260000Y-61250000D01*
%TO.N,Net-(C11-Pad2)*%
X97195000Y-73695000D02*
X95045000Y-71545000D01*
X96550000Y-78500000D02*
X95045000Y-76995000D01*
X104775000Y-78500000D02*
X96550000Y-78500000D01*
X100885000Y-73695000D02*
X97195000Y-73695000D01*
X95045000Y-71545000D02*
X95045000Y-61505000D01*
X97585000Y-76995000D02*
X100885000Y-73695000D01*
X95045000Y-76995000D02*
X97585000Y-76995000D01*
%TO.N,Net-(C14-Pad1)*%
X116500000Y-74162500D02*
X116500000Y-76270000D01*
D33*
%TO.N,Net-(J1-Pad1)*%
X106020000Y-67750000D02*
X106020000Y-66500000D01*
X104750000Y-66500000D02*
X106020000Y-66500000D01*
D32*
%TO.N,Net-(J1-Pad3)*%
X106010000Y-64010000D02*
X106020000Y-64000000D01*
X101655000Y-67345000D02*
X98345000Y-67345000D01*
X106010000Y-65250000D02*
X106010000Y-64010000D01*
X103750000Y-65250000D02*
X101655000Y-67345000D01*
X103750000Y-65250000D02*
X106010000Y-65250000D01*
%TD*%
M02*
