M48
; DRILL file {KiCad (6.0.0)} date Mon Apr 11 12:33:12 2022
; FORMAT={-:-/ absolute / metric / decimal}
; #@! TF.CreationDate,2022-04-11T12:33:12+02:00
; #@! TF.GenerationSoftware,Kicad,Pcbnew,(6.0.0)
; #@! TF.FileFunction,Plated,1,2,PTH
FMAT,2
METRIC
; #@! TA.AperFunction,Plated,PTH,ViaDrill
T1C0.400
; #@! TA.AperFunction,Plated,PTH,ComponentDrill
T2C0.900
; #@! TA.AperFunction,Plated,PTH,ComponentDrill
T3C1.000
; #@! TA.AperFunction,Plated,PTH,ComponentDrill
T4C1.100
; #@! TA.AperFunction,Plated,PTH,ComponentDrill
T5C1.600
%
G90
G05
T1
X104.75Y-66.5
X105.0Y-72.75
X105.0Y-75.25
X106.25Y-61.25
X108.02Y-64.25
X108.75Y-71.0
X109.25Y-77.25
X109.25Y-78.5
X110.0Y-73.75
X110.75Y-65.5
X110.75Y-75.25
X111.0Y-77.0
X112.2Y-54.844
X112.5Y-67.75
X112.5Y-68.75
X114.0Y-62.0
X114.0Y-71.75
X114.0Y-76.5
X114.5Y-77.5
X115.0Y-62.0
X116.4Y-62.8
X116.5Y-64.0
X117.75Y-77.25
X121.0Y-71.0
X124.5Y-72.25
X126.5Y-67.0
T2
X98.345Y-64.805
X98.345Y-67.345
X98.345Y-69.885
X98.345Y-72.425
X100.885Y-66.075
X100.885Y-68.615
X100.885Y-71.155
X100.885Y-73.695
T3
X122.8Y-53.64
X122.8Y-56.18
X122.8Y-58.72
X122.8Y-61.26
X122.8Y-63.8
X125.34Y-53.64
X125.34Y-56.18
X125.34Y-58.72
X125.34Y-61.26
X125.34Y-63.8
T4
X87.935Y-62.625
X87.935Y-65.165
X87.935Y-73.335
X87.935Y-75.875
T5
X95.045Y-61.505
X95.045Y-76.995
T0
M30
