%TF.GenerationSoftware,KiCad,Pcbnew,(6.0.0)*%
%TF.CreationDate,2022-04-14T08:35:50+02:00*%
%TF.ProjectId,W5500_Shield_Ethernet,57353530-305f-4536-9869-656c645f4574,rev?*%
%TF.SameCoordinates,Original*%
%TF.FileFunction,Copper,L2,Bot*%
%TF.FilePolarity,Positive*%
%FSLAX46Y46*%
G04 Gerber Fmt 4.6, Leading zero omitted, Abs format (unit mm)*
G04 Created by KiCad (PCBNEW (6.0.0)) date 2022-04-14 08:35:50*
%MOMM*%
%LPD*%
G01*
G04 APERTURE LIST*
%TA.AperFunction,ComponentPad*%
%ADD10R,1.900000X1.900000*%
%TD*%
%TA.AperFunction,ComponentPad*%
%ADD11C,1.900000*%
%TD*%
%TA.AperFunction,ComponentPad*%
%ADD12C,2.100000*%
%TD*%
%TA.AperFunction,ComponentPad*%
%ADD13C,2.600000*%
%TD*%
%TA.AperFunction,ComponentPad*%
%ADD14R,1.700000X1.700000*%
%TD*%
%TA.AperFunction,ComponentPad*%
%ADD15O,1.700000X1.700000*%
%TD*%
%TA.AperFunction,ViaPad*%
%ADD16C,0.800000*%
%TD*%
%TA.AperFunction,Conductor*%
%ADD17C,0.200000*%
%TD*%
%TA.AperFunction,Conductor*%
%ADD18C,0.250000*%
%TD*%
G04 APERTURE END LIST*
D10*
%TO.P,J1,1,TD+*%
%TO.N,Net-(J1-Pad1)*%
X98345000Y-64805000D03*
D11*
%TO.P,J1,2,TCT*%
%TO.N,Net-(C10-Pad2)*%
X100885000Y-66075000D03*
%TO.P,J1,3,TD-*%
%TO.N,Net-(J1-Pad3)*%
X98345000Y-67345000D03*
%TO.P,J1,4,RD+*%
%TO.N,Net-(C8-Pad2)*%
X100885000Y-68615000D03*
%TO.P,J1,5,RCT*%
%TO.N,Net-(C9-Pad2)*%
X98345000Y-69885000D03*
%TO.P,J1,6,RD-*%
%TO.N,Net-(C7-Pad2)*%
X100885000Y-71155000D03*
%TO.P,J1,7,NC*%
%TO.N,unconnected-(J1-Pad7)*%
X98345000Y-72425000D03*
%TO.P,J1,8,GND*%
%TO.N,Net-(C11-Pad2)*%
X100885000Y-73695000D03*
D12*
%TO.P,J1,L1,LEDY_A*%
%TO.N,+3V3*%
X87935000Y-62625000D03*
%TO.P,J1,L2,LEDY_K*%
%TO.N,/A_LED*%
X87935000Y-65165000D03*
%TO.P,J1,L3,LEDG_A*%
%TO.N,+3V3*%
X87935000Y-73335000D03*
%TO.P,J1,L4,LEDG_K*%
%TO.N,/K_LED*%
X87935000Y-75875000D03*
D13*
%TO.P,J1,SH,SHIELD*%
%TO.N,Net-(C11-Pad2)*%
X95045000Y-76995000D03*
X95045000Y-61505000D03*
%TD*%
D14*
%TO.P,J2,1,Pin_1*%
%TO.N,SCS_eth*%
X122800000Y-63800000D03*
D15*
%TO.P,J2,2,Pin_2*%
%TO.N,+3V3*%
X125340000Y-63800000D03*
%TO.P,J2,3,Pin_3*%
%TO.N,SCLK_eth*%
X122800000Y-61260000D03*
%TO.P,J2,4,Pin_4*%
%TO.N,+3V3*%
X125340000Y-61260000D03*
%TO.P,J2,5,Pin_5*%
%TO.N,MISO_eth*%
X122800000Y-58720000D03*
%TO.P,J2,6,Pin_6*%
%TO.N,+3V3*%
X125340000Y-58720000D03*
%TO.P,J2,7,Pin_7*%
%TO.N,MOSI_eth*%
X122800000Y-56180000D03*
%TO.P,J2,8,Pin_8*%
%TO.N,GND*%
X125340000Y-56180000D03*
%TO.P,J2,9,Pin_9*%
%TO.N,RESET_eth*%
X122800000Y-53640000D03*
%TO.P,J2,10,Pin_10*%
%TO.N,GND*%
X125340000Y-53640000D03*
%TD*%
D16*
%TO.N,GND*%
X121000000Y-71000000D03*
X112500000Y-67750000D03*
X116500000Y-64000000D03*
X112200000Y-54843750D03*
X109250000Y-77250000D03*
X105000000Y-72750000D03*
X114000000Y-62000000D03*
X110750000Y-65500000D03*
X109250000Y-78500000D03*
X114000000Y-71750000D03*
X110000000Y-73750000D03*
X126500000Y-67000000D03*
X111000000Y-77000000D03*
X106250000Y-61250000D03*
X117750000Y-77250000D03*
X124500000Y-72250000D03*
X110750000Y-75250000D03*
X114500000Y-77500000D03*
X115000000Y-62000000D03*
X114000000Y-76500000D03*
X108750000Y-71000000D03*
%TO.N,+3V3*%
X116400000Y-62800000D03*
%TO.N,+3.3VA*%
X112500000Y-68750000D03*
X108020000Y-64250000D03*
%TO.N,Net-(C8-Pad2)*%
X105000000Y-75250000D03*
%TO.N,Net-(J1-Pad1)*%
X104750000Y-66500000D03*
%TD*%
D17*
%TO.N,+3V3*%
X125340000Y-65060000D02*
X124800000Y-65600000D01*
X119800000Y-65600000D02*
X119200000Y-65600000D01*
X119200000Y-65600000D02*
X116400000Y-62800000D01*
X124800000Y-65600000D02*
X119800000Y-65600000D01*
X125340000Y-63800000D02*
X125340000Y-65060000D01*
%TO.N,+3.3VA*%
X108020000Y-65270000D02*
X111500000Y-68750000D01*
X111500000Y-68750000D02*
X112500000Y-68750000D01*
X108020000Y-64250000D02*
X108020000Y-65270000D01*
%TO.N,Net-(C8-Pad2)*%
X105000000Y-75250000D02*
X102750000Y-73000000D01*
X102750000Y-73000000D02*
X102750000Y-70480000D01*
X102750000Y-70480000D02*
X100885000Y-68615000D01*
D18*
%TO.N,Net-(J1-Pad1)*%
X103500000Y-66500000D02*
X104750000Y-66500000D01*
X98349511Y-64800489D02*
X98345000Y-64805000D01*
X101800489Y-64800489D02*
X98349511Y-64800489D01*
X103500000Y-66500000D02*
X101800489Y-64800489D01*
%TD*%
%TA.AperFunction,Conductor*%
%TO.N,GND*%
G36*
X126170057Y-51509500D02*
G01*
X126184858Y-51511805D01*
X126184861Y-51511805D01*
X126193730Y-51513186D01*
X126202631Y-51512022D01*
X126202638Y-51512022D01*
X126207766Y-51511351D01*
X126233989Y-51510675D01*
X126392228Y-51523129D01*
X126411755Y-51526222D01*
X126589614Y-51568922D01*
X126608408Y-51575028D01*
X126777398Y-51645027D01*
X126795003Y-51653997D01*
X126911618Y-51725458D01*
X126950967Y-51749571D01*
X126966955Y-51761187D01*
X127106042Y-51879978D01*
X127120020Y-51893956D01*
X127238813Y-52033045D01*
X127250427Y-52049031D01*
X127346003Y-52204997D01*
X127354973Y-52222602D01*
X127422742Y-52386209D01*
X127424970Y-52391587D01*
X127431078Y-52410386D01*
X127454465Y-52507800D01*
X127473778Y-52588244D01*
X127476871Y-52607772D01*
X127488774Y-52759012D01*
X127488133Y-52775881D01*
X127488305Y-52775883D01*
X127488195Y-52784859D01*
X127486814Y-52793730D01*
X127487978Y-52802632D01*
X127487978Y-52802635D01*
X127490936Y-52825251D01*
X127492000Y-52841589D01*
X127492000Y-80150672D01*
X127490500Y-80170056D01*
X127486814Y-80193730D01*
X127487978Y-80202631D01*
X127487978Y-80202638D01*
X127488649Y-80207766D01*
X127489325Y-80233989D01*
X127476871Y-80392228D01*
X127473778Y-80411756D01*
X127431080Y-80589609D01*
X127424972Y-80608408D01*
X127354973Y-80777398D01*
X127346003Y-80795003D01*
X127250429Y-80950967D01*
X127238813Y-80966955D01*
X127120022Y-81106042D01*
X127106044Y-81120020D01*
X126966955Y-81238813D01*
X126950969Y-81250427D01*
X126795003Y-81346003D01*
X126777398Y-81354973D01*
X126608408Y-81424972D01*
X126589614Y-81431078D01*
X126411756Y-81473778D01*
X126392228Y-81476871D01*
X126240988Y-81488774D01*
X126224119Y-81488133D01*
X126224117Y-81488305D01*
X126215141Y-81488195D01*
X126206270Y-81486814D01*
X126197368Y-81487978D01*
X126197365Y-81487978D01*
X126174749Y-81490936D01*
X126158411Y-81492000D01*
X82849328Y-81492000D01*
X82829943Y-81490500D01*
X82815142Y-81488195D01*
X82815139Y-81488195D01*
X82806270Y-81486814D01*
X82797369Y-81487978D01*
X82797362Y-81487978D01*
X82792234Y-81488649D01*
X82766011Y-81489325D01*
X82607772Y-81476871D01*
X82588244Y-81473778D01*
X82410386Y-81431078D01*
X82391592Y-81424972D01*
X82222602Y-81354973D01*
X82204997Y-81346003D01*
X82049031Y-81250427D01*
X82033045Y-81238813D01*
X81893956Y-81120020D01*
X81879978Y-81106042D01*
X81761187Y-80966955D01*
X81749571Y-80950967D01*
X81653997Y-80795003D01*
X81645027Y-80777398D01*
X81575028Y-80608408D01*
X81568920Y-80589609D01*
X81526222Y-80411756D01*
X81523129Y-80392228D01*
X81511226Y-80240988D01*
X81511867Y-80224119D01*
X81511695Y-80224117D01*
X81511805Y-80215141D01*
X81513186Y-80206270D01*
X81511547Y-80193730D01*
X81509064Y-80174749D01*
X81508000Y-80158411D01*
X81508000Y-75875000D01*
X86371681Y-75875000D01*
X86390928Y-76119557D01*
X86392082Y-76124364D01*
X86392083Y-76124370D01*
X86406750Y-76185462D01*
X86448195Y-76358092D01*
X86542073Y-76584732D01*
X86670248Y-76793896D01*
X86673463Y-76797660D01*
X86673465Y-76797663D01*
X86805451Y-76952197D01*
X86829567Y-76980433D01*
X86833323Y-76983641D01*
X86967805Y-77098500D01*
X87016104Y-77139752D01*
X87020327Y-77142340D01*
X87020330Y-77142342D01*
X87089515Y-77184738D01*
X87225268Y-77267927D01*
X87369967Y-77327864D01*
X87447335Y-77359911D01*
X87447337Y-77359912D01*
X87451908Y-77361805D01*
X87534563Y-77381649D01*
X87685630Y-77417917D01*
X87685636Y-77417918D01*
X87690443Y-77419072D01*
X87935000Y-77438319D01*
X88179557Y-77419072D01*
X88184364Y-77417918D01*
X88184370Y-77417917D01*
X88335437Y-77381649D01*
X88418092Y-77361805D01*
X88422663Y-77359912D01*
X88422665Y-77359911D01*
X88500033Y-77327864D01*
X88644732Y-77267927D01*
X88780485Y-77184738D01*
X88849670Y-77142342D01*
X88849673Y-77142340D01*
X88853896Y-77139752D01*
X88902196Y-77098500D01*
X89036677Y-76983641D01*
X89040433Y-76980433D01*
X89064549Y-76952197D01*
X89196535Y-76797663D01*
X89196537Y-76797660D01*
X89199752Y-76793896D01*
X89327927Y-76584732D01*
X89421805Y-76358092D01*
X89463250Y-76185462D01*
X89477917Y-76124370D01*
X89477918Y-76124364D01*
X89479072Y-76119557D01*
X89498319Y-75875000D01*
X89479072Y-75630443D01*
X89476939Y-75621556D01*
X89434841Y-75446206D01*
X89421805Y-75391908D01*
X89404814Y-75350887D01*
X89350062Y-75218707D01*
X89327927Y-75165268D01*
X89287488Y-75099277D01*
X89860735Y-75099277D01*
X89861294Y-75103521D01*
X89861294Y-75103525D01*
X89868867Y-75161049D01*
X89898705Y-75387687D01*
X89975465Y-75668276D01*
X89977149Y-75672224D01*
X90061538Y-75870070D01*
X90089596Y-75935852D01*
X90238985Y-76185462D01*
X90420867Y-76412489D01*
X90631878Y-76612731D01*
X90868113Y-76782483D01*
X91125200Y-76918603D01*
X91129223Y-76920075D01*
X91129227Y-76920077D01*
X91325358Y-76991851D01*
X91398382Y-77018574D01*
X91682604Y-77080544D01*
X91711650Y-77082830D01*
X91908297Y-77098307D01*
X91908304Y-77098307D01*
X91910753Y-77098500D01*
X92068121Y-77098500D01*
X92070257Y-77098354D01*
X92070268Y-77098354D01*
X92280949Y-77083991D01*
X92280955Y-77083990D01*
X92285226Y-77083699D01*
X92289421Y-77082830D01*
X92289423Y-77082830D01*
X92427654Y-77054204D01*
X92570081Y-77024709D01*
X92844295Y-76927605D01*
X93048994Y-76821952D01*
X93118700Y-76808483D01*
X93184624Y-76834838D01*
X93225833Y-76892651D01*
X93231169Y-76938162D01*
X93232641Y-76938201D01*
X93232518Y-76942874D01*
X93232050Y-76947526D01*
X93232274Y-76952192D01*
X93232274Y-76952197D01*
X93235689Y-77023279D01*
X93244947Y-77216019D01*
X93297388Y-77479656D01*
X93388220Y-77732646D01*
X93515450Y-77969431D01*
X93518241Y-77973168D01*
X93518245Y-77973175D01*
X93599887Y-78082506D01*
X93676281Y-78184810D01*
X93679590Y-78188090D01*
X93679595Y-78188096D01*
X93863863Y-78370762D01*
X93867180Y-78374050D01*
X93870942Y-78376808D01*
X93870945Y-78376811D01*
X93983299Y-78459192D01*
X94083954Y-78532995D01*
X94088089Y-78535171D01*
X94088093Y-78535173D01*
X94317698Y-78655975D01*
X94321840Y-78658154D01*
X94575613Y-78746775D01*
X94580206Y-78747647D01*
X94835109Y-78796042D01*
X94835112Y-78796042D01*
X94839698Y-78796913D01*
X94967370Y-78801929D01*
X95103625Y-78807283D01*
X95103630Y-78807283D01*
X95108293Y-78807466D01*
X95212607Y-78796042D01*
X95370844Y-78778713D01*
X95370850Y-78778712D01*
X95375497Y-78778203D01*
X95380021Y-78777012D01*
X95630918Y-78710956D01*
X95630920Y-78710955D01*
X95635441Y-78709765D01*
X95639738Y-78707919D01*
X95878120Y-78605502D01*
X95878122Y-78605501D01*
X95882414Y-78603657D01*
X96001071Y-78530230D01*
X96107017Y-78464669D01*
X96107021Y-78464666D01*
X96110990Y-78462210D01*
X96316149Y-78288530D01*
X96493382Y-78086434D01*
X96638797Y-77860361D01*
X96749199Y-77615278D01*
X96786209Y-77484051D01*
X96820893Y-77361072D01*
X96820894Y-77361069D01*
X96822163Y-77356568D01*
X96840043Y-77216019D01*
X96855688Y-77093045D01*
X96855688Y-77093041D01*
X96856086Y-77089915D01*
X96856272Y-77082830D01*
X96858488Y-76998160D01*
X96858571Y-76995000D01*
X96838650Y-76726937D01*
X96813374Y-76615231D01*
X96780361Y-76469331D01*
X96780360Y-76469326D01*
X96779327Y-76464763D01*
X96681902Y-76214238D01*
X96548518Y-75980864D01*
X96510588Y-75932749D01*
X96465062Y-75875000D01*
X96382105Y-75769769D01*
X96186317Y-75585591D01*
X95965457Y-75432374D01*
X95961264Y-75430306D01*
X95728564Y-75315551D01*
X95728561Y-75315550D01*
X95724376Y-75313486D01*
X95676745Y-75298239D01*
X95505536Y-75243435D01*
X95468370Y-75231538D01*
X95463763Y-75230788D01*
X95463760Y-75230787D01*
X95207674Y-75189081D01*
X95207675Y-75189081D01*
X95203063Y-75188330D01*
X95072719Y-75186624D01*
X94938961Y-75184873D01*
X94938958Y-75184873D01*
X94934284Y-75184812D01*
X94667937Y-75221060D01*
X94409874Y-75296278D01*
X94405621Y-75298238D01*
X94405620Y-75298239D01*
X94291418Y-75350887D01*
X94221181Y-75361242D01*
X94156495Y-75331979D01*
X94117898Y-75272391D01*
X94113924Y-75218707D01*
X94116291Y-75202081D01*
X94127742Y-75121619D01*
X94128952Y-74890523D01*
X94129243Y-74835009D01*
X94129243Y-74835003D01*
X94129265Y-74830723D01*
X94126908Y-74812815D01*
X94105100Y-74647171D01*
X94091295Y-74542313D01*
X94014535Y-74261724D01*
X94000491Y-74228799D01*
X93902090Y-73998100D01*
X93902088Y-73998096D01*
X93900404Y-73994148D01*
X93751015Y-73744538D01*
X93736337Y-73726216D01*
X93651661Y-73620523D01*
X93569133Y-73517511D01*
X93376807Y-73335000D01*
X93361231Y-73320219D01*
X93361228Y-73320217D01*
X93358122Y-73317269D01*
X93121887Y-73147517D01*
X92864800Y-73011397D01*
X92860777Y-73009925D01*
X92860773Y-73009923D01*
X92595649Y-72912901D01*
X92595647Y-72912900D01*
X92591618Y-72911426D01*
X92307396Y-72849456D01*
X92263598Y-72846009D01*
X92081703Y-72831693D01*
X92081696Y-72831693D01*
X92079247Y-72831500D01*
X91921879Y-72831500D01*
X91919743Y-72831646D01*
X91919732Y-72831646D01*
X91709051Y-72846009D01*
X91709045Y-72846010D01*
X91704774Y-72846301D01*
X91700579Y-72847170D01*
X91700577Y-72847170D01*
X91654462Y-72856720D01*
X91419919Y-72905291D01*
X91145705Y-73002395D01*
X91141896Y-73004361D01*
X90995219Y-73080067D01*
X90887207Y-73135816D01*
X90883706Y-73138277D01*
X90883702Y-73138279D01*
X90870558Y-73147517D01*
X90649208Y-73303085D01*
X90646067Y-73306004D01*
X90465354Y-73473933D01*
X90436112Y-73501106D01*
X90433398Y-73504422D01*
X90433395Y-73504425D01*
X90338370Y-73620523D01*
X90251861Y-73726216D01*
X90099867Y-73974248D01*
X90098148Y-73978165D01*
X90098146Y-73978168D01*
X90084515Y-74009220D01*
X89982941Y-74240614D01*
X89981765Y-74244742D01*
X89981764Y-74244745D01*
X89964715Y-74304595D01*
X89903246Y-74520384D01*
X89902642Y-74524626D01*
X89902641Y-74524632D01*
X89877567Y-74700811D01*
X89862258Y-74808381D01*
X89860735Y-75099277D01*
X89287488Y-75099277D01*
X89199752Y-74956104D01*
X89193757Y-74949084D01*
X89043641Y-74773323D01*
X89040433Y-74769567D01*
X89010420Y-74743933D01*
X88959931Y-74700811D01*
X88921122Y-74641360D01*
X88920616Y-74570365D01*
X88959931Y-74509189D01*
X89036677Y-74443641D01*
X89040433Y-74440433D01*
X89123759Y-74342872D01*
X89196535Y-74257663D01*
X89196537Y-74257660D01*
X89199752Y-74253896D01*
X89212098Y-74233750D01*
X89271113Y-74137445D01*
X89327927Y-74044732D01*
X89390561Y-73893521D01*
X89419911Y-73822665D01*
X89419912Y-73822663D01*
X89421805Y-73818092D01*
X89479072Y-73579557D01*
X89498319Y-73335000D01*
X89479072Y-73090443D01*
X89477732Y-73084859D01*
X89436094Y-72911426D01*
X89421805Y-72851908D01*
X89419843Y-72847170D01*
X89368220Y-72722544D01*
X89327927Y-72625268D01*
X89224566Y-72456597D01*
X89202342Y-72420330D01*
X89202340Y-72420327D01*
X89199752Y-72416104D01*
X89181657Y-72394917D01*
X89176812Y-72389244D01*
X96881938Y-72389244D01*
X96882235Y-72394396D01*
X96882235Y-72394400D01*
X96884338Y-72430873D01*
X96895744Y-72628680D01*
X96896879Y-72633717D01*
X96896880Y-72633723D01*
X96947331Y-72857592D01*
X96948470Y-72862646D01*
X97038702Y-73084859D01*
X97164014Y-73289351D01*
X97321043Y-73470630D01*
X97505571Y-73623828D01*
X97712643Y-73744831D01*
X97717468Y-73746673D01*
X97717469Y-73746674D01*
X97760595Y-73763142D01*
X97936697Y-73830389D01*
X97941763Y-73831420D01*
X97941764Y-73831420D01*
X97998039Y-73842869D01*
X98171716Y-73878204D01*
X98307264Y-73883174D01*
X98406225Y-73886803D01*
X98406229Y-73886803D01*
X98411389Y-73886992D01*
X98416509Y-73886336D01*
X98416511Y-73886336D01*
X98644151Y-73857175D01*
X98644152Y-73857175D01*
X98649279Y-73856518D01*
X98732935Y-73831420D01*
X98874042Y-73789086D01*
X98874047Y-73789084D01*
X98878997Y-73787599D01*
X99094374Y-73682087D01*
X99098579Y-73679087D01*
X99098585Y-73679084D01*
X99224443Y-73589310D01*
X99291516Y-73566037D01*
X99360525Y-73582720D01*
X99409559Y-73634064D01*
X99423402Y-73684636D01*
X99435744Y-73898680D01*
X99436879Y-73903717D01*
X99436880Y-73903723D01*
X99457258Y-73994148D01*
X99488470Y-74132646D01*
X99490419Y-74137445D01*
X99573835Y-74342872D01*
X99578702Y-74354859D01*
X99704014Y-74559351D01*
X99707398Y-74563257D01*
X99707399Y-74563259D01*
X99714221Y-74571134D01*
X99861043Y-74740630D01*
X100045571Y-74893828D01*
X100252643Y-75014831D01*
X100476697Y-75100389D01*
X100481763Y-75101420D01*
X100481764Y-75101420D01*
X100492111Y-75103525D01*
X100711716Y-75148204D01*
X100847264Y-75153174D01*
X100946225Y-75156803D01*
X100946229Y-75156803D01*
X100951389Y-75156992D01*
X100956509Y-75156336D01*
X100956511Y-75156336D01*
X101184151Y-75127175D01*
X101184152Y-75127175D01*
X101189279Y-75126518D01*
X101205608Y-75121619D01*
X101414042Y-75059086D01*
X101414047Y-75059084D01*
X101418997Y-75057599D01*
X101634374Y-74952087D01*
X101638579Y-74949087D01*
X101638585Y-74949084D01*
X101737618Y-74878444D01*
X101829627Y-74812815D01*
X101999511Y-74643523D01*
X102023422Y-74610248D01*
X102136445Y-74452958D01*
X102139463Y-74448758D01*
X102143578Y-74440433D01*
X102243433Y-74238392D01*
X102243434Y-74238390D01*
X102245727Y-74233750D01*
X102315447Y-74004274D01*
X102346752Y-73766492D01*
X102346946Y-73758563D01*
X102368609Y-73690952D01*
X102423387Y-73645786D01*
X102493887Y-73637406D01*
X102562003Y-73672552D01*
X104050281Y-75160830D01*
X104084307Y-75223142D01*
X104086841Y-75246716D01*
X104086496Y-75250000D01*
X104087186Y-75256565D01*
X104105447Y-75430306D01*
X104106458Y-75439928D01*
X104165473Y-75621556D01*
X104168776Y-75627278D01*
X104168777Y-75627279D01*
X104190057Y-75664137D01*
X104260960Y-75786944D01*
X104388747Y-75928866D01*
X104543248Y-76041118D01*
X104549276Y-76043802D01*
X104549278Y-76043803D01*
X104711681Y-76116109D01*
X104717712Y-76118794D01*
X104811112Y-76138647D01*
X104898056Y-76157128D01*
X104898061Y-76157128D01*
X104904513Y-76158500D01*
X105095487Y-76158500D01*
X105101939Y-76157128D01*
X105101944Y-76157128D01*
X105188888Y-76138647D01*
X105282288Y-76118794D01*
X105288319Y-76116109D01*
X105450722Y-76043803D01*
X105450724Y-76043802D01*
X105456752Y-76041118D01*
X105611253Y-75928866D01*
X105739040Y-75786944D01*
X105809943Y-75664137D01*
X105831223Y-75627279D01*
X105831224Y-75627278D01*
X105834527Y-75621556D01*
X105893542Y-75439928D01*
X105894554Y-75430306D01*
X105912814Y-75256565D01*
X105913504Y-75250000D01*
X105905079Y-75169839D01*
X105894232Y-75066635D01*
X105894232Y-75066633D01*
X105893542Y-75060072D01*
X105834527Y-74878444D01*
X105739040Y-74713056D01*
X105611253Y-74571134D01*
X105456752Y-74458882D01*
X105450724Y-74456198D01*
X105450722Y-74456197D01*
X105288319Y-74383891D01*
X105288318Y-74383891D01*
X105282288Y-74381206D01*
X105188888Y-74361353D01*
X105101944Y-74342872D01*
X105101939Y-74342872D01*
X105095487Y-74341500D01*
X105004239Y-74341500D01*
X104936118Y-74321498D01*
X104915144Y-74304595D01*
X103395405Y-72784856D01*
X103361379Y-72722544D01*
X103358500Y-72695761D01*
X103358500Y-70528136D01*
X103359578Y-70511690D01*
X103362672Y-70488188D01*
X103363750Y-70480000D01*
X103358500Y-70440122D01*
X103358500Y-70440115D01*
X103342838Y-70321150D01*
X103281524Y-70173125D01*
X103276497Y-70166574D01*
X103276495Y-70166570D01*
X103261722Y-70147318D01*
X103208483Y-70077936D01*
X103208477Y-70077928D01*
X103208474Y-70077925D01*
X103183987Y-70046013D01*
X103177432Y-70040983D01*
X103158621Y-70026548D01*
X103146230Y-70015681D01*
X102308143Y-69177594D01*
X102274117Y-69115282D01*
X102276680Y-69051870D01*
X102308036Y-68948668D01*
X102315447Y-68924274D01*
X102346752Y-68686492D01*
X102347252Y-68666021D01*
X102348417Y-68618365D01*
X102348417Y-68618361D01*
X102348499Y-68615000D01*
X102335987Y-68462815D01*
X102329271Y-68381124D01*
X102329270Y-68381118D01*
X102328847Y-68375973D01*
X102270420Y-68143364D01*
X102268364Y-68138634D01*
X102268361Y-68138627D01*
X102176847Y-67928159D01*
X102176845Y-67928156D01*
X102174787Y-67923422D01*
X102149214Y-67883891D01*
X102047325Y-67726396D01*
X102047323Y-67726393D01*
X102044515Y-67722053D01*
X101886758Y-67548680D01*
X101886582Y-67548487D01*
X101886580Y-67548486D01*
X101883104Y-67544665D01*
X101879053Y-67541466D01*
X101879049Y-67541462D01*
X101755333Y-67443757D01*
X101714270Y-67385840D01*
X101711038Y-67314917D01*
X101746664Y-67253505D01*
X101760257Y-67242296D01*
X101825423Y-67195814D01*
X101825425Y-67195812D01*
X101829627Y-67192815D01*
X101999511Y-67023523D01*
X102008396Y-67011159D01*
X102136445Y-66832958D01*
X102139463Y-66828758D01*
X102208078Y-66689928D01*
X102243433Y-66618392D01*
X102243434Y-66618390D01*
X102245727Y-66613750D01*
X102247234Y-66608791D01*
X102294663Y-66452686D01*
X102333604Y-66393322D01*
X102398458Y-66364435D01*
X102468634Y-66375196D01*
X102504316Y-66400220D01*
X102996343Y-66892247D01*
X103003887Y-66900537D01*
X103008000Y-66907018D01*
X103013777Y-66912443D01*
X103057667Y-66953658D01*
X103060509Y-66956413D01*
X103080231Y-66976135D01*
X103083355Y-66978558D01*
X103083359Y-66978562D01*
X103083424Y-66978612D01*
X103092445Y-66986317D01*
X103124679Y-67016586D01*
X103131627Y-67020405D01*
X103131629Y-67020407D01*
X103142432Y-67026346D01*
X103158959Y-67037202D01*
X103168698Y-67044757D01*
X103168700Y-67044758D01*
X103174960Y-67049614D01*
X103215540Y-67067174D01*
X103226188Y-67072391D01*
X103264940Y-67093695D01*
X103272616Y-67095666D01*
X103272619Y-67095667D01*
X103284562Y-67098733D01*
X103303267Y-67105137D01*
X103321855Y-67113181D01*
X103329678Y-67114420D01*
X103329688Y-67114423D01*
X103365524Y-67120099D01*
X103377144Y-67122505D01*
X103412289Y-67131528D01*
X103419970Y-67133500D01*
X103440224Y-67133500D01*
X103459934Y-67135051D01*
X103479943Y-67138220D01*
X103487835Y-67137474D01*
X103523961Y-67134059D01*
X103535819Y-67133500D01*
X104041800Y-67133500D01*
X104109921Y-67153502D01*
X104129147Y-67169843D01*
X104129420Y-67169540D01*
X104134332Y-67173963D01*
X104138747Y-67178866D01*
X104152931Y-67189171D01*
X104278327Y-67280277D01*
X104293248Y-67291118D01*
X104299276Y-67293802D01*
X104299278Y-67293803D01*
X104461681Y-67366109D01*
X104467712Y-67368794D01*
X104547907Y-67385840D01*
X104648056Y-67407128D01*
X104648061Y-67407128D01*
X104654513Y-67408500D01*
X104845487Y-67408500D01*
X104851939Y-67407128D01*
X104851944Y-67407128D01*
X104952093Y-67385840D01*
X105032288Y-67368794D01*
X105038319Y-67366109D01*
X105200722Y-67293803D01*
X105200724Y-67293802D01*
X105206752Y-67291118D01*
X105221674Y-67280277D01*
X105337926Y-67195814D01*
X105361253Y-67178866D01*
X105397851Y-67138220D01*
X105484621Y-67041852D01*
X105484622Y-67041851D01*
X105489040Y-67036944D01*
X105564053Y-66907018D01*
X105581223Y-66877279D01*
X105581224Y-66877278D01*
X105584527Y-66871556D01*
X105643542Y-66689928D01*
X105647428Y-66652960D01*
X105662814Y-66506565D01*
X105663504Y-66500000D01*
X105643542Y-66310072D01*
X105584527Y-66128444D01*
X105574503Y-66111081D01*
X105526210Y-66027437D01*
X105489040Y-65963056D01*
X105361253Y-65821134D01*
X105241763Y-65734319D01*
X105212094Y-65712763D01*
X105212093Y-65712762D01*
X105206752Y-65708882D01*
X105200724Y-65706198D01*
X105200722Y-65706197D01*
X105038319Y-65633891D01*
X105038318Y-65633891D01*
X105032288Y-65631206D01*
X104938888Y-65611353D01*
X104851944Y-65592872D01*
X104851939Y-65592872D01*
X104845487Y-65591500D01*
X104654513Y-65591500D01*
X104648061Y-65592872D01*
X104648056Y-65592872D01*
X104561112Y-65611353D01*
X104467712Y-65631206D01*
X104461682Y-65633891D01*
X104461681Y-65633891D01*
X104299278Y-65706197D01*
X104299276Y-65706198D01*
X104293248Y-65708882D01*
X104287907Y-65712762D01*
X104287906Y-65712763D01*
X104258237Y-65734319D01*
X104138747Y-65821134D01*
X104134332Y-65826037D01*
X104129420Y-65830460D01*
X104128295Y-65829211D01*
X104074986Y-65862051D01*
X104041800Y-65866500D01*
X103814594Y-65866500D01*
X103746473Y-65846498D01*
X103725499Y-65829595D01*
X102304141Y-64408236D01*
X102296601Y-64399950D01*
X102292489Y-64393471D01*
X102242837Y-64346845D01*
X102239996Y-64344091D01*
X102220259Y-64324354D01*
X102217062Y-64321874D01*
X102208040Y-64314169D01*
X102194880Y-64301811D01*
X102175810Y-64283903D01*
X102168864Y-64280084D01*
X102168861Y-64280082D01*
X102158055Y-64274141D01*
X102141536Y-64263290D01*
X102141072Y-64262930D01*
X102125530Y-64250875D01*
X102123508Y-64250000D01*
X107106496Y-64250000D01*
X107107186Y-64256565D01*
X107114606Y-64327158D01*
X107126458Y-64439928D01*
X107185473Y-64621556D01*
X107280960Y-64786944D01*
X107285378Y-64791851D01*
X107285379Y-64791852D01*
X107379136Y-64895980D01*
X107409854Y-64959987D01*
X107411500Y-64980290D01*
X107411500Y-65221864D01*
X107410422Y-65238307D01*
X107406250Y-65270000D01*
X107411500Y-65309880D01*
X107411500Y-65309885D01*
X107421181Y-65383422D01*
X107427162Y-65428851D01*
X107488476Y-65576876D01*
X107493503Y-65583427D01*
X107493504Y-65583429D01*
X107561520Y-65672069D01*
X107561526Y-65672075D01*
X107586013Y-65703987D01*
X107592568Y-65709017D01*
X107611379Y-65723452D01*
X107623770Y-65734319D01*
X111035685Y-69146234D01*
X111046552Y-69158625D01*
X111066013Y-69183987D01*
X111097925Y-69208474D01*
X111097928Y-69208477D01*
X111193124Y-69281524D01*
X111200754Y-69284684D01*
X111200755Y-69284685D01*
X111225439Y-69294909D01*
X111341150Y-69342838D01*
X111460115Y-69358500D01*
X111460120Y-69358500D01*
X111460129Y-69358501D01*
X111491812Y-69362672D01*
X111500000Y-69363750D01*
X111531693Y-69359578D01*
X111548136Y-69358500D01*
X111769290Y-69358500D01*
X111837411Y-69378502D01*
X111862926Y-69400189D01*
X111888747Y-69428866D01*
X112043248Y-69541118D01*
X112049276Y-69543802D01*
X112049278Y-69543803D01*
X112199685Y-69610768D01*
X112217712Y-69618794D01*
X112311113Y-69638647D01*
X112398056Y-69657128D01*
X112398061Y-69657128D01*
X112404513Y-69658500D01*
X112595487Y-69658500D01*
X112601939Y-69657128D01*
X112601944Y-69657128D01*
X112688887Y-69638647D01*
X112782288Y-69618794D01*
X112800315Y-69610768D01*
X112950722Y-69543803D01*
X112950724Y-69543802D01*
X112956752Y-69541118D01*
X113111253Y-69428866D01*
X113239040Y-69286944D01*
X113334527Y-69121556D01*
X113393542Y-68939928D01*
X113395727Y-68919144D01*
X113412814Y-68756565D01*
X113413504Y-68750000D01*
X113395557Y-68579244D01*
X113394232Y-68566635D01*
X113394232Y-68566633D01*
X113393542Y-68560072D01*
X113334527Y-68378444D01*
X113239040Y-68213056D01*
X113111253Y-68071134D01*
X112956752Y-67958882D01*
X112950724Y-67956198D01*
X112950722Y-67956197D01*
X112788319Y-67883891D01*
X112788318Y-67883891D01*
X112782288Y-67881206D01*
X112688887Y-67861353D01*
X112601944Y-67842872D01*
X112601939Y-67842872D01*
X112595487Y-67841500D01*
X112404513Y-67841500D01*
X112398061Y-67842872D01*
X112398056Y-67842872D01*
X112311113Y-67861353D01*
X112217712Y-67881206D01*
X112211682Y-67883891D01*
X112211681Y-67883891D01*
X112049278Y-67956197D01*
X112049276Y-67956198D01*
X112043248Y-67958882D01*
X111888747Y-68071134D01*
X111884333Y-68076037D01*
X111884330Y-68076039D01*
X111879487Y-68081418D01*
X111819042Y-68118659D01*
X111748058Y-68117309D01*
X111696754Y-68086205D01*
X108672289Y-65061740D01*
X108638263Y-64999428D01*
X108643328Y-64928613D01*
X108667747Y-64888335D01*
X108759040Y-64786944D01*
X108854527Y-64621556D01*
X108913542Y-64439928D01*
X108925395Y-64327158D01*
X108932814Y-64256565D01*
X108933504Y-64250000D01*
X108916485Y-64088069D01*
X108914232Y-64066635D01*
X108914232Y-64066633D01*
X108913542Y-64060072D01*
X108854527Y-63878444D01*
X108759040Y-63713056D01*
X108753703Y-63707128D01*
X108635675Y-63576045D01*
X108635674Y-63576044D01*
X108631253Y-63571134D01*
X108476752Y-63458882D01*
X108470724Y-63456198D01*
X108470722Y-63456197D01*
X108308319Y-63383891D01*
X108308318Y-63383891D01*
X108302288Y-63381206D01*
X108205825Y-63360702D01*
X108121944Y-63342872D01*
X108121939Y-63342872D01*
X108115487Y-63341500D01*
X107924513Y-63341500D01*
X107918061Y-63342872D01*
X107918056Y-63342872D01*
X107834175Y-63360702D01*
X107737712Y-63381206D01*
X107731682Y-63383891D01*
X107731681Y-63383891D01*
X107569278Y-63456197D01*
X107569276Y-63456198D01*
X107563248Y-63458882D01*
X107408747Y-63571134D01*
X107404326Y-63576044D01*
X107404325Y-63576045D01*
X107286298Y-63707128D01*
X107280960Y-63713056D01*
X107185473Y-63878444D01*
X107126458Y-64060072D01*
X107125768Y-64066633D01*
X107125768Y-64066635D01*
X107123515Y-64088069D01*
X107106496Y-64250000D01*
X102123508Y-64250000D01*
X102118261Y-64247730D01*
X102118257Y-64247727D01*
X102084952Y-64233315D01*
X102074302Y-64228098D01*
X102035549Y-64206794D01*
X102015926Y-64201756D01*
X101997223Y-64195352D01*
X101985909Y-64190456D01*
X101985908Y-64190456D01*
X101978634Y-64187308D01*
X101970811Y-64186069D01*
X101970801Y-64186066D01*
X101934965Y-64180390D01*
X101923345Y-64177984D01*
X101888200Y-64168961D01*
X101888199Y-64168961D01*
X101880519Y-64166989D01*
X101860265Y-64166989D01*
X101840554Y-64165438D01*
X101828375Y-64163509D01*
X101820546Y-64162269D01*
X101812654Y-64163015D01*
X101776528Y-64166430D01*
X101764670Y-64166989D01*
X99929500Y-64166989D01*
X99861379Y-64146987D01*
X99814886Y-64093331D01*
X99803500Y-64040989D01*
X99803500Y-63806866D01*
X99796745Y-63744684D01*
X99745615Y-63608295D01*
X99658261Y-63491739D01*
X99541705Y-63404385D01*
X99405316Y-63353255D01*
X99343134Y-63346500D01*
X97346866Y-63346500D01*
X97284684Y-63353255D01*
X97148295Y-63404385D01*
X97031739Y-63491739D01*
X96944385Y-63608295D01*
X96893255Y-63744684D01*
X96886500Y-63806866D01*
X96886500Y-65803134D01*
X96893255Y-65865316D01*
X96944385Y-66001705D01*
X97031739Y-66118261D01*
X97148295Y-66205615D01*
X97156704Y-66208767D01*
X97156705Y-66208768D01*
X97166876Y-66212581D01*
X97223641Y-66255222D01*
X97248341Y-66321784D01*
X97233134Y-66391132D01*
X97213741Y-66417614D01*
X97207648Y-66423990D01*
X97204734Y-66428262D01*
X97204733Y-66428263D01*
X97151319Y-66506565D01*
X97072495Y-66622117D01*
X96971516Y-66839656D01*
X96955199Y-66898495D01*
X96916733Y-67037202D01*
X96907424Y-67070768D01*
X96881938Y-67309244D01*
X96882235Y-67314396D01*
X96882235Y-67314400D01*
X96884338Y-67350873D01*
X96895744Y-67548680D01*
X96896879Y-67553717D01*
X96896880Y-67553723D01*
X96947331Y-67777592D01*
X96948470Y-67782646D01*
X96987934Y-67879834D01*
X97020033Y-67958882D01*
X97038702Y-68004859D01*
X97164014Y-68209351D01*
X97321043Y-68390630D01*
X97476109Y-68519368D01*
X97515742Y-68578268D01*
X97517240Y-68649249D01*
X97480126Y-68709772D01*
X97471275Y-68717070D01*
X97418673Y-68756565D01*
X97373345Y-68790598D01*
X97207648Y-68963990D01*
X97072495Y-69162117D01*
X96971516Y-69379656D01*
X96907424Y-69610768D01*
X96881938Y-69849244D01*
X96882235Y-69854396D01*
X96882235Y-69854400D01*
X96884338Y-69890873D01*
X96895744Y-70088680D01*
X96896879Y-70093717D01*
X96896880Y-70093723D01*
X96913297Y-70166570D01*
X96948470Y-70322646D01*
X97038702Y-70544859D01*
X97164014Y-70749351D01*
X97321043Y-70930630D01*
X97476109Y-71059368D01*
X97515742Y-71118268D01*
X97517240Y-71189249D01*
X97480126Y-71249772D01*
X97471276Y-71257069D01*
X97373345Y-71330598D01*
X97207648Y-71503990D01*
X97072495Y-71702117D01*
X96971516Y-71919656D01*
X96907424Y-72150768D01*
X96881938Y-72389244D01*
X89176812Y-72389244D01*
X89043641Y-72233323D01*
X89040433Y-72229567D01*
X89036677Y-72226359D01*
X88857663Y-72073465D01*
X88857660Y-72073463D01*
X88853896Y-72070248D01*
X88849673Y-72067660D01*
X88849670Y-72067658D01*
X88780485Y-72025262D01*
X88644732Y-71942073D01*
X88500033Y-71882136D01*
X88422665Y-71850089D01*
X88422663Y-71850088D01*
X88418092Y-71848195D01*
X88335437Y-71828351D01*
X88184370Y-71792083D01*
X88184364Y-71792082D01*
X88179557Y-71790928D01*
X87935000Y-71771681D01*
X87690443Y-71790928D01*
X87685636Y-71792082D01*
X87685630Y-71792083D01*
X87534563Y-71828351D01*
X87451908Y-71848195D01*
X87447337Y-71850088D01*
X87447335Y-71850089D01*
X87369967Y-71882136D01*
X87225268Y-71942073D01*
X87089515Y-72025262D01*
X87020330Y-72067658D01*
X87020327Y-72067660D01*
X87016104Y-72070248D01*
X87012340Y-72073463D01*
X87012337Y-72073465D01*
X86833323Y-72226359D01*
X86829567Y-72229567D01*
X86826359Y-72233323D01*
X86688344Y-72394917D01*
X86670248Y-72416104D01*
X86667660Y-72420327D01*
X86667658Y-72420330D01*
X86645434Y-72456597D01*
X86542073Y-72625268D01*
X86501780Y-72722544D01*
X86450158Y-72847170D01*
X86448195Y-72851908D01*
X86433906Y-72911426D01*
X86392269Y-73084859D01*
X86390928Y-73090443D01*
X86371681Y-73335000D01*
X86390928Y-73579557D01*
X86448195Y-73818092D01*
X86450088Y-73822663D01*
X86450089Y-73822665D01*
X86479439Y-73893521D01*
X86542073Y-74044732D01*
X86598887Y-74137445D01*
X86657903Y-74233750D01*
X86670248Y-74253896D01*
X86673463Y-74257660D01*
X86673465Y-74257663D01*
X86746241Y-74342872D01*
X86829567Y-74440433D01*
X86833323Y-74443641D01*
X86910069Y-74509189D01*
X86948878Y-74568640D01*
X86949384Y-74639635D01*
X86910069Y-74700811D01*
X86859580Y-74743933D01*
X86829567Y-74769567D01*
X86826359Y-74773323D01*
X86676244Y-74949084D01*
X86670248Y-74956104D01*
X86542073Y-75165268D01*
X86519938Y-75218707D01*
X86465187Y-75350887D01*
X86448195Y-75391908D01*
X86435159Y-75446206D01*
X86393062Y-75621556D01*
X86390928Y-75630443D01*
X86371681Y-75875000D01*
X81508000Y-75875000D01*
X81508000Y-65165000D01*
X86371681Y-65165000D01*
X86390928Y-65409557D01*
X86392082Y-65414364D01*
X86392083Y-65414370D01*
X86418479Y-65524315D01*
X86448195Y-65648092D01*
X86450088Y-65652663D01*
X86450089Y-65652665D01*
X86450638Y-65653991D01*
X86542073Y-65874732D01*
X86670248Y-66083896D01*
X86673463Y-66087660D01*
X86673465Y-66087663D01*
X86776900Y-66208768D01*
X86829567Y-66270433D01*
X86833323Y-66273641D01*
X87009358Y-66423990D01*
X87016104Y-66429752D01*
X87020327Y-66432340D01*
X87020330Y-66432342D01*
X87053529Y-66452686D01*
X87225268Y-66557927D01*
X87348064Y-66608791D01*
X87447335Y-66649911D01*
X87447337Y-66649912D01*
X87451908Y-66651805D01*
X87534563Y-66671649D01*
X87685630Y-66707917D01*
X87685636Y-66707918D01*
X87690443Y-66709072D01*
X87935000Y-66728319D01*
X88179557Y-66709072D01*
X88184364Y-66707918D01*
X88184370Y-66707917D01*
X88335437Y-66671649D01*
X88418092Y-66651805D01*
X88422663Y-66649912D01*
X88422665Y-66649911D01*
X88521936Y-66608791D01*
X88644732Y-66557927D01*
X88816471Y-66452686D01*
X88849670Y-66432342D01*
X88849673Y-66432340D01*
X88853896Y-66429752D01*
X88860643Y-66423990D01*
X89036677Y-66273641D01*
X89040433Y-66270433D01*
X89093100Y-66208768D01*
X89196535Y-66087663D01*
X89196537Y-66087660D01*
X89199752Y-66083896D01*
X89327927Y-65874732D01*
X89419362Y-65653991D01*
X89419911Y-65652665D01*
X89419912Y-65652663D01*
X89421805Y-65648092D01*
X89451521Y-65524315D01*
X89477917Y-65414370D01*
X89477918Y-65414364D01*
X89479072Y-65409557D01*
X89498319Y-65165000D01*
X89479072Y-64920443D01*
X89476156Y-64908293D01*
X89426516Y-64701531D01*
X89421805Y-64681908D01*
X89327927Y-64455268D01*
X89207891Y-64259386D01*
X89202342Y-64250330D01*
X89202340Y-64250327D01*
X89199752Y-64246104D01*
X89193067Y-64238276D01*
X89043641Y-64063323D01*
X89040433Y-64059567D01*
X88959931Y-63990811D01*
X88921122Y-63931360D01*
X88920616Y-63860365D01*
X88959931Y-63799189D01*
X89036677Y-63733641D01*
X89040433Y-63730433D01*
X89050391Y-63718774D01*
X89092666Y-63669277D01*
X89860735Y-63669277D01*
X89861294Y-63673521D01*
X89861294Y-63673525D01*
X89870757Y-63745405D01*
X89898705Y-63957687D01*
X89975465Y-64238276D01*
X89977149Y-64242224D01*
X90069970Y-64459839D01*
X90089596Y-64505852D01*
X90238985Y-64755462D01*
X90241669Y-64758813D01*
X90241671Y-64758815D01*
X90253787Y-64773938D01*
X90420867Y-64982489D01*
X90519251Y-65075852D01*
X90618389Y-65169930D01*
X90631878Y-65182731D01*
X90868113Y-65352483D01*
X90893924Y-65366149D01*
X91075124Y-65462089D01*
X91125200Y-65488603D01*
X91129223Y-65490075D01*
X91129227Y-65490077D01*
X91394351Y-65587099D01*
X91398382Y-65588574D01*
X91682604Y-65650544D01*
X91711650Y-65652830D01*
X91908297Y-65668307D01*
X91908304Y-65668307D01*
X91910753Y-65668500D01*
X92068121Y-65668500D01*
X92070257Y-65668354D01*
X92070268Y-65668354D01*
X92280949Y-65653991D01*
X92280955Y-65653990D01*
X92285226Y-65653699D01*
X92289421Y-65652830D01*
X92289423Y-65652830D01*
X92427654Y-65624204D01*
X92570081Y-65594709D01*
X92844295Y-65497605D01*
X93102793Y-65364184D01*
X93106294Y-65361723D01*
X93106298Y-65361721D01*
X93293546Y-65230120D01*
X93340792Y-65196915D01*
X93531046Y-65020120D01*
X93550745Y-65001815D01*
X93550748Y-65001812D01*
X93553888Y-64998894D01*
X93560286Y-64991078D01*
X93723355Y-64791846D01*
X93738139Y-64773784D01*
X93890133Y-64525752D01*
X93898869Y-64505852D01*
X93968667Y-64346846D01*
X94007059Y-64259386D01*
X94009484Y-64250875D01*
X94055860Y-64088069D01*
X94086754Y-63979616D01*
X94089286Y-63961829D01*
X94127137Y-63695870D01*
X94127742Y-63691619D01*
X94128751Y-63498919D01*
X94129243Y-63405009D01*
X94129243Y-63405003D01*
X94129265Y-63400723D01*
X94113798Y-63283242D01*
X94124737Y-63213095D01*
X94171865Y-63159996D01*
X94240219Y-63140806D01*
X94297388Y-63155289D01*
X94321840Y-63168154D01*
X94575613Y-63256775D01*
X94580206Y-63257647D01*
X94835109Y-63306042D01*
X94835112Y-63306042D01*
X94839698Y-63306913D01*
X94967370Y-63311929D01*
X95103625Y-63317283D01*
X95103630Y-63317283D01*
X95108293Y-63317466D01*
X95212607Y-63306042D01*
X95370844Y-63288713D01*
X95370850Y-63288712D01*
X95375497Y-63288203D01*
X95380021Y-63287012D01*
X95630918Y-63220956D01*
X95630920Y-63220955D01*
X95635441Y-63219765D01*
X95734330Y-63177279D01*
X95878120Y-63115502D01*
X95878122Y-63115501D01*
X95882414Y-63113657D01*
X96072213Y-62996206D01*
X96107017Y-62974669D01*
X96107021Y-62974666D01*
X96110990Y-62972210D01*
X96314413Y-62800000D01*
X115486496Y-62800000D01*
X115487186Y-62806565D01*
X115504639Y-62972617D01*
X115506458Y-62989928D01*
X115565473Y-63171556D01*
X115568776Y-63177278D01*
X115568777Y-63177279D01*
X115593994Y-63220956D01*
X115660960Y-63336944D01*
X115665378Y-63341851D01*
X115665379Y-63341852D01*
X115702138Y-63382677D01*
X115788747Y-63478866D01*
X115872436Y-63539670D01*
X115931417Y-63582522D01*
X115943248Y-63591118D01*
X115949276Y-63593802D01*
X115949278Y-63593803D01*
X115965688Y-63601109D01*
X116117712Y-63668794D01*
X116204884Y-63687323D01*
X116298056Y-63707128D01*
X116298061Y-63707128D01*
X116304513Y-63708500D01*
X116395761Y-63708500D01*
X116463882Y-63728502D01*
X116484856Y-63745405D01*
X118735685Y-65996234D01*
X118746552Y-66008625D01*
X118766013Y-66033987D01*
X118772563Y-66039013D01*
X118797925Y-66058474D01*
X118797928Y-66058477D01*
X118881652Y-66122721D01*
X118893124Y-66131524D01*
X119041149Y-66192838D01*
X119049336Y-66193916D01*
X119049337Y-66193916D01*
X119060542Y-66195391D01*
X119091738Y-66199498D01*
X119160115Y-66208500D01*
X119160118Y-66208500D01*
X119160126Y-66208501D01*
X119191811Y-66212672D01*
X119200000Y-66213750D01*
X119231693Y-66209578D01*
X119248136Y-66208500D01*
X124751864Y-66208500D01*
X124768307Y-66209578D01*
X124800000Y-66213750D01*
X124808189Y-66212672D01*
X124839874Y-66208501D01*
X124839884Y-66208500D01*
X124839885Y-66208500D01*
X124839901Y-66208498D01*
X124939457Y-66195391D01*
X124950664Y-66193916D01*
X124950666Y-66193915D01*
X124958851Y-66192838D01*
X125106876Y-66131524D01*
X125118349Y-66122721D01*
X125202072Y-66058477D01*
X125202075Y-66058474D01*
X125227434Y-66039015D01*
X125233987Y-66033987D01*
X125239017Y-66027432D01*
X125253452Y-66008621D01*
X125264319Y-65996230D01*
X125736234Y-65524315D01*
X125748625Y-65513448D01*
X125767437Y-65499013D01*
X125773987Y-65493987D01*
X125798474Y-65462075D01*
X125798477Y-65462072D01*
X125871523Y-65366876D01*
X125871524Y-65366875D01*
X125877486Y-65352483D01*
X125929678Y-65226479D01*
X125932838Y-65218850D01*
X125948500Y-65099885D01*
X125948500Y-65099878D01*
X125951663Y-65075852D01*
X125980385Y-65010925D01*
X126021152Y-64979147D01*
X126023256Y-64978116D01*
X126037994Y-64970896D01*
X126042198Y-64967898D01*
X126042202Y-64967895D01*
X126125761Y-64908293D01*
X126219860Y-64841173D01*
X126378096Y-64683489D01*
X126508453Y-64502077D01*
X126531588Y-64455268D01*
X126605136Y-64306453D01*
X126605137Y-64306451D01*
X126607430Y-64301811D01*
X126648863Y-64165438D01*
X126670865Y-64093023D01*
X126670865Y-64093021D01*
X126672370Y-64088069D01*
X126701529Y-63866590D01*
X126703156Y-63800000D01*
X126684852Y-63577361D01*
X126630431Y-63360702D01*
X126541354Y-63155840D01*
X126420014Y-62968277D01*
X126269670Y-62803051D01*
X126265619Y-62799852D01*
X126265615Y-62799848D01*
X126098414Y-62667800D01*
X126098410Y-62667798D01*
X126094359Y-62664598D01*
X126053053Y-62641796D01*
X126003084Y-62591364D01*
X125988312Y-62521921D01*
X126013428Y-62455516D01*
X126040780Y-62428909D01*
X126108727Y-62380443D01*
X126219860Y-62301173D01*
X126224835Y-62296216D01*
X126374435Y-62147137D01*
X126378096Y-62143489D01*
X126437594Y-62060689D01*
X126505435Y-61966277D01*
X126508453Y-61962077D01*
X126522384Y-61933891D01*
X126605136Y-61766453D01*
X126605137Y-61766451D01*
X126607430Y-61761811D01*
X126672370Y-61548069D01*
X126701529Y-61326590D01*
X126703156Y-61260000D01*
X126684852Y-61037361D01*
X126630431Y-60820702D01*
X126541354Y-60615840D01*
X126463129Y-60494922D01*
X126422822Y-60432617D01*
X126422820Y-60432614D01*
X126420014Y-60428277D01*
X126269670Y-60263051D01*
X126265619Y-60259852D01*
X126265615Y-60259848D01*
X126098414Y-60127800D01*
X126098410Y-60127798D01*
X126094359Y-60124598D01*
X126053053Y-60101796D01*
X126003084Y-60051364D01*
X125988312Y-59981921D01*
X126013428Y-59915516D01*
X126040780Y-59888909D01*
X126084603Y-59857650D01*
X126219860Y-59761173D01*
X126240318Y-59740787D01*
X126374435Y-59607137D01*
X126378096Y-59603489D01*
X126437594Y-59520689D01*
X126505435Y-59426277D01*
X126508453Y-59422077D01*
X126529320Y-59379857D01*
X126605136Y-59226453D01*
X126605137Y-59226451D01*
X126607430Y-59221811D01*
X126672370Y-59008069D01*
X126701529Y-58786590D01*
X126703156Y-58720000D01*
X126684852Y-58497361D01*
X126630431Y-58280702D01*
X126541354Y-58075840D01*
X126420014Y-57888277D01*
X126269670Y-57723051D01*
X126265619Y-57719852D01*
X126265615Y-57719848D01*
X126098414Y-57587800D01*
X126098410Y-57587798D01*
X126094359Y-57584598D01*
X126052569Y-57561529D01*
X126002598Y-57511097D01*
X125987826Y-57441654D01*
X126012942Y-57375248D01*
X126040294Y-57348641D01*
X126215328Y-57223792D01*
X126223200Y-57217139D01*
X126374052Y-57066812D01*
X126380730Y-57058965D01*
X126505003Y-56886020D01*
X126510313Y-56877183D01*
X126604670Y-56686267D01*
X126608469Y-56676672D01*
X126670377Y-56472910D01*
X126672555Y-56462837D01*
X126673986Y-56451962D01*
X126671775Y-56437778D01*
X126658617Y-56434000D01*
X125212000Y-56434000D01*
X125143879Y-56413998D01*
X125097386Y-56360342D01*
X125086000Y-56308000D01*
X125086000Y-55907885D01*
X125594000Y-55907885D01*
X125598475Y-55923124D01*
X125599865Y-55924329D01*
X125607548Y-55926000D01*
X126658344Y-55926000D01*
X126671875Y-55922027D01*
X126673180Y-55912947D01*
X126631214Y-55745875D01*
X126627894Y-55736124D01*
X126542972Y-55540814D01*
X126538105Y-55531739D01*
X126422426Y-55352926D01*
X126416136Y-55344757D01*
X126272806Y-55187240D01*
X126265273Y-55180215D01*
X126098139Y-55048222D01*
X126089552Y-55042517D01*
X126052116Y-55021851D01*
X126002146Y-54971419D01*
X125987374Y-54901976D01*
X126012490Y-54835571D01*
X126039842Y-54808964D01*
X126215327Y-54683792D01*
X126223200Y-54677139D01*
X126374052Y-54526812D01*
X126380730Y-54518965D01*
X126505003Y-54346020D01*
X126510313Y-54337183D01*
X126604670Y-54146267D01*
X126608469Y-54136672D01*
X126670377Y-53932910D01*
X126672555Y-53922837D01*
X126673986Y-53911962D01*
X126671775Y-53897778D01*
X126658617Y-53894000D01*
X125612115Y-53894000D01*
X125596876Y-53898475D01*
X125595671Y-53899865D01*
X125594000Y-53907548D01*
X125594000Y-55907885D01*
X125086000Y-55907885D01*
X125086000Y-53367885D01*
X125594000Y-53367885D01*
X125598475Y-53383124D01*
X125599865Y-53384329D01*
X125607548Y-53386000D01*
X126658344Y-53386000D01*
X126671875Y-53382027D01*
X126673180Y-53372947D01*
X126631214Y-53205875D01*
X126627894Y-53196124D01*
X126542972Y-53000814D01*
X126538105Y-52991739D01*
X126422426Y-52812926D01*
X126416136Y-52804757D01*
X126272806Y-52647240D01*
X126265273Y-52640215D01*
X126098139Y-52508222D01*
X126089552Y-52502517D01*
X125903117Y-52399599D01*
X125893705Y-52395369D01*
X125692959Y-52324280D01*
X125682988Y-52321646D01*
X125611837Y-52308972D01*
X125598540Y-52310432D01*
X125594000Y-52324989D01*
X125594000Y-53367885D01*
X125086000Y-53367885D01*
X125086000Y-52323102D01*
X125082082Y-52309758D01*
X125067806Y-52307771D01*
X125029324Y-52313660D01*
X125019288Y-52316051D01*
X124816868Y-52382212D01*
X124807359Y-52386209D01*
X124618463Y-52484542D01*
X124609738Y-52490036D01*
X124439433Y-52617905D01*
X124431726Y-52624748D01*
X124284590Y-52778717D01*
X124278109Y-52786722D01*
X124173498Y-52940074D01*
X124118587Y-52985076D01*
X124048062Y-52993247D01*
X123984315Y-52961993D01*
X123963618Y-52937509D01*
X123882822Y-52812617D01*
X123882820Y-52812614D01*
X123880014Y-52808277D01*
X123729670Y-52643051D01*
X123725619Y-52639852D01*
X123725615Y-52639848D01*
X123558414Y-52507800D01*
X123558410Y-52507798D01*
X123554359Y-52504598D01*
X123518028Y-52484542D01*
X123502136Y-52475769D01*
X123358789Y-52396638D01*
X123353920Y-52394914D01*
X123353916Y-52394912D01*
X123153087Y-52323795D01*
X123153083Y-52323794D01*
X123148212Y-52322069D01*
X123143119Y-52321162D01*
X123143116Y-52321161D01*
X122933373Y-52283800D01*
X122933367Y-52283799D01*
X122928284Y-52282894D01*
X122854452Y-52281992D01*
X122710081Y-52280228D01*
X122710079Y-52280228D01*
X122704911Y-52280165D01*
X122484091Y-52313955D01*
X122271756Y-52383357D01*
X122073607Y-52486507D01*
X122069474Y-52489610D01*
X122069471Y-52489612D01*
X121899100Y-52617530D01*
X121894965Y-52620635D01*
X121740629Y-52782138D01*
X121614743Y-52966680D01*
X121520688Y-53169305D01*
X121460989Y-53384570D01*
X121437251Y-53606695D01*
X121450110Y-53829715D01*
X121451247Y-53834761D01*
X121451248Y-53834767D01*
X121464597Y-53894000D01*
X121499222Y-54047639D01*
X121583266Y-54254616D01*
X121699987Y-54445088D01*
X121846250Y-54613938D01*
X122018126Y-54756632D01*
X122088595Y-54797811D01*
X122091445Y-54799476D01*
X122140169Y-54851114D01*
X122153240Y-54920897D01*
X122126509Y-54986669D01*
X122086055Y-55020027D01*
X122073607Y-55026507D01*
X122069474Y-55029610D01*
X122069471Y-55029612D01*
X122045247Y-55047800D01*
X121894965Y-55160635D01*
X121740629Y-55322138D01*
X121614743Y-55506680D01*
X121520688Y-55709305D01*
X121460989Y-55924570D01*
X121437251Y-56146695D01*
X121450110Y-56369715D01*
X121451247Y-56374761D01*
X121451248Y-56374767D01*
X121464597Y-56434000D01*
X121499222Y-56587639D01*
X121583266Y-56794616D01*
X121699987Y-56985088D01*
X121846250Y-57153938D01*
X122018126Y-57296632D01*
X122088595Y-57337811D01*
X122091445Y-57339476D01*
X122140169Y-57391114D01*
X122153240Y-57460897D01*
X122126509Y-57526669D01*
X122086055Y-57560027D01*
X122073607Y-57566507D01*
X122069474Y-57569610D01*
X122069471Y-57569612D01*
X122045247Y-57587800D01*
X121894965Y-57700635D01*
X121740629Y-57862138D01*
X121614743Y-58046680D01*
X121520688Y-58249305D01*
X121460989Y-58464570D01*
X121437251Y-58686695D01*
X121437548Y-58691848D01*
X121437548Y-58691851D01*
X121443011Y-58786590D01*
X121450110Y-58909715D01*
X121451247Y-58914761D01*
X121451248Y-58914767D01*
X121471119Y-59002939D01*
X121499222Y-59127639D01*
X121583266Y-59334616D01*
X121634019Y-59417438D01*
X121697291Y-59520688D01*
X121699987Y-59525088D01*
X121846250Y-59693938D01*
X121902680Y-59740787D01*
X122000578Y-59822063D01*
X122018126Y-59836632D01*
X122088595Y-59877811D01*
X122091445Y-59879476D01*
X122140169Y-59931114D01*
X122153240Y-60000897D01*
X122126509Y-60066669D01*
X122086055Y-60100027D01*
X122073607Y-60106507D01*
X122069474Y-60109610D01*
X122069471Y-60109612D01*
X122045247Y-60127800D01*
X121894965Y-60240635D01*
X121740629Y-60402138D01*
X121614743Y-60586680D01*
X121520688Y-60789305D01*
X121460989Y-61004570D01*
X121437251Y-61226695D01*
X121437548Y-61231848D01*
X121437548Y-61231851D01*
X121448346Y-61419120D01*
X121450110Y-61449715D01*
X121451247Y-61454761D01*
X121451248Y-61454767D01*
X121471119Y-61542939D01*
X121499222Y-61667639D01*
X121583266Y-61874616D01*
X121634019Y-61957438D01*
X121697291Y-62060688D01*
X121699987Y-62065088D01*
X121846250Y-62233938D01*
X121850230Y-62237242D01*
X121854981Y-62241187D01*
X121894616Y-62300090D01*
X121896113Y-62371071D01*
X121858997Y-62431593D01*
X121818725Y-62456112D01*
X121730095Y-62489338D01*
X121703295Y-62499385D01*
X121586739Y-62586739D01*
X121499385Y-62703295D01*
X121448255Y-62839684D01*
X121441500Y-62901866D01*
X121441500Y-64698134D01*
X121448255Y-64760316D01*
X121471105Y-64821268D01*
X121471106Y-64821270D01*
X121476289Y-64892077D01*
X121442369Y-64954446D01*
X121380113Y-64988575D01*
X121353124Y-64991500D01*
X119504239Y-64991500D01*
X119436118Y-64971498D01*
X119415144Y-64954595D01*
X117349719Y-62889170D01*
X117315693Y-62826858D01*
X117313159Y-62803284D01*
X117313504Y-62800000D01*
X117302585Y-62696109D01*
X117294232Y-62616635D01*
X117294232Y-62616633D01*
X117293542Y-62610072D01*
X117234527Y-62428444D01*
X117139040Y-62263056D01*
X117025841Y-62137335D01*
X117015675Y-62126045D01*
X117015674Y-62126044D01*
X117011253Y-62121134D01*
X116856752Y-62008882D01*
X116850724Y-62006198D01*
X116850722Y-62006197D01*
X116688319Y-61933891D01*
X116688318Y-61933891D01*
X116682288Y-61931206D01*
X116571349Y-61907625D01*
X116501944Y-61892872D01*
X116501939Y-61892872D01*
X116495487Y-61891500D01*
X116304513Y-61891500D01*
X116298061Y-61892872D01*
X116298056Y-61892872D01*
X116228651Y-61907625D01*
X116117712Y-61931206D01*
X116111682Y-61933891D01*
X116111681Y-61933891D01*
X115949278Y-62006197D01*
X115949276Y-62006198D01*
X115943248Y-62008882D01*
X115788747Y-62121134D01*
X115784326Y-62126044D01*
X115784325Y-62126045D01*
X115774160Y-62137335D01*
X115660960Y-62263056D01*
X115565473Y-62428444D01*
X115506458Y-62610072D01*
X115505768Y-62616633D01*
X115505768Y-62616635D01*
X115497415Y-62696109D01*
X115486496Y-62800000D01*
X96314413Y-62800000D01*
X96316149Y-62798530D01*
X96493382Y-62596434D01*
X96496644Y-62591364D01*
X96632312Y-62380443D01*
X96638797Y-62370361D01*
X96749199Y-62125278D01*
X96782026Y-62008882D01*
X96820893Y-61871072D01*
X96820894Y-61871069D01*
X96822163Y-61866568D01*
X96842614Y-61705816D01*
X96855688Y-61603045D01*
X96855688Y-61603041D01*
X96856086Y-61599915D01*
X96856519Y-61583402D01*
X96858091Y-61523323D01*
X96858571Y-61505000D01*
X96838650Y-61236937D01*
X96837619Y-61232379D01*
X96780361Y-60979331D01*
X96780360Y-60979326D01*
X96779327Y-60974763D01*
X96681902Y-60724238D01*
X96548518Y-60490864D01*
X96382105Y-60279769D01*
X96186317Y-60095591D01*
X95965457Y-59942374D01*
X95942624Y-59931114D01*
X95728564Y-59825551D01*
X95728561Y-59825550D01*
X95724376Y-59823486D01*
X95676745Y-59808239D01*
X95622621Y-59790914D01*
X95468370Y-59741538D01*
X95463763Y-59740788D01*
X95463760Y-59740787D01*
X95207674Y-59699081D01*
X95207675Y-59699081D01*
X95203063Y-59698330D01*
X95072719Y-59696624D01*
X94938961Y-59694873D01*
X94938958Y-59694873D01*
X94934284Y-59694812D01*
X94667937Y-59731060D01*
X94409874Y-59806278D01*
X94165763Y-59918815D01*
X94161854Y-59921378D01*
X93944881Y-60063631D01*
X93944876Y-60063635D01*
X93940968Y-60066197D01*
X93740426Y-60245188D01*
X93568544Y-60451854D01*
X93429096Y-60681656D01*
X93325148Y-60929545D01*
X93258981Y-61190077D01*
X93232050Y-61457526D01*
X93232274Y-61462192D01*
X93232274Y-61462197D01*
X93237130Y-61563280D01*
X93220419Y-61632282D01*
X93169056Y-61681296D01*
X93099348Y-61694760D01*
X93052316Y-61680681D01*
X92868587Y-61583402D01*
X92868586Y-61583401D01*
X92864800Y-61581397D01*
X92860777Y-61579925D01*
X92860773Y-61579923D01*
X92595649Y-61482901D01*
X92595647Y-61482900D01*
X92591618Y-61481426D01*
X92307396Y-61419456D01*
X92263598Y-61416009D01*
X92081703Y-61401693D01*
X92081696Y-61401693D01*
X92079247Y-61401500D01*
X91921879Y-61401500D01*
X91919743Y-61401646D01*
X91919732Y-61401646D01*
X91709051Y-61416009D01*
X91709045Y-61416010D01*
X91704774Y-61416301D01*
X91700579Y-61417170D01*
X91700577Y-61417170D01*
X91685130Y-61420369D01*
X91419919Y-61475291D01*
X91145705Y-61572395D01*
X91141896Y-61574361D01*
X90908628Y-61694760D01*
X90887207Y-61705816D01*
X90883706Y-61708277D01*
X90883702Y-61708279D01*
X90768208Y-61789450D01*
X90649208Y-61873085D01*
X90646067Y-61876004D01*
X90498897Y-62012763D01*
X90436112Y-62071106D01*
X90433398Y-62074422D01*
X90433395Y-62074425D01*
X90381904Y-62137335D01*
X90251861Y-62296216D01*
X90099867Y-62544248D01*
X90098148Y-62548165D01*
X90098146Y-62548168D01*
X90062255Y-62629930D01*
X89982941Y-62810614D01*
X89981765Y-62814742D01*
X89981764Y-62814745D01*
X89960564Y-62889170D01*
X89903246Y-63090384D01*
X89902642Y-63094626D01*
X89902641Y-63094632D01*
X89870927Y-63317466D01*
X89862258Y-63378381D01*
X89862122Y-63404385D01*
X89861165Y-63587237D01*
X89860735Y-63669277D01*
X89092666Y-63669277D01*
X89196535Y-63547663D01*
X89196537Y-63547660D01*
X89199752Y-63543896D01*
X89327927Y-63334732D01*
X89398121Y-63165271D01*
X89419911Y-63112665D01*
X89419912Y-63112663D01*
X89421805Y-63108092D01*
X89470495Y-62905283D01*
X89477917Y-62874370D01*
X89477918Y-62874364D01*
X89479072Y-62869557D01*
X89498319Y-62625000D01*
X89479072Y-62380443D01*
X89477596Y-62374291D01*
X89422960Y-62146720D01*
X89421805Y-62141908D01*
X89413052Y-62120775D01*
X89347316Y-61962077D01*
X89327927Y-61915268D01*
X89199752Y-61706104D01*
X89190064Y-61694760D01*
X89043641Y-61523323D01*
X89040433Y-61519567D01*
X88988593Y-61475291D01*
X88857663Y-61363465D01*
X88857660Y-61363463D01*
X88853896Y-61360248D01*
X88849673Y-61357660D01*
X88849670Y-61357658D01*
X88695796Y-61263365D01*
X88644732Y-61232073D01*
X88500033Y-61172136D01*
X88422665Y-61140089D01*
X88422663Y-61140088D01*
X88418092Y-61138195D01*
X88335437Y-61118351D01*
X88184370Y-61082083D01*
X88184364Y-61082082D01*
X88179557Y-61080928D01*
X87935000Y-61061681D01*
X87690443Y-61080928D01*
X87685636Y-61082082D01*
X87685630Y-61082083D01*
X87534563Y-61118351D01*
X87451908Y-61138195D01*
X87447337Y-61140088D01*
X87447335Y-61140089D01*
X87369967Y-61172136D01*
X87225268Y-61232073D01*
X87174204Y-61263365D01*
X87020330Y-61357658D01*
X87020327Y-61357660D01*
X87016104Y-61360248D01*
X87012340Y-61363463D01*
X87012337Y-61363465D01*
X86881407Y-61475291D01*
X86829567Y-61519567D01*
X86826359Y-61523323D01*
X86679937Y-61694760D01*
X86670248Y-61706104D01*
X86542073Y-61915268D01*
X86522684Y-61962077D01*
X86456949Y-62120775D01*
X86448195Y-62141908D01*
X86447040Y-62146720D01*
X86392405Y-62374291D01*
X86390928Y-62380443D01*
X86371681Y-62625000D01*
X86390928Y-62869557D01*
X86392082Y-62874364D01*
X86392083Y-62874370D01*
X86399505Y-62905283D01*
X86448195Y-63108092D01*
X86450088Y-63112663D01*
X86450089Y-63112665D01*
X86471879Y-63165271D01*
X86542073Y-63334732D01*
X86670248Y-63543896D01*
X86673463Y-63547660D01*
X86673465Y-63547663D01*
X86819609Y-63718774D01*
X86829567Y-63730433D01*
X86833323Y-63733641D01*
X86910069Y-63799189D01*
X86948878Y-63858640D01*
X86949384Y-63929635D01*
X86910069Y-63990811D01*
X86829567Y-64059567D01*
X86826359Y-64063323D01*
X86676934Y-64238276D01*
X86670248Y-64246104D01*
X86667660Y-64250327D01*
X86667658Y-64250330D01*
X86662109Y-64259386D01*
X86542073Y-64455268D01*
X86448195Y-64681908D01*
X86443484Y-64701531D01*
X86393845Y-64908293D01*
X86390928Y-64920443D01*
X86371681Y-65165000D01*
X81508000Y-65165000D01*
X81508000Y-52849328D01*
X81509500Y-52829943D01*
X81511805Y-52815142D01*
X81511805Y-52815139D01*
X81513186Y-52806270D01*
X81512022Y-52797369D01*
X81512022Y-52797362D01*
X81511351Y-52792234D01*
X81510675Y-52766011D01*
X81523129Y-52607772D01*
X81526222Y-52588244D01*
X81545535Y-52507800D01*
X81568922Y-52410386D01*
X81575030Y-52391587D01*
X81577258Y-52386209D01*
X81645027Y-52222602D01*
X81653997Y-52204997D01*
X81749573Y-52049031D01*
X81761187Y-52033045D01*
X81879980Y-51893956D01*
X81893958Y-51879978D01*
X82033045Y-51761187D01*
X82049033Y-51749571D01*
X82088382Y-51725458D01*
X82204997Y-51653997D01*
X82222602Y-51645027D01*
X82391592Y-51575028D01*
X82410386Y-51568922D01*
X82588245Y-51526222D01*
X82607772Y-51523129D01*
X82759012Y-51511226D01*
X82775881Y-51511867D01*
X82775883Y-51511695D01*
X82784859Y-51511805D01*
X82793730Y-51513186D01*
X82802632Y-51512022D01*
X82802635Y-51512022D01*
X82825251Y-51509064D01*
X82841589Y-51508000D01*
X126150672Y-51508000D01*
X126170057Y-51509500D01*
G37*
%TD.AperFunction*%
%TD*%
M02*
