%TF.GenerationSoftware,KiCad,Pcbnew,(6.0.0)*%
%TF.CreationDate,2022-04-11T12:33:07+02:00*%
%TF.ProjectId,W5500_Shield_Ethernet,57353530-305f-4536-9869-656c645f4574,rev?*%
%TF.SameCoordinates,Original*%
%TF.FileFunction,Soldermask,Top*%
%TF.FilePolarity,Negative*%
%FSLAX46Y46*%
G04 Gerber Fmt 4.6, Leading zero omitted, Abs format (unit mm)*
G04 Created by KiCad (PCBNEW (6.0.0)) date 2022-04-11 12:33:07*
%MOMM*%
%LPD*%
G01*
G04 APERTURE LIST*
G04 Aperture macros list*
%AMRoundRect*
0 Rectangle with rounded corners*
0 $1 Rounding radius*
0 $2 $3 $4 $5 $6 $7 $8 $9 X,Y pos of 4 corners*
0 Add a 4 corners polygon primitive as box body*
4,1,4,$2,$3,$4,$5,$6,$7,$8,$9,$2,$3,0*
0 Add four circle primitives for the rounded corners*
1,1,$1+$1,$2,$3*
1,1,$1+$1,$4,$5*
1,1,$1+$1,$6,$7*
1,1,$1+$1,$8,$9*
0 Add four rect primitives between the rounded corners*
20,1,$1+$1,$2,$3,$4,$5,0*
20,1,$1+$1,$4,$5,$6,$7,0*
20,1,$1+$1,$6,$7,$8,$9,0*
20,1,$1+$1,$8,$9,$2,$3,0*%
G04 Aperture macros list end*
%ADD10R,1.700000X1.700000*%
%ADD11O,1.700000X1.700000*%
%ADD12RoundRect,0.075000X-0.075000X-0.662500X0.075000X-0.662500X0.075000X0.662500X-0.075000X0.662500X0*%
%ADD13RoundRect,0.075000X-0.662500X-0.075000X0.662500X-0.075000X0.662500X0.075000X-0.662500X0.075000X0*%
%ADD14RoundRect,0.140000X-0.140000X-0.170000X0.140000X-0.170000X0.140000X0.170000X-0.140000X0.170000X0*%
%ADD15RoundRect,0.135000X-0.185000X0.135000X-0.185000X-0.135000X0.185000X-0.135000X0.185000X0.135000X0*%
%ADD16RoundRect,0.135000X-0.135000X-0.185000X0.135000X-0.185000X0.135000X0.185000X-0.135000X0.185000X0*%
%ADD17RoundRect,0.135000X0.185000X-0.135000X0.185000X0.135000X-0.185000X0.135000X-0.185000X-0.135000X0*%
%ADD18RoundRect,0.200000X0.275000X-0.200000X0.275000X0.200000X-0.275000X0.200000X-0.275000X-0.200000X0*%
%ADD19RoundRect,0.218750X0.218750X0.256250X-0.218750X0.256250X-0.218750X-0.256250X0.218750X-0.256250X0*%
%ADD20RoundRect,0.243750X-0.456250X0.243750X-0.456250X-0.243750X0.456250X-0.243750X0.456250X0.243750X0*%
%ADD21RoundRect,0.140000X-0.170000X0.140000X-0.170000X-0.140000X0.170000X-0.140000X0.170000X0.140000X0*%
%ADD22RoundRect,0.140000X0.140000X0.170000X-0.140000X0.170000X-0.140000X-0.170000X0.140000X-0.170000X0*%
%ADD23RoundRect,0.250000X0.325000X0.650000X-0.325000X0.650000X-0.325000X-0.650000X0.325000X-0.650000X0*%
%ADD24RoundRect,0.140000X0.170000X-0.140000X0.170000X0.140000X-0.170000X0.140000X-0.170000X-0.140000X0*%
%ADD25R,1.200000X1.400000*%
%ADD26RoundRect,0.135000X0.135000X0.185000X-0.135000X0.185000X-0.135000X-0.185000X0.135000X-0.185000X0*%
%ADD27C,3.250000*%
%ADD28C,2.600000*%
%ADD29C,2.100000*%
%ADD30C,1.900000*%
%ADD31R,1.900000X1.900000*%
G04 APERTURE END LIST*
D10*
%TO.C,J2*%
X122800000Y-63800000D03*
D11*
X125340000Y-63800000D03*
X122800000Y-61260000D03*
X125340000Y-61260000D03*
X122800000Y-58720000D03*
X125340000Y-58720000D03*
X122800000Y-56180000D03*
X125340000Y-56180000D03*
X122800000Y-53640000D03*
X125340000Y-53640000D03*
%TD*%
D12*
%TO.C,U2*%
X112000000Y-65837500D03*
X112500000Y-65837500D03*
X113000000Y-65837500D03*
X113500000Y-65837500D03*
X114000000Y-65837500D03*
X114500000Y-65837500D03*
X115000000Y-65837500D03*
X115500000Y-65837500D03*
X116000000Y-65837500D03*
X116500000Y-65837500D03*
X117000000Y-65837500D03*
X117500000Y-65837500D03*
D13*
X118912500Y-67250000D03*
X118912500Y-67750000D03*
X118912500Y-68250000D03*
X118912500Y-68750000D03*
X118912500Y-69250000D03*
X118912500Y-69750000D03*
X118912500Y-70250000D03*
X118912500Y-70750000D03*
X118912500Y-71250000D03*
X118912500Y-71750000D03*
X118912500Y-72250000D03*
X118912500Y-72750000D03*
D12*
X117500000Y-74162500D03*
X117000000Y-74162500D03*
X116500000Y-74162500D03*
X116000000Y-74162500D03*
X115500000Y-74162500D03*
X115000000Y-74162500D03*
X114500000Y-74162500D03*
X114000000Y-74162500D03*
X113500000Y-74162500D03*
X113000000Y-74162500D03*
X112500000Y-74162500D03*
X112000000Y-74162500D03*
D13*
X110587500Y-72750000D03*
X110587500Y-72250000D03*
X110587500Y-71750000D03*
X110587500Y-71250000D03*
X110587500Y-70750000D03*
X110587500Y-70250000D03*
X110587500Y-69750000D03*
X110587500Y-69250000D03*
X110587500Y-68750000D03*
X110587500Y-68250000D03*
X110587500Y-67750000D03*
X110587500Y-67250000D03*
%TD*%
D14*
%TO.C,C13*%
X124370000Y-66900000D03*
X125330000Y-66900000D03*
%TD*%
D15*
%TO.C,R14*%
X109000000Y-72740000D03*
X109000000Y-73760000D03*
%TD*%
D16*
%TO.C,R13*%
X120740000Y-72000000D03*
X121760000Y-72000000D03*
%TD*%
%TO.C,R12*%
X120740000Y-73000000D03*
X121760000Y-73000000D03*
%TD*%
D17*
%TO.C,R11*%
X123100000Y-70160000D03*
X123100000Y-69140000D03*
%TD*%
D18*
%TO.C,R1*%
X112200000Y-57725000D03*
X112200000Y-56075000D03*
%TD*%
D19*
%TO.C,L1*%
X111287500Y-63750000D03*
X109712500Y-63750000D03*
%TD*%
D20*
%TO.C,D1*%
X112200000Y-59462500D03*
X112200000Y-61337500D03*
%TD*%
D21*
%TO.C,C15*%
X115500000Y-76270000D03*
X115500000Y-77230000D03*
%TD*%
%TO.C,C14*%
X116500000Y-76270000D03*
X116500000Y-77230000D03*
%TD*%
D22*
%TO.C,C12*%
X126830000Y-72400000D03*
X125870000Y-72400000D03*
%TD*%
D23*
%TO.C,C11*%
X107725000Y-78500000D03*
X104775000Y-78500000D03*
%TD*%
D21*
%TO.C,C6*%
X112000000Y-76020000D03*
X112000000Y-76980000D03*
%TD*%
%TO.C,C5*%
X113000000Y-76020000D03*
X113000000Y-76980000D03*
%TD*%
D24*
%TO.C,C4*%
X115000000Y-63020000D03*
X115000000Y-63980000D03*
%TD*%
%TO.C,C3*%
X114000000Y-63020000D03*
X114000000Y-63980000D03*
%TD*%
D25*
%TO.C,Y1*%
X126450000Y-70750000D03*
X126450000Y-68550000D03*
X124750000Y-68550000D03*
X124750000Y-70750000D03*
%TD*%
D14*
%TO.C,C9*%
X107020000Y-72750000D03*
X106060000Y-72750000D03*
%TD*%
D26*
%TO.C,R10*%
X106010000Y-74000000D03*
X107030000Y-74000000D03*
%TD*%
%TO.C,R9*%
X106010000Y-71500000D03*
X107030000Y-71500000D03*
%TD*%
%TO.C,R8*%
X106000000Y-76500000D03*
X107020000Y-76500000D03*
%TD*%
%TO.C,R7*%
X106010000Y-69000000D03*
X107030000Y-69000000D03*
%TD*%
%TO.C,R6*%
X107040000Y-66500000D03*
X106020000Y-66500000D03*
%TD*%
%TO.C,R5*%
X106010000Y-65250000D03*
X107030000Y-65250000D03*
%TD*%
D16*
%TO.C,R4*%
X107040000Y-67750000D03*
X106020000Y-67750000D03*
%TD*%
%TO.C,R3*%
X107040000Y-64000000D03*
X106020000Y-64000000D03*
%TD*%
D17*
%TO.C,R2*%
X104000000Y-61250000D03*
X104000000Y-60230000D03*
%TD*%
D27*
%TO.C,J1*%
X91995000Y-74965000D03*
X91995000Y-63535000D03*
D28*
X95045000Y-76995000D03*
X95045000Y-61505000D03*
D29*
X87935000Y-62625000D03*
X87935000Y-65165000D03*
X87935000Y-73335000D03*
X87935000Y-75875000D03*
D30*
X100885000Y-73695000D03*
X98345000Y-72425000D03*
X100885000Y-71155000D03*
X98345000Y-69885000D03*
X100885000Y-68615000D03*
X98345000Y-67345000D03*
X100885000Y-66075000D03*
D31*
X98345000Y-64805000D03*
%TD*%
D24*
%TO.C,C10*%
X105250000Y-61220000D03*
X105250000Y-60260000D03*
%TD*%
D22*
%TO.C,C8*%
X106040000Y-75250000D03*
X107000000Y-75250000D03*
%TD*%
%TO.C,C7*%
X106040000Y-70250000D03*
X107000000Y-70250000D03*
%TD*%
M02*
