M48
; DRILL file {KiCad (6.0.0)} date Thu Apr 14 08:35:52 2022
; FORMAT={3:3/ absolute / metric / suppress leading zeros}
; #@! TF.CreationDate,2022-04-14T08:35:52+02:00
; #@! TF.GenerationSoftware,Kicad,Pcbnew,(6.0.0)
; #@! TF.FileFunction,Plated,1,2,PTH
FMAT,2
METRIC,TZ
; #@! TA.AperFunction,Plated,PTH,ViaDrill
T1C0.400
; #@! TA.AperFunction,Plated,PTH,ComponentDrill
T2C0.900
; #@! TA.AperFunction,Plated,PTH,ComponentDrill
T3C1.000
; #@! TA.AperFunction,Plated,PTH,ComponentDrill
T4C1.100
; #@! TA.AperFunction,Plated,PTH,ComponentDrill
T5C1.600
%
G90
G05
T1
X104750Y-66500
X105000Y-72750
X105000Y-75250
X106250Y-61250
X108020Y-64250
X108750Y-71000
X109250Y-77250
X109250Y-78500
X110000Y-73750
X110750Y-65500
X110750Y-75250
X111000Y-77000
X112200Y-54844
X112500Y-67750
X112500Y-68750
X114000Y-62000
X114000Y-71750
X114000Y-76500
X114500Y-77500
X115000Y-62000
X116400Y-62800
X116500Y-64000
X117750Y-77250
X121000Y-71000
X124500Y-72250
X126500Y-67000
T2
X98345Y-64805
X98345Y-67345
X98345Y-69885
X98345Y-72425
X100885Y-66075
X100885Y-68615
X100885Y-71155
X100885Y-73695
T3
X122800Y-53640
X122800Y-56180
X122800Y-58720
X122800Y-61260
X122800Y-63800
X125340Y-53640
X125340Y-56180
X125340Y-58720
X125340Y-61260
X125340Y-63800
T4
X87935Y-62625
X87935Y-65165
X87935Y-73335
X87935Y-75875
T5
X95045Y-61505
X95045Y-76995
T0
M30
